SplineFontDB: 3.0
FontName: GoudyStM
FullName: Sorts Mill Goudy
FamilyName: Sorts Mill Goudy
Weight: Regular
Copyright: Copyright (c) 2009-2010 Barry Schwartz
UComments: "2009-6-24: Created." 
Version: 003.002
ItalicAngle: 0
UnderlinePosition: -99
UnderlineWidth: 49
Ascent: 777
Descent: 223
LayerCount: 3
Layer: 0 0 "Back"  1
Layer: 1 0 "Fore"  0
Layer: 2 0 "backup"  1
XUID: [1021 658 797806517 2347079]
FSType: 0
OS2Version: 0
OS2_WeightWidthSlopeOnly: 0
OS2_UseTypoMetrics: 1
CreationTime: 1245830276
ModificationTime: 1278824417
PfmFamily: 17
TTFWeight: 500
TTFWidth: 5
LineGap: 90
VLineGap: 0
OS2TypoAscent: 0
OS2TypoAOffset: 1
OS2TypoDescent: 0
OS2TypoDOffset: 1
OS2TypoLinegap: 90
OS2WinAscent: 0
OS2WinAOffset: 1
OS2WinDescent: 0
OS2WinDOffset: 1
HheadAscent: 0
HheadAOffset: 1
HheadDescent: 0
HheadDOffset: 1
OS2Vendor: 'PfEd'
Lookup: 3 0 0 "'aalt' Access All Alternates lookup 0"  {"'aalt' Access All Alternates lookup 0 subtable"  } ['aalt' ('DFLT' <'dflt' > ) ]
Lookup: 3 0 0 "'aalt' Access All Alternates in Latin lookup 0"  {"'aalt' Access All Alternates in Latin lookup 0 subtable"  } ['aalt' ('latn' <'TRK ' 'AZE ' 'CRT ' 'dflt' > ) ]
Lookup: 1 0 0 "turkish"  {"turkish subtable"  } ['locl' ('latn' <'TRK ' 'AZE ' 'CRT ' > ) ]
Lookup: 1 0 0 "numerators"  {"numerators subtable"  } ['frac' ('latn' <'dflt' 'TRK ' 'AZE ' 'CRT ' > 'DFLT' <'dflt' > ) 'numr' ('latn' <'dflt' 'TRK ' 'AZE ' 'CRT ' > 'DFLT' <'dflt' > ) ]
Lookup: 1 0 0 "denominators"  {"denominators subtable"  } ['dnom' ('latn' <'dflt' 'TRK ' 'AZE ' 'CRT ' > 'DFLT' <'dflt' > ) ]
Lookup: 1 0 0 "'numr' Numerators in Latin lookup 3"  {"'numr' Numerators in Latin lookup 3 subtable"  } ['numr' ('latn' <'dflt' 'TRK ' 'AZE ' 'CRT ' > 'DFLT' <'dflt' > ) ]
Lookup: 1 0 0 "'dnom' Denominators in Latin lookup 4"  {"'dnom' Denominators in Latin lookup 4 subtable"  } ['dnom' ('latn' <'dflt' 'TRK ' 'AZE ' 'CRT ' > 'DFLT' <'dflt' > ) ]

StartChar: h
Encoding: 104 104 0
Width: 587
VWidth: 0
Flags: HW
PickledData: "(dp1
Vspacing_anchors_slanted
p2
I00
s."
HStem: 0 30<179.695 249.649 493.673 566.723> 0 23<34.0477 69.799> 388 46<233.115 346.558> 738 20G<155 167>
VStem: 96 71<380.339 682.286> 96 64<42.0898 344.469 360.005 605.214> 408 72<38.1094 321.496>
AnchorPoint: "l;t" 0 562 basechar 0
AnchorPoint: "top" 306 723 basechar 0
AnchorPoint: "l;bl" 0 20 basechar 0
AnchorPoint: "l;x" 5 415 basechar 0
AnchorPoint: "l;hi" 0 732 basechar 0
AnchorPoint: "l;o" 5 220 basechar 0
AnchorPoint: "r;bl" 587 20 basechar 0
AnchorPoint: "r;x" 577 415 basechar 0
AnchorPoint: "r;o" 577 220 basechar 0
LayerCount: 3
Back
SplineSet
20 697 m 4x7c
 20 716 62 718 89 730 c 28
 116 742 149 758 161 758 c 4
 173 758 174 742 174 735 c 4
 174 721 167 707 167 673 c 4
 164 381 159 382 159 382 c 6
 159 369 162 360 168 360 c 4
 178 360 226 434 309 434 c 4
 412 434 480 376 480 237 c 6
 480 92 l 6
 480 77 485 37 513 34 c 4
 543 31 567 25 567 13 c 4
 567 0 552 -3 536 -3 c 4
 524 -3 473 2 452 2 c 4
 436 2 383 -1 375 -1 c 4
 362 -1 352 1 352 9 c 4
 352 42 406 4 406 72 c 4
 406 89 408 72 408 238 c 4
 408 320 350 388 284 388 c 4
 246 388 210 367 187 349 c 4
 163 330 159 310 159 164 c 6
 159 141 l 6
 159 93 162 46 199 30 c 4
 220 21 250 30 250 12 c 4
 250 6 245 0 239 0 c 4xbc
 238 0 137 5 132 5 c 4
 118 5 76 0 61 0 c 4
 33 0 34 4 34 10 c 4
 34 15 35 20 46 23 c 4
 87 35 92 60 92 100 c 6
 96 441 l 6
 96 461 96 475 96 490 c 4
 96 665 96 686 54 686 c 4
 39 686 40 687 37 687 c 4
 26 687 20 691 20 697 c 4x7c
EndSplineSet
Fore
SplineSet
20 697 m 0x7a
 20 716 62 718 89 730 c 24
 116 742 149 758 161 758 c 0
 173 758 174 742 174 735 c 0
 174 721 167 707 167 673 c 0x7a
 164 408 160 408 160 379 c 0
 160 367 162 360 168 360 c 0
 178 360 226 434 309 434 c 0
 412 434 480 376 480 237 c 2
 480 92 l 2
 480 77 485 37 513 34 c 0
 543 31 567 25 567 13 c 0
 567 0 552 -3 536 -3 c 0
 524 -3 473 2 452 2 c 0
 436 2 383 -1 375 -1 c 0
 362 -1 352 1 352 9 c 0
 352 42 406 4 406 72 c 0
 406 89 408 72 408 238 c 0
 408 320 350 388 284 388 c 0
 246 388 210 367 187 349 c 0
 163 330 159 310 159 164 c 2
 159 141 l 2
 159 93 162 46 199 30 c 0
 220 21 250 30 250 12 c 0
 250 6 245 0 239 0 c 0xb6
 238 0 137 5 132 5 c 0
 118 5 76 0 61 0 c 0
 33 0 34 4 34 10 c 0
 34 15 35 20 46 23 c 0
 87 35 92 60 92 100 c 2
 96 441 l 1
 96 490 l 2
 96 665 96 686 54 686 c 0
 39 686 40 687 37 687 c 0
 26 687 20 691 20 697 c 0x7a
EndSplineSet
AlternateSubs2: "'aalt' Access All Alternates lookup 0 subtable" h.sc
AlternateSubs2: "'aalt' Access All Alternates in Latin lookup 0 subtable" h.sc
Substitution2: "'smcp' Lowercase to Small Capitals in Latin lookup 10 subtable" h.sc
EndChar

StartChar: g
Encoding: 103 103 1
Width: 488
VWidth: 0
Flags: HMW
PickledData: "(dp1
Vspacing_anchors_slanted
p2
I00
s."
HStem: -207 27<152.077 306.71> 127 23<197.202 281.405> 411 22<189.948 267.734>
VStem: 39 58<-145.216 -47.4851> 62 76<200.154 358.308> 78 44<25 112.731> 331 78<203.487 339.445> 386 61<-125.369 -8.77024>
AnchorPoint: "top" 236 459 basechar 0
AnchorPoint: "l;bl" 20 20 basechar 0
AnchorPoint: "l;o" 0 220 basechar 0
AnchorPoint: "l;lo" 10 -205 basechar 0
AnchorPoint: "r;bl" 488 20 basechar 0
AnchorPoint: "r;x" 488 415 basechar 0
AnchorPoint: "r;o" 483 220 basechar 0
AnchorPoint: "r;lo" 458 -205 basechar 0
LayerCount: 3
Fore
SplineSet
39 -97 m 0xf1
 39 -36 111 -22 111 -12 c 0
 111 -6 78 3 78 47 c 0xe4
 78 115 130 136 130 146 c 0
 130 162 62 175 62 280 c 0xe8
 62 332 92 433 235 433 c 0
 323 433 347 393 361 393 c 0
 376 393 393 403 412 411 c 0
 438 422 431 459 448 459 c 0
 451 459 461 459 461 451 c 0
 461 416 448 374 439 360 c 0
 428 343 412 335 398 329 c 1
 398 329 409 299 409 279 c 0
 409 194 336 127 244 127 c 0
 199 127 182 136 167 136 c 0
 165 136 122 134 122 87 c 0xe6
 122 38 173 35 256 35 c 2
 302 35 l 2
 349 35 447 32 447 -53 c 0
 447 -70 446 -86 440 -100 c 0
 414 -165 328 -207 225 -207 c 0
 147 -207 39 -184 39 -97 c 0xf1
97 -91 m 0xf1
 97 -154 159 -180 225 -180 c 0
 302 -180 386 -145 386 -89 c 0
 386 -38 332 -38 275 -38 c 0
 272 -38 269 -38 266 -38 c 0
 213 -38 154 -24 143 -24 c 0
 134 -24 97 -49 97 -91 c 0xf1
138 290 m 0xea
 138 210 180 150 238 150 c 0
 301 150 331 207 331 269 c 0
 331 338 295 411 227 411 c 0
 181 411 138 371 138 290 c 0xea
EndSplineSet
AlternateSubs2: "'aalt' Access All Alternates lookup 0 subtable" g.sc
AlternateSubs2: "'aalt' Access All Alternates in Latin lookup 0 subtable" g.sc
Substitution2: "'smcp' Lowercase to Small Capitals in Latin lookup 10 subtable" g.sc
EndChar

StartChar: f
Encoding: 102 102 2
Width: 345
VWidth: 0
Flags: HW
PickledData: "(dp1
Vspacing_anchors_slanted
p2
I00
s."
HStem: -6 25<205.526 262.918> 372 43<29.6266 107.988 178.053 296.809> 377 55<190.962 296.809> 685 62<262.091 362.78>
VStem: 108 70<37.7734 374.94 415.096 558.401>
AnchorPoint: "l;bl" 0 20 basechar 0
AnchorPoint: "l;x" 0 415 basechar 0
AnchorPoint: "l;o" 0 220 basechar 0
AnchorPoint: "r;bl" 325 20 basechar 0
AnchorPoint: "r;x" 345 415 basechar 0
AnchorPoint: "r;k;hi" 418 732 basechar 0
AnchorPoint: "r;o" 325 220 basechar 0
AnchorPoint: "l;hi" 59 732 basechar 0
AnchorPoint: "l;t" 29 562 basechar 0
AnchorPoint: "r;t" 345 562 basechar 0
LayerCount: 3
Fore
SplineSet
29 385 m 0xd8
 29 410 39 415 71 415 c 0
 77 415 84 415 92 415 c 0xd8
 109 415 110 424 110 438 c 0
 110 644 258 747 330 747 c 0
 361 747 382 736 382 719 c 0
 382 713 379 703 376 691 c 0
 370 671 369 659 353 659 c 0
 341 659 345 685 282 685 c 3
 198 685 177 556 177 458 c 0
 177 450 177 441 177 433 c 0
 177 422 179 414 189 414 c 0
 231 414 264 418 285 422 c 0
 294 424 300 432 306 432 c 0
 309 432 311 428 311 424 c 0
 311 407 302 395 297 386 c 0
 293 380 284 377 272 377 c 0xb8
 225 377 256 376 194 376 c 0
 185 376 178 375 178 366 c 2
 178 308 l 2
 178 290 182 153 183 110 c 0
 184 72 184 19 246 19 c 0
 262 19 263 11 263 4 c 0
 263 0 262 -6 252 -6 c 0
 249 -6 175 -1 152 -1 c 0
 115 -1 117 -6 78 -6 c 0
 69 -6 63 -3 63 8 c 0
 63 23 112 16 112 77 c 0
 112 105 108 171 108 359 c 0
 108 374 104 375 91 375 c 0
 80 375 68 372 51 372 c 0
 30 372 29 379 29 385 c 0xd8
EndSplineSet
AlternateSubs2: "'aalt' Access All Alternates lookup 0 subtable" f.sc
AlternateSubs2: "'aalt' Access All Alternates in Latin lookup 0 subtable" f.sc
Substitution2: "'smcp' Lowercase to Small Capitals in Latin lookup 10 subtable" f.sc
EndChar

StartChar: e
Encoding: 101 101 3
Width: 466
VWidth: 0
Flags: HW
PickledData: "(dp1
Vspacing_anchors_slanted
p2
I00
s."
HStem: -19 61<210.119 343.659> 255 24<123.247 332.192> 407 25<182.036 270.682>
VStem: 39 78<142.334 302.808> 333 93<266 333.696>
AnchorPoint: "top" 232 459 basechar 0
AnchorPoint: "l;o" 0 220 basechar 0
AnchorPoint: "r;o" 466 220 basechar 0
AnchorPoint: "r;x" 451 415 basechar 0
LayerCount: 3
Fore
SplineSet
39 194 m 0
 39 324 120 432 242 432 c 0
 392 432 426 288 426 273 c 0
 426 259 413 255 385 255 c 2
 158 255 l 2
 143 255 134 255 128 255 c 0
 117 255 117 254 117 244 c 0
 117 111 203 42 286 42 c 0
 357 42 400 87 417 87 c 0
 422 87 427 82 427 78 c 0
 427 67 367 -19 250 -19 c 0
 143 -19 39 45 39 194 c 0
123 293 m 0
 123 284 125 279 136 279 c 0
 182 279 295 285 312 285 c 0
 331 285 333 288 333 297 c 0
 333 323 304 407 225 407 c 0
 153 407 123 328 123 293 c 0
EndSplineSet
AlternateSubs2: "'aalt' Access All Alternates lookup 0 subtable" e.sc
AlternateSubs2: "'aalt' Access All Alternates in Latin lookup 0 subtable" e.sc
Substitution2: "'smcp' Lowercase to Small Capitals in Latin lookup 10 subtable" e.sc
EndChar

StartChar: d
Encoding: 100 100 4
Width: 565
VWidth: 0
Flags: HW
PickledData: "(dp1
Vspacing_anchors_slanted
p2
I00
s."
HStem: -14 52<204.939 321.849> -4 39<477.531 544.896> 409 29<193.649 308.519> 686 57<377.366 391.906> 738 20G<464 473.5>
VStem: 39 72<145.488 299.33> 397 70<73.8487 360.677> 403 66<409.004 675.329>
AnchorPoint: "right" 577 708 basechar 0
AnchorPoint: "l;o" 0 220 basechar 0
AnchorPoint: "r;bl" 565 20 basechar 0
AnchorPoint: "r;x" 555 415 basechar 0
AnchorPoint: "r;hi" 555 732 basechar 0
AnchorPoint: "r;o" 555 220 basechar 0
AnchorPoint: "r;t" 555 562 basechar 0
LayerCount: 3
Fore
SplineSet
39 195 m 0xa6
 39 314 120 438 282 438 c 0
 327 438 382 409 396 409 c 0
 399 409 401 415 401 445 c 0
 401 574 403 538 403 574 c 0
 403 641 403 686 350 686 c 2
 339 686 l 2
 318 686 318 687 318 694 c 2
 318 695 l 2
 318 710 352 707 431 743 c 0xb5
 443 748 458 758 470 758 c 0
 477 758 482 753 482 738 c 0
 482 717 469 605 469 521 c 0x2d
 469 341 467 228 467 156 c 0
 467 65 473 44 502 35 c 0
 518 30 545 31 545 14 c 0
 545 9 541 2 468 -4 c 0x6e
 439 -6 417 -14 405 -14 c 0
 398 -14 394 -11 394 -3 c 0
 394 6 391 16 391 34 c 0
 391 41 390 51 382 51 c 0
 371 51 331 -14 236 -14 c 0
 105 -14 39 88 39 195 c 0xa6
111 242 m 0
 111 150 173 38 277 38 c 0
 335 38 396 71 396 117 c 0
 397 288 397 271 397 288 c 0xa6
 397 343 383 357 369 365 c 0
 337 384 286 409 250 409 c 0
 161 409 111 335 111 242 c 0
EndSplineSet
AlternateSubs2: "'aalt' Access All Alternates lookup 0 subtable" d.sc
AlternateSubs2: "'aalt' Access All Alternates in Latin lookup 0 subtable" d.sc
Substitution2: "'smcp' Lowercase to Small Capitals in Latin lookup 10 subtable" d.sc
EndChar

StartChar: c
Encoding: 99 99 5
Width: 452
VWidth: 0
Flags: HW
PickledData: "(dp1
Vspacing_anchors_slanted
p2
I00
s."
HStem: -21 52<206.432 348.848> 390 39<178.64 290.356>
VStem: 39 75<133.673 290.904>
AnchorPoint: "cedilla" 252 -79 basechar 0
AnchorPoint: "top" 251 459 basechar 0
AnchorPoint: "l;o" 0 220 basechar 0
AnchorPoint: "r;o" 452 220 basechar 0
LayerCount: 3
Fore
SplineSet
39 192 m 0
 39 314 129 429 271 429 c 0
 312 429 386 415 388 396 c 0
 389 384 390 366 390 349 c 0
 390 326 387 305 379 305 c 0
 365 305 363 323 346 337 c 0
 323 357 266 390 213 390 c 0
 193 390 114 363 114 224 c 0
 114 122 188 31 285 31 c 0
 365 31 404 83 417 83 c 0
 423 83 428 78 428 73 c 0
 428 64 375 -21 246 -21 c 0
 122 -21 39 58 39 192 c 0
EndSplineSet
AlternateSubs2: "'aalt' Access All Alternates lookup 0 subtable" c.sc
AlternateSubs2: "'aalt' Access All Alternates in Latin lookup 0 subtable" c.sc
Substitution2: "'smcp' Lowercase to Small Capitals in Latin lookup 10 subtable" c.sc
EndChar

StartChar: b
Encoding: 98 98 6
Width: 547
VWidth: 0
Flags: HW
PickledData: "(dp1
Vspacing_anchors_slanted
p2
I00
s."
HStem: -11 36<227.681 371.093> 388 54<211.632 347.505> 736 20G<136 144>
VStem: 74 81<85.766 321.248> 83 72<106.529 350.607 375.007 670.833> 443 65<135.537 282.919>
AnchorPoint: "l;bl" 10 20 basechar 0
AnchorPoint: "l;x" 10 415 basechar 0
AnchorPoint: "l;k;hi" -17 732 basechar 0
AnchorPoint: "l;o" 10 220 basechar 0
AnchorPoint: "r;o" 547 220 basechar 0
AnchorPoint: "l;t" 0 562 basechar 0
LayerCount: 3
Fore
SplineSet
12 691 m 0xec
 12 712 58 721 77 729 c 0
 98 738 131 756 141 756 c 0
 147 756 156 749 156 738 c 0
 156 702 155 743 155 411 c 0xec
 155 385 157 375 162 375 c 0
 178 375 178 442 320 442 c 0
 446 442 508 336 508 235 c 0
 508 182 479 80 417 33 c 0
 380 5 334 -11 278 -11 c 0
 185 -11 138 47 131 47 c 0
 120 47 107 -17 82 -17 c 0
 72 -17 70 -13 70 -4 c 0
 70 20 74 72 74 78 c 0xf4
 74 154 83 229 83 342 c 2
 83 589 l 2
 83 632 75 680 38 680 c 2
 28 680 l 2
 20 680 12 682 12 691 c 0xec
155 132 m 2xf4
 155 109 199 25 301 25 c 0
 398 25 443 102 443 185 c 0
 443 282 381 388 267 388 c 0
 238 388 208 378 187 360 c 0
 158 336 155 325 155 313 c 2
 155 132 l 2xf4
EndSplineSet
AlternateSubs2: "'aalt' Access All Alternates lookup 0 subtable" b.sc
AlternateSubs2: "'aalt' Access All Alternates in Latin lookup 0 subtable" b.sc
Substitution2: "'smcp' Lowercase to Small Capitals in Latin lookup 10 subtable" b.sc
EndChar

StartChar: a
Encoding: 97 97 7
Width: 461
VWidth: 0
Flags: HW
PickledData: "(dp1
Vspacing_anchors_slanted
p2
I00
s."
HStem: -15 40<146.978 237.481> -8 21G<349 399> 401 33<145.528 248.743>
VStem: 48 78<44.4114 152.402 296.281 367.25> 295 70<50.3272 207.998 225.001 364.566>
AnchorPoint: "top" 222 459 basechar 0
AnchorPoint: "l;bl" 0 20 basechar 0
AnchorPoint: "l;x" 0 415 basechar 0
AnchorPoint: "l;o" 0 220 basechar 0
AnchorPoint: "r;bl" 461 20 basechar 0
AnchorPoint: "r;x" 447 415 basechar 0
AnchorPoint: "r;o" 447 220 basechar 0
LayerCount: 3
Fore
SplineSet
48 85 m 0xb8
 48 193 153 203 278 225 c 0
 289 227 295 228 295 241 c 0
 295 261 297 277 297 293 c 0
 297 380 228 401 200 401 c 0
 137 401 128 366 128 341 c 0
 128 326 132 314 132 305 c 0
 132 288 125 285 114 285 c 0
 102 285 52 290 52 324 c 0
 52 375 134 434 220 434 c 0
 370 434 370 346 370 308 c 0
 370 178 365 197 365 122 c 0
 365 -11 441 49 441 13 c 0
 441 -2 420 -8 378 -8 c 0x78
 320 -8 303 47 298 47 c 0
 294 47 238 -15 166 -15 c 0
 123 -15 96 -9 73 15 c 0
 55 33 48 58 48 85 c 0xb8
126 100 m 0
 126 55 153 25 203 25 c 0xb8
 295 25 295 94 295 127 c 2
 295 199 l 2
 295 205 292 208 288 208 c 0
 285 208 281 206 278 206 c 0
 214 195 126 183 126 100 c 0
EndSplineSet
AlternateSubs2: "'aalt' Access All Alternates lookup 0 subtable" a.sc
AlternateSubs2: "'aalt' Access All Alternates in Latin lookup 0 subtable" a.sc
Substitution2: "'smcp' Lowercase to Small Capitals in Latin lookup 10 subtable" a.sc
EndChar

StartChar: i
Encoding: 105 105 9
Width: 284
VWidth: 0
Flags: HW
PickledData: "(dp1
Vspacing_anchors_slanted
p2
I00
s."
HStem: -6 31<192.624 261.991> 419 20G<159 170> 533 112<110.928 171.827>
VStem: 93 96<550.501 627.906> 104 72<35.2996 361.336>
AnchorPoint: "l;bl" 0 20 basechar 0
AnchorPoint: "l;x" 0 415 basechar 0
AnchorPoint: "l;o" 0 220 basechar 0
AnchorPoint: "r;bl" 284 20 basechar 0
AnchorPoint: "r;x" 279 415 basechar 0
AnchorPoint: "r;o" 279 220 basechar 0
AnchorPoint: "l;t" 49 562 basechar 0
AnchorPoint: "r;t" 233 562 basechar 0
LayerCount: 3
Fore
SplineSet
36 381 m 0xe8
 36 397 61 398 117 421 c 0
 153 436 151 439 167 439 c 0
 173 439 182 434 182 420 c 0
 182 408 176 389 176 372 c 2
 176 98 l 2
 176 33 207 27 232 25 c 0
 249 24 262 24 262 10 c 0
 262 4 261 -7 245 -7 c 0
 241 -7 235 -6 230 -6 c 0
 188 -6 197 -4 159 -4 c 0
 117 -4 105 -6 88 -6 c 0
 63 -6 48 -3 48 7 c 0
 48 14 54 23 63 26 c 0
 102 39 104 33 104 206 c 2
 104 294 l 2
 104 377 68 363 46 371 c 0
 41 373 36 377 36 381 c 0xe8
93 590 m 0xf0
 93 603 121 645 143 645 c 0
 166 645 189 608 189 588 c 0
 189 564 151 533 142 533 c 0
 113 533 93 574 93 590 c 0xf0
EndSplineSet
AlternateSubs2: "'aalt' Access All Alternates lookup 0 subtable" i.sc
AlternateSubs2: "'aalt' Access All Alternates in Latin lookup 0 subtable" i.sc i.TRK
Substitution2: "'smcp' Lowercase to Small Capitals in Latin lookup 10 subtable" i.sc
Substitution2: "turkish subtable" i.TRK
EndChar

StartChar: j
Encoding: 106 106 10
Width: 281
VWidth: 0
Flags: HW
PickledData: "(dp1
Vspacing_anchors_slanted
p2
I00
s."
HStem: -200 49<51.5 118.682> 373 46<80.2711 118.25> 420 20G<182 191.5> 538 104<129.78 195.625>
VStem: 116 95<552.7 629.467> 126 70<-104.241 364.578>
AnchorPoint: "r;t" 255 562 basechar 0
AnchorPoint: "l;t" 71 562 basechar 0
AnchorPoint: "l;bl" 20 20 basechar 0
AnchorPoint: "l;x" 0 415 basechar 0
AnchorPoint: "l;o" 10 220 basechar 0
AnchorPoint: "l;k;lo" 20 -205 basechar 0
AnchorPoint: "r;bl" 281 20 basechar 0
AnchorPoint: "r;x" 281 415 basechar 0
AnchorPoint: "r;o" 281 220 basechar 0
AnchorPoint: "r;lo" 227 -205 basechar 0
LayerCount: 3
Fore
SplineSet
23 -137 m 0xf4
 23 -120 28 -108 45 -108 c 0
 66 -108 87 -151 103 -151 c 0
 120 -151 126 -117 126 10 c 2
 126 314 l 2
 126 336 125 373 67 373 c 0
 58 373 51 374 51 383 c 0
 51 396 80 391 139 419 c 0
 160 429 178 440 186 440 c 0
 197 440 198 430 198 417 c 0
 198 413 198 410 198 406 c 0
 198 390 196 371 196 359 c 2
 196 35 l 2
 196 -59 169 -200 64 -200 c 0
 39 -200 25 -193 25 -173 c 0
 25 -162 23 -148 23 -137 c 0xf4
116 591 m 0xf8
 116 608 141 642 163 642 c 0
 186 642 211 611 211 591 c 0
 211 567 176 538 167 538 c 0
 138 538 116 575 116 591 c 0xf8
EndSplineSet
AlternateSubs2: "'aalt' Access All Alternates lookup 0 subtable" j.sc
AlternateSubs2: "'aalt' Access All Alternates in Latin lookup 0 subtable" j.sc
Substitution2: "'smcp' Lowercase to Small Capitals in Latin lookup 10 subtable" j.sc
EndChar

StartChar: l
Encoding: 108 108 11
Width: 279
VWidth: 4
Flags: HW
PickledData: "(dp1
Vspacing_anchors_slanted
p2
I00
s."
HStem: -4 29<31.8457 80.7396 189.508 259.965> 736 20G<154 169>
VStem: 92 74<39.9004 679.77>
AnchorPoint: "r;s;dot" 382 332 basechar 0
AnchorPoint: "right" 270 708 basechar 0
AnchorPoint: "top" 129 757 basechar 0
AnchorPoint: "cedilla" 133 -79 basechar 0
AnchorPoint: "l;bl" 0 20 basechar 0
AnchorPoint: "l;x" 5 415 basechar 0
AnchorPoint: "l;hi" 0 732 basechar 0
AnchorPoint: "l;o" 5 220 basechar 0
AnchorPoint: "r;bl" 279 20 basechar 0
AnchorPoint: "r;x" 269 415 basechar 0
AnchorPoint: "r;hi" 269 732 basechar 0
AnchorPoint: "r;o" 269 220 basechar 0
AnchorPoint: "l;t" 0 562 basechar 0
AnchorPoint: "r;t" 269 562 basechar 0
LayerCount: 3
Fore
SplineSet
20 693 m 0
 20 712 32 706 88 728 c 0
 114 738 144 756 164 756 c 0
 174 756 176 747 176 737 c 0
 176 722 168 676 168 585 c 2
 168 529 l 2
 168 444 166 446 166 396 c 2
 166 98 l 2
 166 66 171 25 247 25 c 0
 254 25 260 17 260 10 c 0
 260 -1 248 -4 229 -4 c 0
 208 -4 159 3 128 3 c 0
 82 3 69 -5 47 -5 c 0
 36 -5 31 2 31 5 c 0
 31 23 50 20 65 27 c 0
 89 38 92 57 92 92 c 0
 92 100 91 108 91 118 c 2
 91 192 l 2
 91 277 95 490 95 617 c 0
 95 648 83 676 71 681 c 0
 64 684 51 685 31 685 c 0
 25 685 20 686 20 693 c 0
EndSplineSet
AlternateSubs2: "'aalt' Access All Alternates lookup 0 subtable" l.sc
AlternateSubs2: "'aalt' Access All Alternates in Latin lookup 0 subtable" l.sc
Substitution2: "'smcp' Lowercase to Small Capitals in Latin lookup 10 subtable" l.sc
EndChar

StartChar: k
Encoding: 107 107 12
Width: 545
VWidth: 0
Flags: HW
PickledData: "(dp1
Vspacing_anchors_slanted
p2
I00
s."
HStem: -5 29<25.3158 72.2974> 199 21<169.408 180.414> 399 20G<295.5 302.5 453.5 476> 740 20G<149.5 160.5>
VStem: 86 71<37.2682 196.275 220.015 670.233>
AnchorPoint: "l;t" 0 562 basechar 0
AnchorPoint: "cedilla" 264 -79 basechar 0
AnchorPoint: "l;bl" 0 20 basechar 0
AnchorPoint: "l;x" 5 415 basechar 0
AnchorPoint: "l;k;hi" -20 732 basechar 0
AnchorPoint: "l;o" 5 220 basechar 0
AnchorPoint: "r;bl" 545 20 basechar 0
AnchorPoint: "r;x" 526 415 basechar 0
AnchorPoint: "r;o" 526 220 basechar 0
LayerCount: 3
Fore
SplineSet
0 689 m 0
 0 697 11 703 49 715 c 0
 101 731 84 724 122 747 c 0
 130 752 144 760 155 760 c 0
 166 760 169 750 169 741 c 0
 169 731 160 677 160 488 c 0
 160 420 157 351 157 283 c 2
 157 262 l 2
 157 241 158 220 161 220 c 0
 175 220 180 232 193 243 c 0
 326 349 333 364 333 370 c 0
 333 394 288 391 288 409 c 0
 288 415 291 419 300 419 c 0
 305 419 310 418 318 418 c 0
 399 420 442 423 465 423 c 0
 487 423 491 420 491 414 c 0
 491 394 461 409 401 371 c 0
 391 365 392 364 354 336 c 0
 254 260 254 262 254 250 c 0
 254 243 259 235 265 227 c 0
 337 139 389 87 421 59 c 0
 485 3 527 36 527 12 c 0
 527 -5 514 -5 486 -5 c 0
 473 -5 392 -4 382 -4 c 0
 352 -4 230 154 198 193 c 0
 195 197 191 199 187 199 c 0
 175 199 156 179 156 153 c 0
 156 148 157 143 157 136 c 0
 161 42 158 65 175 41 c 0
 190 19 250 28 250 9 c 0
 250 -5 223 -7 219 -7 c 0
 209 -7 154 -1 122 -1 c 0
 93 -1 92 -5 49 -5 c 0
 36 -5 25 -4 25 7 c 0
 25 20 43 22 50 24 c 0
 82 36 85 54 85 116 c 0
 85 135 86 152 86 160 c 2
 87 604 l 2
 87 671 59 679 40 679 c 0
 33 679 28 678 20 678 c 0
 9 678 0 680 0 689 c 0
EndSplineSet
AlternateSubs2: "'aalt' Access All Alternates lookup 0 subtable" k.sc
AlternateSubs2: "'aalt' Access All Alternates in Latin lookup 0 subtable" k.sc
Substitution2: "'smcp' Lowercase to Small Capitals in Latin lookup 10 subtable" k.sc
EndChar

StartChar: o
Encoding: 111 111 13
Width: 547
VWidth: 0
Flags: HW
PickledData: "(dp1
Vspacing_anchors_slanted
p2
I00
s."
HStem: -18 30<233.783 357.009> 404 27<199.11 313.337>
VStem: 39 79<128.25 301.981> 433 75<109.728 288.407>
AnchorPoint: "top" 266 459 basechar 0
AnchorPoint: "l;o" 0 221 basechar 0
AnchorPoint: "r;o" 547 221 basechar 0
LayerCount: 3
Fore
SplineSet
39 203 m 0
 39 316 118 431 275 431 c 0
 392 431 508 355 508 209 c 0
 508 59 388 -18 268 -18 c 0
 115 -18 39 92 39 203 c 0
118 237 m 0
 118 91 213 12 298 12 c 0
 369 12 433 66 433 179 c 0
 433 285 374 404 251 404 c 0
 193 404 118 361 118 237 c 0
EndSplineSet
AlternateSubs2: "'aalt' Access All Alternates lookup 0 subtable" o.sc
AlternateSubs2: "'aalt' Access All Alternates in Latin lookup 0 subtable" o.sc
Substitution2: "'smcp' Lowercase to Small Capitals in Latin lookup 10 subtable" o.sc
EndChar

StartChar: m
Encoding: 109 109 14
Width: 827
VWidth: 0
Flags: HW
PickledData: "(dp1
Vspacing_anchors_slanted
p2
I00
s."
HStem: -5 33<334.273 374.166 750.985 806.978> 379 48<227.484 340.312 500.941 617.74> 418 20G<154.5 167.5>
VStem: 91 78<39.5621 204.68> 99 70<39.5621 347.686 355.004 370.118> 381 71<40.4403 336.088> 662 79<32.8309 332.167>
AnchorPoint: "r;o" 817 221 basechar 0
AnchorPoint: "r;x" 797 416 basechar 0
AnchorPoint: "r;bl" 827 20 basechar 0
AnchorPoint: "l;o" 0 221 basechar 0
AnchorPoint: "l;x" 0 416 basechar 0
AnchorPoint: "l;bl" 0 20 basechar 0
LayerCount: 3
Fore
SplineSet
31 388 m 0xce
 31 409 76 404 119 423 c 0
 140 432 146 438 163 438 c 0xae
 172 438 175 425 175 409 c 0
 175 397 170 375 170 367 c 0
 170 361 170 355 176 355 c 0
 183 355 209 427 311 427 c 0
 419 427 429 348 439 348 c 0
 446 348 494 430 576 430 c 0
 680 430 727 357 735 280 c 0
 740 231 741 188 741 153 c 2
 741 121 l 2
 741 68 743 38 769 30 c 0
 777 28 807 28 807 11 c 0
 807 -4 785 -4 774 -4 c 0
 761 -4 728 0 708 0 c 0
 680 0 657 -4 636 -4 c 0
 625 -4 612 -2 612 6 c 0
 612 26 650 23 658 42 c 0
 661 50 662 68 662 88 c 2
 662 104 l 2
 662 325 656 313 624 352 c 0
 607 372 579 383 549 383 c 0
 499 383 446 338 446 329 c 0
 446 316 452 304 452 202 c 0
 452 179 452 151 452 117 c 0
 452 62 460 31 521 22 c 0
 536 20 539 9 539 6 c 0
 539 -5 526 -5 520 -5 c 0
 503 -5 476 0 447 0 c 0
 429 0 365 -5 356 -5 c 0
 349 -5 334 -2 334 8 c 0
 334 17 337 20 357 28 c 0
 364 30 380 32 380 90 c 0
 380 104 381 91 381 199 c 0
 381 262 379 256 379 262 c 0
 379 331 342 379 277 379 c 0
 221 379 169 345 169 306 c 0
 169 301 169 296 169 292 c 2xce
 169 104 l 2
 169 0 253 35 253 12 c 0
 253 1 253 -3 232 -3 c 0
 217 -3 191 0 148 0 c 0
 108 0 84 -3 69 -3 c 0
 46 -3 45 5 45 12 c 0
 45 33 77 13 91 56 c 0xd6
 97 77 99 137 99 208 c 0
 99 247 98 289 98 330 c 0
 98 400 31 356 31 388 c 0xce
EndSplineSet
AlternateSubs2: "'aalt' Access All Alternates lookup 0 subtable" m.sc
AlternateSubs2: "'aalt' Access All Alternates in Latin lookup 0 subtable" m.sc
Substitution2: "'smcp' Lowercase to Small Capitals in Latin lookup 10 subtable" m.sc
EndChar

StartChar: n
Encoding: 110 110 15
Width: 591
VWidth: 0
Flags: HW
PickledData: "(dp1
Vspacing_anchors_slanted
p2
I00
s."
HStem: 0 28<189.738 266.885 372.066 411.439 503.479 570.435> 379 29<31.9271 94.0936> 386 44<240.421 360.385> 422 20G<164 174.5>
VStem: 103 75<84.9272 350.874 361.006 375.573> 103 66<41.5156 324.273> 419 71<35.6541 320.965>
AnchorPoint: "cedilla" 315 -79 basechar 0
AnchorPoint: "top" 303 459 basechar 0
AnchorPoint: "l;bl" 0 20 basechar 0
AnchorPoint: "l;x" 0 416 basechar 0
AnchorPoint: "l;o" 0 221 basechar 0
AnchorPoint: "r;bl" 591 20 basechar 0
AnchorPoint: "r;x" 562 416 basechar 0
AnchorPoint: "r;o" 581 221 basechar 0
LayerCount: 3
Fore
SplineSet
31 390 m 0xca
 31 403 58 402 80 408 c 0
 124 420 159 442 169 442 c 2
 171 442 l 2xd6
 178 442 180 437 180 430 c 0
 180 423 178 403 178 387 c 0
 178 369 179 361 183 361 c 0
 190 361 194 380 230 402 c 0
 254 417 285 430 317 430 c 0
 459 430 489 315 489 262 c 0
 489 245 490 262 490 119 c 2
 490 97 l 2
 490 51 494 33 551 24 c 0
 569 21 571 17 571 9 c 0
 571 1 561 -1 551 -1 c 0
 510 -1 491 4 469 4 c 0
 444 4 404 0 392 0 c 0
 379 0 372 5 372 13 c 0
 372 27 395 27 397 28 c 0
 417 34 419 68 419 95 c 2
 419 230 l 2
 419 341 353 386 290 386 c 0
 224 386 182 337 178 325 c 0xaa
 173 311 169 200 169 167 c 2
 169 129 l 2xa6
 169 71 174 32 226 28 c 0
 232 28 267 25 267 13 c 0
 267 2 257 0 248 0 c 0
 211 0 221 4 175 4 c 0
 132 4 72 0 63 0 c 0
 51 0 48 4 48 10 c 0
 48 41 97 -13 101 106 c 0
 103 162 103 152 103 181 c 2
 103 325 l 2
 103 372 83 379 60 379 c 2
 50 379 l 2
 36 379 31 383 31 390 c 0xca
EndSplineSet
AlternateSubs2: "'aalt' Access All Alternates lookup 0 subtable" n.sc
AlternateSubs2: "'aalt' Access All Alternates in Latin lookup 0 subtable" n.sc
Substitution2: "'smcp' Lowercase to Small Capitals in Latin lookup 10 subtable" n.sc
EndChar

StartChar: p
Encoding: 112 112 16
Width: 555
VWidth: 0
Flags: HW
PickledData: "(dp1
Vspacing_anchors_slanted
p2
I00
s."
HStem: -199 20G<56.5 78.5 226 254.5> -9 30<240.989 377.062> 374 52<75.2524 92.3026> 384 50<244.802 367.564>
VStem: 103 66<-153.747 28.9978 73.1885 340.401> 451 65<126.76 286.048>
AnchorPoint: "l;bl" 10 20 basechar 0
AnchorPoint: "l;x" 0 415 basechar 0
AnchorPoint: "l;o" 10 220 basechar 0
AnchorPoint: "l;lo" 9 -205 basechar 0
AnchorPoint: "r;o" 555 220 basechar 0
LayerCount: 3
Fore
SplineSet
31 385 m 0xec
 31 397 59 393 129 426 c 0xec
 162 442 165 445 171 445 c 0
 178 445 184 442 184 432 c 0
 184 396 180 385 180 373 c 0
 180 368 182 365 183 365 c 0
 190 365 235 434 333 434 c 0xdc
 458 434 516 337 516 233 c 0
 516 119 440 -9 301 -9 c 0
 196 -9 187 29 172 29 c 0
 170 29 169 26 169 21 c 2
 169 21 169 21 169 -89 c 2
 169 -102 l 2
 169 -124 180 -139 186 -149 c 0
 213 -191 273 -156 273 -188 c 0
 273 -191 270 -200 239 -200 c 0
 213 -200 214 -196 135 -196 c 0
 103 -196 85 -199 72 -199 c 0
 41 -199 38 -196 38 -189 c 0
 38 -158 100 -202 100 -82 c 2
 100 -62 l 2
 100 135 103 172 103 214 c 2
 103 236 l 2
 103 336 101 374 56 374 c 0
 31 374 31 378 31 385 c 0xec
169 192 m 0
 169 172 170 162 170 142 c 0
 170 44 262 21 317 21 c 0
 408 21 451 100 451 185 c 0
 451 282 396 384 294 384 c 0xdc
 253 384 224 369 203 352 c 0
 178 332 169 319 169 192 c 0
EndSplineSet
AlternateSubs2: "'aalt' Access All Alternates lookup 0 subtable" p.sc
AlternateSubs2: "'aalt' Access All Alternates in Latin lookup 0 subtable" p.sc
Substitution2: "'smcp' Lowercase to Small Capitals in Latin lookup 10 subtable" p.sc
EndChar

StartChar: q
Encoding: 113 113 17
Width: 559
VWidth: 0
Flags: HW
PickledData: "(dp1
Vspacing_anchors_slanted
p2
I00
s."
HStem: -203 37<336.688 396.375> -24 53<198.015 320.346> 403 29<204.94 324.427> 425 20G<458.5 473>
VStem: 39 70<121.148 285.8> 399 71<-152.687 56.9962 65.5433 350.291>
AnchorPoint: "l;o" 0 220 basechar 0
AnchorPoint: "r;bl" 559 20 basechar 0
AnchorPoint: "r;x" 549 415 basechar 0
AnchorPoint: "r;o" 549 220 basechar 0
AnchorPoint: "r;k;lo" 568 -205 basechar 0
LayerCount: 3
Fore
SplineSet
39 176 m 0xdc
 39 358 176 432 287 432 c 0xec
 369 432 420 381 421 381 c 0
 432 381 447 445 470 445 c 0
 476 445 479 442 479 429 c 0
 479 399 470 385 470 232 c 0
 470 49 473 189 473 -80 c 0
 473 -196 546 -160 546 -187 c 0
 546 -195 541 -199 528 -199 c 0
 521 -199 500 -198 458 -198 c 0
 370 -198 371 -203 360 -203 c 0
 339 -203 336 -196 336 -188 c 0
 336 -171 372 -176 387 -166 c 0
 396 -160 399 -151 399 -81 c 0
 399 -39 401 -9 401 11 c 0
 401 52 399 57 395 57 c 0
 378 57 347 -24 233 -24 c 0
 180 -24 143 -10 112 16 c 0
 40 76 39 143 39 176 c 0xdc
109 217 m 0
 109 79 214 29 270 29 c 0
 394 29 399 101 399 139 c 2
 399 302 l 2
 399 359 320 403 264 403 c 0
 215 403 109 368 109 217 c 0
EndSplineSet
AlternateSubs2: "'aalt' Access All Alternates lookup 0 subtable" q.sc
AlternateSubs2: "'aalt' Access All Alternates in Latin lookup 0 subtable" q.sc
Substitution2: "'smcp' Lowercase to Small Capitals in Latin lookup 10 subtable" q.sc
EndChar

StartChar: r
Encoding: 114 114 18
Width: 375
VWidth: 0
Flags: HW
PickledData: "(dp1
Vspacing_anchors_slanted
p2
I00
s."
HStem: -3 29<54.0839 92.3337 201.976 276.977> 355 80<238.872 329.754> 424 20G<167.5 172.5>
VStem: 104 73<43.6133 330.661>
AnchorPoint: "cedilla" 164 -79 basechar 0
AnchorPoint: "top" 217 459 basechar 0
AnchorPoint: "l;bl" 20 20 basechar 0
AnchorPoint: "l;x" 0 415 basechar 0
AnchorPoint: "l;o" 0 220 basechar 0
AnchorPoint: "r;bl" 366 20 basechar 0
AnchorPoint: "r;x" 375 415 basechar 0
AnchorPoint: "r;o" 375 220 basechar 0
LayerCount: 3
Fore
SplineSet
22 380 m 0xd0
 22 404 72 401 154 440 c 0
 159 442 167 444 168 444 c 0
 177 444 181 434 181 424 c 0xb0
 181 416 180 407 180 397 c 0
 180 355 182 354 188 354 c 0
 196 354 228 435 293 435 c 0
 314 435 320 429 340 416 c 0
 358 404 361 392 361 387 c 0
 361 346 330 331 327 331 c 0
 304 331 299 355 251 355 c 0
 212 355 177 314 177 293 c 0
 177 258 177 224 177 189 c 0
 177 83 179 101 179 84 c 0
 179 54 203 34 226 30 c 0
 251 26 277 28 277 13 c 0
 277 6 276 -3 265 -3 c 0
 233 -3 203 2 180 2 c 0
 126 2 93 -3 76 -3 c 0
 54 -3 54 2 54 9 c 0
 54 17 56 23 67 26 c 0
 103 35 104 56 104 135 c 0
 104 326 102 307 102 326 c 0
 102 344 97 363 52 363 c 0
 49 363 45 364 41 364 c 0
 32 364 22 366 22 380 c 0xd0
EndSplineSet
AlternateSubs2: "'aalt' Access All Alternates lookup 0 subtable" r.sc
AlternateSubs2: "'aalt' Access All Alternates in Latin lookup 0 subtable" r.sc
Substitution2: "'smcp' Lowercase to Small Capitals in Latin lookup 10 subtable" r.sc
EndChar

StartChar: t
Encoding: 116 116 19
Width: 342
VWidth: 0
Flags: HW
PickledData: "(dp1
Vspacing_anchors_slanted
p2
I00
s."
HStem: -10 50<175.664 289.791> 368 52<188.07 311.677> 375 45<163.25 290.608>
VStem: 80 74<60.1458 370.979>
AnchorPoint: "right" 267 625 basechar 0
AnchorPoint: "cedilla" 188 -79 basechar 0
AnchorPoint: "l;bl" 10 20 basechar 0
AnchorPoint: "l;x" 0 415 basechar 0
AnchorPoint: "l;o" 5 220 basechar 0
AnchorPoint: "r;bl" 342 20 basechar 0
AnchorPoint: "r;x" 342 415 basechar 0
AnchorPoint: "r;o" 342 220 basechar 0
LayerCount: 3
Fore
SplineSet
27 384 m 0xb0
 27 400 45 402 80 438 c 0
 120 480 136 520 156 520 c 0
 164 520 167 514 167 497 c 0
 167 479 163 459 163 440 c 0
 163 421 163 420 204 420 c 2
 239 420 l 2
 304 420 305 434 316 434 c 0
 323 434 326 429 326 423 c 0
 326 413 302 368 294 368 c 0xd0
 221 369 189 375 188 375 c 0
 162 375 158 370 158 342 c 0
 158 314 154 209 154 156 c 0
 154 75 165 40 240 40 c 0
 276 40 303 59 314 59 c 0
 321 59 324 57 324 47 c 0
 324 32 274 -10 215 -10 c 0
 88 -10 80 68 80 107 c 2
 80 122 l 2
 80 210 84 347 84 355 c 0
 84 368 80 371 63 371 c 0
 56 371 49 370 44 370 c 0
 32 370 27 372 27 384 c 0xb0
EndSplineSet
AlternateSubs2: "'aalt' Access All Alternates lookup 0 subtable" t.sc
AlternateSubs2: "'aalt' Access All Alternates in Latin lookup 0 subtable" t.sc
Substitution2: "'smcp' Lowercase to Small Capitals in Latin lookup 10 subtable" t.sc
EndChar

StartChar: s
Encoding: 115 115 20
Width: 393
VWidth: 0
Flags: HW
PickledData: "(dp1
Vspacing_anchors_slanted
p2
I00
s."
HStem: -16 37<148.521 261.016> 404 34<143.209 249.435>
VStem: 55 41<74.833 155.304> 63 63<305.364 379.883> 287 68<52.1957 145.592>
AnchorPoint: "cedilla" 203 -79 basechar 0
AnchorPoint: "top" 207 459 basechar 0
AnchorPoint: "l;bl" 0 20 basechar 0
AnchorPoint: "l;x" 0 415 basechar 0
AnchorPoint: "l;o" 0 220 basechar 0
AnchorPoint: "r;bl" 393 20 basechar 0
AnchorPoint: "r;x" 393 415 basechar 0
AnchorPoint: "r;o" 393 220 basechar 0
LayerCount: 3
Fore
SplineSet
55 43 m 2xe8
 55 130 l 2
 55 145 63 156 70 156 c 0
 91 156 87 136 96 113 c 0xe8
 106 88 138 21 200 21 c 0
 231 21 287 35 287 92 c 0
 287 213 63 170 63 314 c 0
 63 391 136 438 214 438 c 0
 318 438 328 408 328 401 c 0
 328 398 332 352 332 341 c 0
 332 319 328 312 314 312 c 0
 297 312 283 404 193 404 c 0
 155 404 126 383 126 353 c 0xd8
 126 294 185 281 233 263 c 0
 328 227 355 197 355 119 c 0
 355 81 331 41 302 15 c 0
 288 3 263 -16 203 -16 c 0
 151 -16 106 6 91 11 c 0
 67 19 55 18 55 43 c 2xe8
EndSplineSet
AlternateSubs2: "'aalt' Access All Alternates lookup 0 subtable" longs s.sc
AlternateSubs2: "'aalt' Access All Alternates in Latin lookup 0 subtable" longs s.sc
Substitution2: "'hist' Historical Forms in Latin lookup 12 subtable" longs
Substitution2: "'smcp' Lowercase to Small Capitals in Latin lookup 10 subtable" s.sc
EndChar

StartChar: u
Encoding: 117 117 21
Width: 576
VWidth: 0
Flags: HW
PickledData: "(dp1
Vspacing_anchors_slanted
p2
I00
s."
HStem: -18 52<222.203 339.803> -5 21G<410.5 422> 6 29<487.155 554.884> 380 36<29.4069 88.6434 334.38 393.912> 403 20G<453.5 468.5>
VStem: 94 77<90.1699 377.324> 404 73<69.8408 374.59>
AnchorPoint: "top" 280 459 basechar 0
AnchorPoint: "l;bl" 34 20 basechar 0
AnchorPoint: "l;x" 0 415 basechar 0
AnchorPoint: "l;o" 0 220 basechar 0
AnchorPoint: "r;bl" 576 20 basechar 0
AnchorPoint: "r;x" 576 415 basechar 0
AnchorPoint: "r;o" 576 220 basechar 0
LayerCount: 3
Fore
SplineSet
29 394 m 0x96
 29 407 38 416 96 416 c 0
 109 416 147 421 153 421 c 0
 176 421 176 418 176 371 c 0
 176 318 171 300 171 195 c 0
 171 63 238 34 282 34 c 0x96
 365 34 404 63 404 156 c 1
 402 294 l 1
 402 356 399 378 356 382 c 0
 345 383 334 387 334 395 c 0
 334 409 354 418 422 418 c 0
 437 418 449 423 458 423 c 0
 479 423 482 418 482 395 c 0
 482 389 477 276 477 140 c 0
 477 60 483 35 505 35 c 0
 514 35 523 36 531 36 c 0
 545 36 555 33 555 23 c 0
 555 7 546 6 518 6 c 0x2e
 488 6 427 -5 417 -5 c 0x46
 404 -5 405 46 399 46 c 0
 391 46 345 -18 255 -18 c 0
 155 -18 94 34 94 156 c 0
 94 318 95 300 95 336 c 0
 95 366 75 380 65 380 c 0
 57 380 55 380 47 380 c 0
 36 380 29 383 29 394 c 0x96
EndSplineSet
AlternateSubs2: "'aalt' Access All Alternates lookup 0 subtable" u.sc
AlternateSubs2: "'aalt' Access All Alternates in Latin lookup 0 subtable" u.sc
Substitution2: "'smcp' Lowercase to Small Capitals in Latin lookup 10 subtable" u.sc
EndChar

StartChar: v
Encoding: 118 118 22
Width: 523
VWidth: 0
Flags: HW
PickledData: "(dp1
Vspacing_anchors_slanted
p2
I00
s."
HStem: -14 109<243 288.5> 397 28<162.131 224.82>
VStem: 20 139<358.5 420.5> 394 110<344.5 420.5>
AnchorPoint: "l;bl" 54 20 basechar 0
AnchorPoint: "l;x" 0 415 basechar 0
AnchorPoint: "l;o" 29 220 basechar 0
AnchorPoint: "r;bl" 470 20 basechar 0
AnchorPoint: "r;x" 523 415 basechar 0
AnchorPoint: "r;o" 494 220 basechar 0
LayerCount: 3
Fore
SplineSet
20 416 m 0
 20 425 33 427 39 427 c 0
 46 427 70 423 110 423 c 0
 139 423 139 422 168 422 c 0
 181 422 196 425 207 425 c 0
 217 425 225 421 225 414 c 0
 225 398 215 397 201 397 c 0
 183 397 159 396 159 369 c 0
 159 348 184 303 228 204 c 0
 249 159 273 95 282 95 c 0
 295 95 394 329 394 360 c 0
 394 420 332 377 332 412 c 0
 332 423 343 425 363 425 c 0
 380 425 403 424 430 424 c 0
 450 424 465 425 476 425 c 0
 499 425 504 421 504 410 c 0
 504 397 486 403 465 374 c 0
 403 288 288 -14 253 -14 c 0
 233 -14 244 -13 119 264 c 0
 45 428 20 391 20 416 c 0
EndSplineSet
AlternateSubs2: "'aalt' Access All Alternates lookup 0 subtable" v.sc
AlternateSubs2: "'aalt' Access All Alternates in Latin lookup 0 subtable" v.sc
Substitution2: "'smcp' Lowercase to Small Capitals in Latin lookup 10 subtable" v.sc
EndChar

StartChar: w
Encoding: 119 119 23
Width: 748
VWidth: 0
Flags: HW
PickledData: "(dp1
Vspacing_anchors_slanted
p2
I00
s."
HStem: -10 114<224 269.5 480 530.5> 399 24<422.34 462.807>
VStem: 20 142<350.5 420.5> 360 58<294.796 349.472> 619 110<332 415.5>
AnchorPoint: "top" 377 459 basechar 0
AnchorPoint: "l;bl" 54 20 basechar 0
AnchorPoint: "l;x" 0 415 basechar 0
AnchorPoint: "l;o" 29 220 basechar 0
AnchorPoint: "r;bl" 694 20 basechar 0
AnchorPoint: "r;x" 748 415 basechar 0
AnchorPoint: "r;o" 719 220 basechar 0
LayerCount: 3
Fore
SplineSet
20 416 m 0
 20 425 33 427 39 427 c 0
 46 427 70 423 110 423 c 0
 139 423 130 424 159 424 c 0
 196 424 206 424 206 413 c 0
 206 393 162 410 162 366 c 0
 162 335 183 283 218 204 c 0
 239 159 258 104 267 104 c 0
 272 104 287 135 307 173 c 0
 355 265 360 270 360 294 c 0
 360 302 346 340 331 362 c 0
 297 411 274 397 274 415 c 0
 274 424 283 424 289 424 c 0
 356 424 288 422 410 422 c 0
 435 422 428 423 441 423 c 0
 462 423 463 412 463 409 c 0
 463 400 459 400 448 399 c 0
 435 398 418 394 418 371 c 0
 418 352 442 281 477 204 c 0
 498 159 515 103 524 103 c 0
 537 103 619 308 619 356 c 0
 619 410 564 385 564 414 c 0
 564 422 574 422 585 422 c 2
 700 422 l 2
 724 422 729 421 729 409 c 0
 729 391 706 401 685 372 c 0
 659 336 663 319 541 60 c 0
 519 13 507 -13 495 -13 c 0
 465 -13 394 246 376 246 c 0
 365 246 265 -10 232 -10 c 0
 216 -10 216 10 113 265 c 0
 87 330 92 352 39 396 c 0
 26 407 20 404 20 416 c 0
EndSplineSet
AlternateSubs2: "'aalt' Access All Alternates lookup 0 subtable" w.sc
AlternateSubs2: "'aalt' Access All Alternates in Latin lookup 0 subtable" w.sc
Substitution2: "'smcp' Lowercase to Small Capitals in Latin lookup 10 subtable" w.sc
EndChar

StartChar: x
Encoding: 120 120 24
Width: 548
VWidth: 0
Flags: HW
PickledData: "(dp1
Vspacing_anchors_slanted
p2
I00
s."
HStem: -1 24<480.71 518.998> 383 42<34.212 103.125>
VStem: 29 143<5 69> 236 70<198.978 232.722> 375 131<363.5 415.5>
AnchorPoint: "l;bl" 0 20 basechar 0
AnchorPoint: "l;x" 6 415 basechar 0
AnchorPoint: "l;o" 10 220 basechar 0
AnchorPoint: "r;bl" 548 20 basechar 0
AnchorPoint: "r;x" 525 415 basechar 0
AnchorPoint: "r;o" 539 220 basechar 0
LayerCount: 3
Fore
SplineSet
29 14 m 0
 29 26 39 19 75 41 c 0
 136 79 199 155 232 191 c 0
 234 194 236 196 236 202 c 0
 236 212 193 256 151 311 c 0
 117 355 83 382 74 383 c 0
 49 388 31 401 31 413 c 0
 31 421 38 425 45 425 c 0
 86 425 85 420 123 420 c 0
 154 420 175 424 204 424 c 0
 227 424 230 420 230 411 c 0
 230 397 197 402 197 382 c 0
 197 370 214 352 228 332 c 0
 269 274 282 253 289 253 c 0
 291 253 294 255 299 261 c 0
 371 353 375 354 375 373 c 0
 375 401 329 396 329 412 c 0
 329 417 329 424 355 424 c 0
 374 424 393 423 418 423 c 0
 437 423 458 425 487 425 c 0
 496 425 506 419 506 412 c 0
 506 393 479 410 421 352 c 0
 372 303 306 233 306 226 c 0
 306 219 312 221 397 117 c 0
 421 88 458 37 507 23 c 0
 516 21 519 20 519 11 c 0
 519 2 516 -1 485 -1 c 0
 471 -1 452 1 426 1 c 0
 403 1 386 -1 367 -1 c 2
 356 -1 l 2
 333 -1 322 0 322 9 c 0
 322 21 357 17 357 38 c 0
 357 68 302 117 269 166 c 0
 265 172 263 175 260 175 c 0
 257 175 251 167 249 165 c 0
 207 112 172 84 172 54 c 0
 172 9 219 36 219 8 c 0
 219 2 219 -1 178 -1 c 0
 160 -1 148 2 126 2 c 0
 106 2 89 -2 73 -2 c 0
 46 -2 29 1 29 14 c 0
EndSplineSet
AlternateSubs2: "'aalt' Access All Alternates lookup 0 subtable" x.sc
AlternateSubs2: "'aalt' Access All Alternates in Latin lookup 0 subtable" x.sc
Substitution2: "'smcp' Lowercase to Small Capitals in Latin lookup 10 subtable" x.sc
EndChar

StartChar: y
Encoding: 121 121 25
Width: 498
VWidth: 0
Flags: HW
PickledData: "(dp1
Vspacing_anchors_slanted
p2
I00
s."
HStem: -191 21G<158 183.5> 395 29<168.107 221.765>
VStem: 20 147<354.5 416.5>
AnchorPoint: "l;o" 29 220 basechar 0
AnchorPoint: "l;bl" 54 20 basechar 0
AnchorPoint: "r;o" 479 220 basechar 0
AnchorPoint: "r;x" 498 415 basechar 0
AnchorPoint: "r;bl" 444 20 basechar 0
AnchorPoint: "l;x" 0 415 basechar 0
AnchorPoint: "top" 259 459 basechar 0
AnchorPoint: "l;lo" 120 -205 basechar 0
LayerCount: 3
Back
SplineSet
20 412 m 0
 20 421 34 424 40 424 c 0
 94 424 104 422 147 422 c 0
 179 422 177 424 204 424 c 0
 214 424 222 418 222 413 c 0
 222 392 207 395 183 395 c 0
 168 395 167 378 167 367 c 0
 167 342 179 319 227 211 c 0
 248 166 271 104 280 104 c 0
 288 104 367 324 367 358 c 0
 367 418 305 380 305 413 c 0
 305 417 306 425 324 425 c 0
 351 425 378 424 396 424 c 0
 413 424 450 425 458 425 c 0
 472 425 479 420 479 412 c 0
 479 394 450 402 438 385 c 0
 427 369 404 313 384 259 c 2
 295 22 l 2
 238 -130 222 -190 207 -190 c 0
 202 -190 206 -191 161 -191 c 0
 155 -191 142 -189 142 -178 c 0
 142 -167 233 -80 233 -3 c 0
 233 41 113 285 77 353 c 0
 45 414 20 386 20 412 c 0
EndSplineSet
Fore
SplineSet
20 412 m 0
 20 421 34 424 40 424 c 0
 94 424 104 422 147 422 c 0
 179 422 177 424 204 424 c 0
 214 424 222 418 222 413 c 0
 222 397 213 395 198 395 c 2
 183 395 l 2
 168 395 167 378 167 367 c 0
 167 342 179 319 227 211 c 0
 248 166 271 104 280 104 c 0
 288 104 367 324 367 358 c 0
 367 418 305 380 305 413 c 0
 305 417 306 425 324 425 c 0
 351 425 378 424 396 424 c 0
 413 424 450 425 458 425 c 0
 472 425 479 420 479 412 c 0
 479 394 450 402 438 385 c 0
 427 369 404 313 384 259 c 2
 295 22 l 2
 238 -130 222 -190 207 -190 c 0
 202 -190 206 -191 161 -191 c 0
 155 -191 142 -189 142 -178 c 0
 142 -167 233 -80 233 -3 c 0
 233 41 113 285 77 353 c 0
 45 414 20 386 20 412 c 0
EndSplineSet
AlternateSubs2: "'aalt' Access All Alternates lookup 0 subtable" y.sc
AlternateSubs2: "'aalt' Access All Alternates in Latin lookup 0 subtable" y.sc
Substitution2: "'smcp' Lowercase to Small Capitals in Latin lookup 10 subtable" y.sc
EndChar

StartChar: z
Encoding: 122 122 26
Width: 378
VWidth: 0
Flags: HW
PickledData: "(dp1
Vspacing_anchors_slanted
p2
I00
s."
HStem: 2 62<118.017 295.625> 354 72<76.1163 232.977> 361 62<113.3 256.993>
VStem: 40 309
AnchorPoint: "top" 197 459 basechar 0
AnchorPoint: "l;bl" 0 20 basechar 0
AnchorPoint: "l;x" 0 415 basechar 0
AnchorPoint: "l;o" 0 220 basechar 0
AnchorPoint: "r;bl" 378 20 basechar 0
AnchorPoint: "r;x" 378 415 basechar 0
AnchorPoint: "r;o" 378 220 basechar 0
LayerCount: 3
Fore
SplineSet
40 15 m 0xd0
 40 33 45 35 74 77 c 0
 128 155 257 341 257 356 c 0
 257 358 247 361 234 361 c 0xb0
 213 361 139 355 112 354 c 0
 71 352 64 297 50 297 c 0
 48 297 42 299 42 308 c 0
 42 349 52 388 55 408 c 0
 56 418 65 426 75 426 c 0xd0
 86 426 118 423 182 423 c 0xb0
 241 423 285 426 329 426 c 0
 335 426 341 422 341 416 c 0
 341 400 319 381 312 370 c 0
 206 204 118 101 118 73 c 0
 118 66 142 64 167 64 c 0
 186 64 205 65 216 65 c 0
 308 65 303 100 316 126 c 0
 320 134 324 140 333 140 c 0
 339 140 349 136 349 126 c 0
 349 125 335 88 325 65 c 24
 314 40 313 2 294 2 c 0
 240 2 222 2 180 2 c 0
 165 2 135 1 107 1 c 2
 90 1 l 2
 61 1 65 0 59 0 c 0
 49 0 40 4 40 15 c 0xd0
EndSplineSet
AlternateSubs2: "'aalt' Access All Alternates lookup 0 subtable" z.sc
AlternateSubs2: "'aalt' Access All Alternates in Latin lookup 0 subtable" z.sc
Substitution2: "'smcp' Lowercase to Small Capitals in Latin lookup 10 subtable" z.sc
EndChar

StartChar: A
Encoding: 65 65 27
Width: 812
VWidth: 997
Flags: HMW
PickledData: "(dp1
Vspacing_anchors_slanted
p2
I00
s."
HStem: -4 31<20.2867 61.0193> 266 53<272.814 485.825> 570 154<369.5 423.5>
AnchorPoint: "top" 405 723 basechar 0
AnchorPoint: "l;bl" 0 20 basechar 0
AnchorPoint: "l;o" 49 220 basechar 0
AnchorPoint: "l;hi" 151 732 basechar 0
AnchorPoint: "l;t" 117 562 basechar 0
AnchorPoint: "l;x" 83 415 basechar 0
AnchorPoint: "r;bl" 812 20 basechar 0
AnchorPoint: "r;o" 763 220 basechar 0
AnchorPoint: "r;hi" 661 732 basechar 0
AnchorPoint: "r;t" 695 562 basechar 0
AnchorPoint: "r;x" 729 415 basechar 0
LayerCount: 3
Fore
SplineSet
20 8 m 0
 20 18 26 24 35 27 c 0
 93 49 86 69 383 701 c 0
 392 721 397 724 413 724 c 0
 434 724 421 722 485 563 c 0
 532 447 673 120 681 104 c 0
 731 3 792 49 792 13 c 0
 792 8 790 -2 765 -2 c 0
 742 -2 703 4 675 4 c 0
 639 4 611 0 582 0 c 0
 540 0 534 2 534 14 c 0
 534 36 584 23 584 61 c 0
 584 93 538 213 517 251 c 0
 513 259 509 268 476 268 c 0
 455 268 420 266 355 266 c 2
 302 266 l 2
 240 266 236 261 225 237 c 0
 189 161 161 109 161 81 c 0
 161 12 235 44 235 13 c 0
 235 5 234 -1 218 -1 c 0
 202 -1 170 0 135 0 c 0
 96 0 71 -4 49 -4 c 0
 31 -4 20 -2 20 8 c 0
271 338 m 0
 271 320 280 319 322 319 c 2
 353 319 l 2
 397 319 448 320 448 320 c 2
 474 320 487 325 487 336 c 0
 487 348 395 570 376 570 c 0
 363 570 271 350 271 338 c 0
EndSplineSet
AlternateSubs2: "'aalt' Access All Alternates lookup 0 subtable" A.c2
AlternateSubs2: "'aalt' Access All Alternates in Latin lookup 0 subtable" A.c2
Position2: "'cpsp' Capital Spacing in Latin lookup 2 subtable" dx=10 dy=0 dh=20 dv=0
Substitution2: "'c2sc' Capitals to Small Capitals in Latin lookup 11 subtable" A.c2
EndChar

StartChar: B
Encoding: 66 66 28
Width: 630
VWidth: 997
Flags: W
PickledData: "(dp1
Vspacing_anchors_slanted
p2
I00
s."
HStem: -8 40<219.08 447.534> -1 29<43.008 100.148 233.156 339.754> 364 34<211.36 404.939> 682 27<20.0791 87.9985 226.423 325.771>
VStem: 125 82<47 365.998 400.057 656.486> 461 77<468.113 585.343> 516 85<124.501 275.811>
AnchorPoint: "l;bl" 0 20 basechar 0
AnchorPoint: "l;o" 0 220 basechar 0
AnchorPoint: "l;hi" 0 732 basechar 0
AnchorPoint: "l;t" 0 562 basechar 0
AnchorPoint: "l;x" 0 415 basechar 0
AnchorPoint: "r;bl" 601 20 basechar 0
AnchorPoint: "r;o" 630 220 basechar 0
AnchorPoint: "r;hi" 601 732 basechar 0
AnchorPoint: "r;t" 615 562 basechar 0
AnchorPoint: "r;x" 630 415 basechar 0
LayerCount: 3
Fore
SplineSet
20 694 m 0x7a
 20 700 23 709 29 709 c 0
 39 709 39 708 69 708 c 0
 105 708 197 709 215 709 c 0
 258 709 290 712 325 712 c 0
 439 712 538 656 538 545 c 0x7c
 538 440 438 402 438 396 c 0
 438 384 601 379 601 208 c 0
 601 151 562 75 517 44 c 0
 455 1 411 -8 343 -8 c 0xba
 274 -8 189 3 164 3 c 0
 140 3 112 -1 78 -1 c 0
 75 -1 69 -1 64 -1 c 0
 54 -1 43 1 43 14 c 0
 43 18 44 28 54 28 c 0
 65 28 70 29 77 29 c 0
 91 29 119 46 122 122 c 0
 125 187 125 322 125 434 c 0
 125 533 125 604 125 604 c 2
 125 613 120 682 37 682 c 0
 31 682 20 682 20 694 c 0x7a
201 92 m 0
 201 35 264 32 299 32 c 2
 322 32 l 2
 352 32 382 33 408 37 c 0
 470 47 516 108 516 184 c 0xba
 516 356 353 364 320 364 c 0
 227 364 236 366 227 366 c 0
 206 366 202 364 202 204 c 2
 202 196 l 2
 202 113 201 102 201 92 c 0
207 545 m 2
 207 413 210 402 220 401 c 0
 239 399 243 398 271 398 c 2
 335 398 l 2
 424 398 461 452 461 516 c 0x3c
 461 576 403 677 259 677 c 0
 220 677 207 665 207 574 c 2
 207 545 l 2
EndSplineSet
AlternateSubs2: "'aalt' Access All Alternates lookup 0 subtable" B.c2
AlternateSubs2: "'aalt' Access All Alternates in Latin lookup 0 subtable" B.c2
Position2: "'cpsp' Capital Spacing in Latin lookup 2 subtable" dx=10 dy=0 dh=20 dv=0
Substitution2: "'c2sc' Capitals to Small Capitals in Latin lookup 11 subtable" B.c2
EndChar

StartChar: C
Encoding: 67 67 29
Width: 807
VWidth: 997
Flags: W
PickledData: "(dp1
Vspacing_anchors_slanted
p2
I00
s."
HStem: -20 46<340.272 570.108> 477 21G<717 722> 673 41<315.369 532.709>
VStem: 44 94<242.672 463.356>
AnchorPoint: "r;x" 792 415 basechar 0
AnchorPoint: "r;t" 807 562 basechar 0
AnchorPoint: "r;hi" 807 732 basechar 0
AnchorPoint: "r;o" 778 220 basechar 0
AnchorPoint: "r;bl" 763 20 basechar 0
AnchorPoint: "l;x" 0 415 basechar 0
AnchorPoint: "l;t" 0 562 basechar 0
AnchorPoint: "l;hi" 59 732 basechar 0
AnchorPoint: "l;o" 0 220 basechar 0
AnchorPoint: "l;bl" 59 20 basechar 0
AnchorPoint: "cedilla" 447 -79 basechar 0
AnchorPoint: "top" 419 723 basechar 0
LayerCount: 3
Fore
SplineSet
44 324 m 0
 44 537 175 714 423 714 c 0
 561 714 673 641 682 641 c 0
 689 641 695 651 703 651 c 0
 709 651 718 646 718 635 c 0
 720 569 732 507 732 495 c 0
 732 479 724 477 720 477 c 0
 714 477 707 484 703 491 c 0
 645 600 553 673 423 673 c 0
 258 673 138 557 138 384 c 0
 138 203 227 26 470 26 c 0
 594 26 672 115 712 176 c 0
 716 183 720 183 727 183 c 0
 733 183 736 176 736 169 c 0
 736 145 722 92 718 71 c 0
 716 62 710 57 702 53 c 0
 615 11 548 -20 444 -20 c 0
 142 -20 44 167 44 324 c 0
EndSplineSet
AlternateSubs2: "'aalt' Access All Alternates lookup 0 subtable" C.c2
AlternateSubs2: "'aalt' Access All Alternates in Latin lookup 0 subtable" C.c2
Position2: "'cpsp' Capital Spacing in Latin lookup 2 subtable" dx=10 dy=0 dh=20 dv=0
Substitution2: "'c2sc' Capitals to Small Capitals in Latin lookup 11 subtable" C.c2
EndChar

StartChar: D
Encoding: 68 68 30
Width: 792
VWidth: 997
Flags: HW
PickledData: "(dp1
Vspacing_anchors_slanted
p2
I00
s."
HStem: -3 37<35.6875 93.6962 258.182 492.212> 673 43<20.487 100.995 211.501 438.984>
VStem: 113 84<65.2273 659.569> 663 85<225.272 466.402>
AnchorPoint: "r;x" 792 415 basechar 0
AnchorPoint: "r;t" 792 562 basechar 0
AnchorPoint: "r;hi" 734 732 basechar 0
AnchorPoint: "r;o" 792 220 basechar 0
AnchorPoint: "r;bl" 734 20 basechar 0
AnchorPoint: "top" 374 723 basechar 0
AnchorPoint: "l;bl" 0 20 basechar 0
AnchorPoint: "l;o" 0 220 basechar 0
AnchorPoint: "l;hi" 0 732 basechar 0
AnchorPoint: "l;t" 0 562 basechar 0
AnchorPoint: "l;x" 0 415 basechar 0
LayerCount: 3
Fore
SplineSet
20 700 m 0
 20 712 29 712 71 712 c 2
 158 712 l 2
 211 712 285 716 353 716 c 0
 533 716 748 606 748 390 c 0
 748 196 690 135 603 63 c 0
 570 36 487 -3 399 -3 c 0
 375 -3 231 2 159 2 c 0
 99 2 79 -3 59 -3 c 0
 38 -3 35 2 35 10 c 0
 35 28 50 25 70 33 c 0
 91 42 113 72 113 98 c 0
 113 204 114 283 114 369 c 0
 114 450 113 503 113 623 c 0
 113 645 87 674 60 676 c 0
 39 677 20 678 20 700 c 0
197 141 m 0
 197 55 208 67 288 44 c 0
 309 38 335 34 361 34 c 2
 381 34 l 2
 474 34 532 60 589 115 c 0
 645 169 663 267 663 345 c 0
 663 569 475 673 320 673 c 0
 201 673 200 672 200 546 c 0
 200 507 198 373 198 354 c 0
 198 250 197 183 197 141 c 0
EndSplineSet
AlternateSubs2: "'aalt' Access All Alternates lookup 0 subtable" D.c2
AlternateSubs2: "'aalt' Access All Alternates in Latin lookup 0 subtable" D.c2
Position2: "'cpsp' Capital Spacing in Latin lookup 2 subtable" dx=10 dy=0 dh=20 dv=0
Substitution2: "'c2sc' Capitals to Small Capitals in Latin lookup 11 subtable" D.c2
EndChar

StartChar: E
Encoding: 69 69 31
Width: 604
Flags: HMW
PickledData: "(dp1
Vspacing_anchors_slanted
p2
I00
s."
HStem: 5 43<205.425 398.318> 338 46<199.453 428.24> 663 43<204.698 433.033>
VStem: 116 81<177.607 336.816 384 659.085> 446 29<251.582 311.552> 453 27<412.456 456.98> 495 31<563.029 629.82>
AnchorPoint: "top" 308 723 basechar 0
AnchorPoint: "l;bl" 0 20 basechar 0
AnchorPoint: "l;o" 0 220 basechar 0
AnchorPoint: "l;hi" 0 732 basechar 0
AnchorPoint: "l;t" 0 562 basechar 0
AnchorPoint: "l;x" 0 415 basechar 0
AnchorPoint: "r;bl" 604 20 basechar 0
AnchorPoint: "r;o" 604 220 basechar 0
AnchorPoint: "r;hi" 604 732 basechar 0
AnchorPoint: "r;t" 604 562 basechar 0
AnchorPoint: "r;x" 604 415 basechar 0
LayerCount: 3
Back
SplineSet
19.53125 699.21875 m 4
 19.53125 710.9375 40.52734375 712.890625 48.33984375 712.890625 c 4
 56.640625 712.890625 64.94140625 711.42578125 75.1953125 711.42578125 c 4
 99.609375 711.42578125 220.21484375 705.56640625 318.84765625 705.56640625 c 4
 358.88671875 705.56640625 489.2578125 709.9609375 519.04296875 709.9609375 c 4
 526.3671875 709.9609375 537.59765625 708.49609375 537.59765625 687.01171875 c 4
 537.59765625 667.48046875 525.87890625 634.765625 525.87890625 584.9609375 c 4
 525.87890625 572.75390625 518.06640625 562.98828125 510.25390625 562.98828125 c 4
 502.44140625 562.98828125 495.1171875 570.3125 495.1171875 584.47265625 c 4
 495.1171875 619.140625 469.7265625 653.80859375 435.546875 656.25 c 4
 371.09375 661.1328125 352.5390625 662.59765625 297.8515625 662.59765625 c 6
 272.4609375 662.59765625 l 6
 202.63671875 662.59765625 204.1015625 661.62109375 200.68359375 601.5625 c 4
 198.73046875 565.4296875 197.75390625 480.46875 197.265625 434.5703125 c 4
 197.265625 416.9921875 198.2421875 385.25390625 215.8203125 384.27734375 c 4
 225.09765625 383.7890625 233.3984375 383.7890625 240.72265625 383.7890625 c 4
 255.37109375 383.7890625 267.08984375 384.27734375 283.203125 384.27734375 c 6
 313.96484375 384.27734375 l 6
 400.390625 384.27734375 410.64453125 390.13671875 429.6875 402.83203125 c 4
 462.40234375 425.29296875 445.3125 457.03125 467.28515625 457.03125 c 4
 479.00390625 457.03125 480.46875 452.63671875 480.46875 440.91796875 c 4
 480.46875 422.8515625 471.6796875 370.60546875 471.6796875 335.9375 c 4
 471.6796875 302.24609375 475.09765625 294.43359375 475.09765625 275.390625 c 4
 475.09765625 250.9765625 471.19140625 249.51171875 468.26171875 249.51171875 c 4
 441.40625 249.51171875 448.2421875 305.6640625 421.38671875 323.2421875 c 4
 400.87890625 336.9140625 329.1015625 337.40234375 324.70703125 337.40234375 c 4
 237.3046875 337.40234375 248.53515625 337.890625 237.3046875 337.890625 c 4
 216.30859375 337.890625 196.2890625 334.47265625 196.2890625 318.84765625 c 4
 196.2890625 261.71875 194.3359375 230.46875 194.3359375 174.8046875 c 4
 194.3359375 161.1328125 193.84765625 147.4609375 193.84765625 134.765625 c 4
 193.84765625 102.05078125 200.68359375 61.03515625 217.7734375 55.6640625 c 4
 239.74609375 48.828125 245.60546875 47.8515625 260.7421875 47.8515625 c 4
 580.078125 47.8515625 542.96875 143.06640625 572.265625 143.06640625 c 4
 578.125 143.06640625 584.47265625 138.671875 584.47265625 126.46484375 c 4
 584.47265625 66.40625 505.859375 -5.37109375 465.8203125 -5.37109375 c 4
 337.890625 -5.37109375 251.953125 5.37109375 191.40625 5.37109375 c 4
 136.71875 5.37109375 103.515625 -4.39453125 54.6875 -4.39453125 c 4
 44.921875 -4.39453125 34.1796875 -4.39453125 34.1796875 6.34765625 c 4
 34.1796875 33.203125 35.15625 17.08984375 77.1484375 37.109375 c 4
 107.91015625 51.7578125 116.2109375 77.63671875 116.2109375 230.95703125 c 6
 116.2109375 354.98046875 l 6
 116.2109375 410.15625 119.140625 466.30859375 119.140625 528.3203125 c 4
 119.140625 557.12890625 118.1640625 586.42578125 116.69921875 618.65234375 c 4
 114.74609375 660.15625 74.70703125 679.19921875 35.64453125 680.6640625 c 4
 19.53125 681.15234375 19.53125 690.4296875 19.53125 699.21875 c 4
EndSplineSet
Fore
SplineSet
20 699 m 0xfa
 20 711 40 713 48 713 c 0
 56 713 65 711 75 711 c 0
 99 711 220 706 319 706 c 0
 359 706 489 710 519 710 c 0
 526 710 538 708 538 687 c 0
 538 667 526 635 526 585 c 0
 526 573 518 563 510 563 c 0
 502 563 495 570 495 584 c 0
 495 619 470 654 436 656 c 0
 372 661 353 663 298 663 c 2
 272 663 l 2
 202 663 204 662 201 602 c 0
 199 566 197 481 197 435 c 0
 197 417 198 385 216 384 c 0
 225 384 234 384 241 384 c 0
 256 384 267 384 283 384 c 2
 314 384 l 2
 400 384 411 390 430 403 c 0
 447 415 451 429 453 440 c 0
 455 450 457 457 467 457 c 0
 479 457 480 453 480 441 c 0xf6
 480 423 472 371 472 336 c 0
 472 302 475 294 475 275 c 0
 475 251 471 250 468 250 c 0
 456 250 450 260 446 274 c 0
 440 292 436 313 421 323 c 0
 400 337 329 337 325 337 c 0
 238 337 248 338 237 338 c 0
 216 338 196 335 196 319 c 0
 196 262 194 231 194 175 c 0
 194 161 194 148 194 135 c 0
 194 102 201 61 218 56 c 0
 240 49 246 48 261 48 c 0
 580 48 543 143 572 143 c 0
 578 143 584 138 584 126 c 0
 584 66 506 -5 466 -5 c 0
 338 -5 252 5 191 5 c 0
 136 5 104 -4 55 -4 c 0
 45 -4 34 -5 34 6 c 0
 34 33 35 17 77 37 c 0
 108 52 116 78 116 231 c 2
 116 355 l 2
 116 410 119 466 119 528 c 0
 119 557 118 587 117 619 c 0
 115 661 75 680 36 681 c 0
 20 681 20 690 20 699 c 0xfa
EndSplineSet
Layer: 2
SplineSet
19.53125 699.21875 m 4
 19.53125 710.9375 40.52734375 712.890625 48.33984375 712.890625 c 4
 56.640625 712.890625 64.94140625 711.42578125 75.1953125 711.42578125 c 4
 99.609375 711.42578125 220.21484375 705.56640625 318.84765625 705.56640625 c 4
 358.88671875 705.56640625 489.2578125 709.9609375 519.04296875 709.9609375 c 4
 526.3671875 709.9609375 537.59765625 708.49609375 537.59765625 687.01171875 c 4
 537.59765625 667.48046875 525.87890625 634.765625 525.87890625 584.9609375 c 4
 525.87890625 572.75390625 518.06640625 562.98828125 510.25390625 562.98828125 c 4
 502.44140625 562.98828125 495.1171875 570.3125 495.1171875 584.47265625 c 4
 495.1171875 619.140625 469.7265625 653.80859375 435.546875 656.25 c 4
 371.09375 661.1328125 352.5390625 662.59765625 297.8515625 662.59765625 c 6
 272.4609375 662.59765625 l 6
 202.63671875 662.59765625 204.1015625 661.62109375 200.68359375 601.5625 c 4
 198.73046875 565.4296875 197.75390625 480.46875 197.265625 434.5703125 c 4
 197.265625 416.9921875 198.2421875 385.25390625 215.8203125 384.27734375 c 4
 225.09765625 383.7890625 233.3984375 383.7890625 240.72265625 383.7890625 c 4
 255.37109375 383.7890625 267.08984375 384.27734375 283.203125 384.27734375 c 6
 313.96484375 384.27734375 l 6
 400.390625 384.27734375 410.64453125 390.13671875 429.6875 402.83203125 c 4
 446.77734375 414.55078125 450.68359375 429.19921875 453.125 439.94140625 c 4
 455.56640625 449.70703125 457.03125 457.03125 467.28515625 457.03125 c 4
 479.00390625 457.03125 480.46875 452.63671875 480.46875 440.91796875 c 4
 480.46875 422.8515625 471.6796875 370.60546875 471.6796875 335.9375 c 4
 471.6796875 302.24609375 475.09765625 294.43359375 475.09765625 275.390625 c 4
 475.09765625 250.9765625 471.19140625 249.51171875 468.26171875 249.51171875 c 4
 456.54296875 249.51171875 450.68359375 260.7421875 446.2890625 274.4140625 c 4
 440.4296875 291.9921875 436.5234375 313.4765625 421.38671875 323.2421875 c 4
 400.87890625 336.9140625 329.1015625 337.40234375 324.70703125 337.40234375 c 4
 237.3046875 337.40234375 248.53515625 337.890625 237.3046875 337.890625 c 4
 216.30859375 337.890625 196.2890625 334.47265625 196.2890625 318.84765625 c 4
 196.2890625 261.71875 194.3359375 230.46875 194.3359375 174.8046875 c 4
 194.3359375 161.1328125 193.84765625 147.4609375 193.84765625 134.765625 c 4
 193.84765625 102.05078125 200.68359375 61.03515625 217.7734375 55.6640625 c 4
 239.74609375 48.828125 245.60546875 47.8515625 260.7421875 47.8515625 c 4
 580.078125 47.8515625 542.96875 143.06640625 572.265625 143.06640625 c 4
 578.125 143.06640625 584.47265625 138.671875 584.47265625 126.46484375 c 4
 584.47265625 66.40625 505.859375 -5.37109375 465.8203125 -5.37109375 c 4
 337.890625 -5.37109375 251.953125 5.37109375 191.40625 5.37109375 c 4
 136.71875 5.37109375 103.515625 -4.39453125 54.6875 -4.39453125 c 4
 44.921875 -4.39453125 34.1796875 -4.39453125 34.1796875 6.34765625 c 4
 34.1796875 33.203125 35.15625 17.08984375 77.1484375 37.109375 c 4
 107.91015625 51.7578125 116.2109375 77.63671875 116.2109375 230.95703125 c 6
 116.2109375 354.98046875 l 6
 116.2109375 410.15625 119.140625 466.30859375 119.140625 528.3203125 c 4
 119.140625 557.12890625 118.1640625 586.42578125 116.69921875 618.65234375 c 4
 114.74609375 660.15625 74.70703125 679.19921875 35.64453125 680.6640625 c 4
 19.53125 681.15234375 19.53125 690.4296875 19.53125 699.21875 c 4
EndSplineSet
AlternateSubs2: "'aalt' Access All Alternates lookup 0 subtable" E.c2
AlternateSubs2: "'aalt' Access All Alternates in Latin lookup 0 subtable" E.c2
Position2: "'cpsp' Capital Spacing in Latin lookup 2 subtable" dx=10 dy=0 dh=20 dv=0
Substitution2: "'c2sc' Capitals to Small Capitals in Latin lookup 11 subtable" E.c2
EndChar

StartChar: F
Encoding: 70 70 32
Width: 554
VWidth: 1002
Flags: HMW
PickledData: "(dp1
Vspacing_anchors_slanted
p2
I00
s."
HStem: -4 37<222.332 300.965> -2 42<32.9888 97.8933> 340 47<196.675 429.512> 668 40<203.259 467.624>
VStem: 114 81<137.609 338.816 386.946 660.558> 441 35<253.283 322.743 403.847 457.869> 491 29<567.023 639.478>
AnchorPoint: "l;bl" 0 20 basechar 0
AnchorPoint: "l;o" 0 220 basechar 0
AnchorPoint: "l;hi" 0 732 basechar 0
AnchorPoint: "l;t" 0 562 basechar 0
AnchorPoint: "l;x" 0 415 basechar 0
AnchorPoint: "r;bl" 495 20 basechar 0
AnchorPoint: "r;o" 539 220 basechar 0
AnchorPoint: "r;hi" 554 732 basechar 0
AnchorPoint: "r;t" 554 562 basechar 0
AnchorPoint: "r;x" 539 415 basechar 0
LayerCount: 3
Back
SplineSet
19.53125 696.77734375 m 4xee
 19.53125 700.1953125 22.94921875 714.35546875 45.8984375 714.35546875 c 6
 72.75390625 714.35546875 l 6xee
 141.6015625 714.35546875 138.671875 707.51953125 289.55078125 707.51953125 c 4
 422.8515625 707.51953125 416.50390625 713.37890625 516.6015625 713.37890625 c 4
 523.92578125 713.37890625 534.1796875 710.9375 534.1796875 689.453125 c 4
 534.1796875 669.921875 525.87890625 638.18359375 519.53125 587.40234375 c 4
 518.06640625 575.1953125 512.6953125 566.89453125 504.8828125 566.89453125 c 4
 497.0703125 566.89453125 490.72265625 572.75390625 490.72265625 586.9140625 c 4
 490.72265625 621.58203125 479.00390625 653.3203125 444.82421875 655.76171875 c 4
 356.93359375 662.59765625 301.26953125 667.96875 265.13671875 667.96875 c 4xf6
 196.2890625 667.96875 200.68359375 650.87890625 198.2421875 604.00390625 c 4
 196.2890625 567.87109375 195.3125 482.91015625 194.82421875 437.01171875 c 4
 194.82421875 419.43359375 195.80078125 387.6953125 213.37890625 386.71875 c 4
 222.65625 386.23046875 230.95703125 386.23046875 238.28125 386.23046875 c 4
 252.9296875 386.23046875 264.6484375 386.71875 280.76171875 386.71875 c 6
 311.5234375 386.71875 l 6
 397.94921875 386.71875 408.203125 392.578125 427.24609375 405.2734375 c 4
 459.9609375 427.734375 440.4296875 459.47265625 464.84375 459.47265625 c 4
 476.5625 459.47265625 478.02734375 455.078125 478.02734375 443.359375 c 4
 478.02734375 425.29296875 468.75 394.53125 468.75 359.86328125 c 4
 468.75 326.171875 475.5859375 296.875 475.5859375 277.83203125 c 4
 475.5859375 253.41796875 470.21484375 252.9296875 461.9140625 252.9296875 c 4
 427.734375 252.9296875 452.1484375 311.5234375 418.9453125 325.68359375 c 4
 396.484375 335.44921875 326.66015625 339.84375 322.265625 339.84375 c 4
 234.86328125 339.84375 246.09375 340.33203125 234.86328125 340.33203125 c 4
 213.8671875 340.33203125 193.84765625 336.9140625 193.84765625 321.2890625 c 4
 193.84765625 264.16015625 191.89453125 232.91015625 191.89453125 177.24609375 c 4
 191.89453125 163.57421875 191.40625 149.90234375 191.40625 137.20703125 c 4
 191.40625 110.83984375 199.21875 33.203125 271.484375 33.203125 c 4
 294.921875 33.203125 300.78125 21.97265625 300.78125 15.13671875 c 4
 300.78125 9.765625 295.8984375 -4.39453125 270.01953125 -4.39453125 c 4
 239.2578125 -4.39453125 199.21875 3.90625 173.33984375 3.90625 c 4
 118.65234375 3.90625 101.07421875 -1.953125 52.24609375 -1.953125 c 4
 42.48046875 -1.953125 31.73828125 -1.953125 31.73828125 8.7890625 c 4
 31.73828125 26.3671875 33.69140625 24.90234375 74.70703125 39.55078125 c 4
 118.1640625 54.6875 111.81640625 121.09375 113.76953125 357.421875 c 4
 114.2578125 412.59765625 116.69921875 468.75 116.69921875 530.76171875 c 6
 116.69921875 589.35546875 l 6
 116.69921875 621.58203125 112.79296875 657.2265625 69.82421875 677.24609375 c 4
 47.36328125 687.98828125 19.53125 675.78125 19.53125 696.77734375 c 4xee
EndSplineSet
Fore
SplineSet
20 697 m 0x7e
 20 700 23 714 46 714 c 2
 73 714 l 2
 142 714 139 708 290 708 c 0
 423 708 417 713 517 713 c 0
 524 713 534 710 534 689 c 0
 534 669 526 638 520 587 c 0
 519 575 513 567 505 567 c 0
 497 567 491 573 491 587 c 0
 491 622 479 654 445 656 c 0
 357 663 301 668 265 668 c 0
 196 668 200 651 198 604 c 0
 196 568 195 483 195 437 c 0
 195 419 195 388 213 387 c 0
 222 387 231 386 238 386 c 0
 253 386 265 387 281 387 c 2
 312 387 l 2
 398 387 408 392 427 405 c 0
 433 409 438 414 441 419 c 0
 454 439 445 459 465 459 c 0
 477 459 478 455 478 443 c 0
 478 425 469 395 469 360 c 0
 469 326 476 297 476 278 c 0
 476 254 470 253 462 253 c 0
 447 253 443 264 441 278 c 0
 438 296 438 318 419 326 c 0
 397 336 326 340 322 340 c 0
 235 340 246 340 235 340 c 0
 214 340 194 337 194 321 c 0
 194 264 192 233 192 177 c 0
 192 163 191 150 191 137 c 0
 191 111 199 33 271 33 c 0
 294 33 301 22 301 15 c 0
 301 10 296 -4 270 -4 c 0xbe
 239 -4 199 4 173 4 c 0
 118 4 101 -2 52 -2 c 0
 42 -2 32 -2 32 9 c 0
 32 27 34 25 75 40 c 0
 118 55 112 121 114 357 c 0
 114 412 117 469 117 531 c 2
 117 589 l 2
 117 621 113 657 70 677 c 0
 48 688 20 676 20 697 c 0x7e
EndSplineSet
AlternateSubs2: "'aalt' Access All Alternates lookup 0 subtable" F.c2
AlternateSubs2: "'aalt' Access All Alternates in Latin lookup 0 subtable" F.c2
Position2: "'cpsp' Capital Spacing in Latin lookup 2 subtable" dx=10 dy=0 dh=20 dv=0
Substitution2: "'c2sc' Capitals to Small Capitals in Latin lookup 11 subtable" F.c2
EndChar

StartChar: G
Encoding: 71 71 33
Width: 818
Flags: HW
PickledData: "(dp1
Vspacing_anchors_slanted
p2
I00
s."
HStem: -17 41<338.943 541.772> 337 33<549.592 629.434> 680 39<313.647 525.201>
VStem: 44 94<250.312 464.649> 647 81<100.866 320.526> 712 29<487.29 522.259>
AnchorPoint: "l;x" 0 415 basechar 0
AnchorPoint: "l;t" 0 562 basechar 0
AnchorPoint: "l;hi" 59 732 basechar 0
AnchorPoint: "l;o" 0 220 basechar 0
AnchorPoint: "l;bl" 59 20 basechar 0
AnchorPoint: "cedilla" 439 -79 basechar 0
AnchorPoint: "top" 421 723 basechar 0
AnchorPoint: "r;bl" 818 20 basechar 0
AnchorPoint: "r;o" 818 220 basechar 0
AnchorPoint: "r;hi" 818 732 basechar 0
AnchorPoint: "r;t" 818 562 basechar 0
AnchorPoint: "r;x" 818 415 basechar 0
LayerCount: 3
Fore
SplineSet
44 329 m 0xf8
 44 542 179 719 435 719 c 0
 605 719 675 648 684 648 c 0
 691 648 704 663 712 663 c 0
 722 663 727 654 727 643 c 0
 729 577 741 516 741 504 c 0
 741 488 733 487 729 487 c 0
 723 487 715 492 712 499 c 0xf4
 666 600 542 680 426 680 c 0
 266 680 138 575 138 384 c 0
 138 203 247 24 435 24 c 0
 539 24 635 79 644 139 c 0
 645 147 647 224 647 265 c 0
 647 294 640 311 630 321 c 0
 618 333 601 335 586 337 c 0
 566 339 549 339 549 359 c 0
 549 365 553 370 567 370 c 0
 592 370 653 365 678 365 c 0
 724 365 770 366 773 366 c 0
 777 366 789 365 789 357 c 0
 789 341 740 341 735 311 c 0
 730 280 728 242 728 199 c 0
 728 110 733 98 733 87 c 0
 733 75 705 79 670 60 c 0
 658 53 555 -17 444 -17 c 0
 142 -17 44 158 44 329 c 0xf8
EndSplineSet
AlternateSubs2: "'aalt' Access All Alternates lookup 0 subtable" G.c2
AlternateSubs2: "'aalt' Access All Alternates in Latin lookup 0 subtable" G.c2
Position2: "'cpsp' Capital Spacing in Latin lookup 2 subtable" dx=10 dy=0 dh=20 dv=0
Substitution2: "'c2sc' Capitals to Small Capitals in Latin lookup 11 subtable" G.c2
EndChar

StartChar: H
Encoding: 72 72 34
Width: 791
VWidth: 0
Flags: HMW
PickledData: "(dp1
Vspacing_anchors_slanted
p2
I00
s."
HStem: 0 29<228.984 303.615> 0 22<717.073 770.99> 342 42<199.765 592.306> 680 26<22.2531 90.1821 219.938 270.957 694.628 746.99>
VStem: 121 74<106.832 341.735 384.686 659.471> 594 79<47.7185 338.81 383.005 659.988>
AnchorPoint: "top" 391 723 basechar 0
AnchorPoint: "l;bl" 0 20 basechar 0
AnchorPoint: "l;o" 0 220 basechar 0
AnchorPoint: "l;hi" 0 732 basechar 0
AnchorPoint: "l;t" 0 562 basechar 0
AnchorPoint: "l;x" 0 415 basechar 0
AnchorPoint: "r;bl" 791 20 basechar 0
AnchorPoint: "r;o" 791 220 basechar 0
AnchorPoint: "r;hi" 791 732 basechar 0
AnchorPoint: "r;t" 791 562 basechar 0
AnchorPoint: "r;x" 791 415 basechar 0
LayerCount: 3
Fore
SplineSet
20 699 m 0xbc
 20 710 35 710 48 710 c 0
 76 710 105 706 161 706 c 0
 204 706 186 708 249 708 c 0
 256 708 271 707 271 694 c 0
 271 685 268 677 236 677 c 0
 205 677 198 591 198 552 c 0
 198 538 198 525 198 515 c 0
 198 472 196 443 196 423 c 0
 196 389 201 384 230 384 c 0
 263 384 247 385 394 385 c 0
 416 385 453 384 583 383 c 0
 593 383 594 389 594 522 c 0
 594 539 594 557 594 576 c 0
 594 716 510 657 510 696 c 0
 510 704 525 706 549 706 c 0
 573 706 607 704 646 704 c 0
 670 704 688 706 724 706 c 0
 733 706 747 703 747 693 c 0
 747 680 737 680 733 680 c 0
 694 680 676 653 676 618 c 0
 675 522 673 451 673 375 c 0
 673 327 671 279 671 225 c 2
 671 188 l 2
 671 134 675 124 675 96 c 0
 675 37 732 25 759 22 c 0
 762 22 771 21 771 11 c 0
 771 1 758 0 722 0 c 0
 699 0 674 5 645 5 c 0
 607 5 598 0 551 0 c 0x7c
 525 0 515 0 515 13 c 0
 515 32 577 27 584 65 c 0
 589 91 591 116 591 138 c 0
 591 158 592 176 592 192 c 0
 592 229 594 270 594 315 c 0
 594 333 587 342 531 342 c 0
 505 342 414 339 408 339 c 0
 325 339 288 342 224 342 c 0
 206 342 199 340 199 305 c 0
 199 257 195 221 195 182 c 2
 195 139 l 2
 195 88 198 62 242 34 c 0
 247 31 264 29 285 29 c 0
 295 29 304 23 304 18 c 0
 304 2 289 0 272 0 c 0
 218 0 222 4 189 4 c 0
 137 4 117 -1 81 -1 c 0
 40 -1 34 6 34 14 c 0
 34 41 93 13 108 78 c 0
 111 94 121 227 121 345 c 2
 121 402 l 2
 121 431 122 469 122 510 c 0
 122 551 121 593 116 629 c 8
 111 665 70 682 41 682 c 0
 25 682 20 696 20 699 c 0xbc
EndSplineSet
AlternateSubs2: "'aalt' Access All Alternates lookup 0 subtable" H.c2
AlternateSubs2: "'aalt' Access All Alternates in Latin lookup 0 subtable" H.c2
Position2: "'cpsp' Capital Spacing in Latin lookup 2 subtable" dx=10 dy=0 dh=20 dv=0
Substitution2: "'c2sc' Capitals to Small Capitals in Latin lookup 11 subtable" H.c2
EndChar

StartChar: I
Encoding: 73 73 35
Width: 328
VWidth: 2
Flags: HW
PickledData: "(dp1
Vspacing_anchors_slanted
p2
I00
s."
HStem: 0 30<234.068 308.853> 667 41<211.625 272.385> 680 30<20.003 91.1572>
VStem: 119 76<102.962 655.481>
AnchorPoint: "top" 149 723 basechar 0
AnchorPoint: "l;bl" 0 20 basechar 0
AnchorPoint: "l;o" 0 220 basechar 0
AnchorPoint: "l;hi" 0 732 basechar 0
AnchorPoint: "l;t" 0 562 basechar 0
AnchorPoint: "l;x" 0 415 basechar 0
AnchorPoint: "r;bl" 328 20 basechar 0
AnchorPoint: "r;o" 328 220 basechar 0
AnchorPoint: "r;hi" 328 732 basechar 0
AnchorPoint: "r;t" 328 562 basechar 0
AnchorPoint: "r;x" 328 415 basechar 0
LayerCount: 3
Fore
SplineSet
20 695 m 0xb0
 20 702 24 710 48 710 c 0xb0
 76 710 105 706 161 706 c 0
 204 706 186 708 249 708 c 0
 256 708 276 707 276 694 c 0
 276 685 259 679 230 667 c 0xd0
 202 656 198 591 198 552 c 0
 198 317 195 274 195 182 c 0
 195 121 201 89 220 61 c 0
 241 32 258 30 268 30 c 0
 271 30 285 29 288 29 c 0
 298 29 309 23 309 18 c 0
 309 2 301 0 284 0 c 0
 230 0 222 4 189 4 c 0
 137 4 115 -1 79 -1 c 0
 38 -1 34 6 34 14 c 0
 34 41 93 13 108 78 c 0
 110 86 119 277 119 345 c 2
 119 402 l 2
 119 431 120 469 120 510 c 2
 120 556 l 2
 120 582 119 607 116 629 c 8
 111 665 69 679 41 680 c 0
 21 681 20 690 20 695 c 0xb0
EndSplineSet
AlternateSubs2: "'aalt' Access All Alternates lookup 0 subtable" I.c2
AlternateSubs2: "'aalt' Access All Alternates in Latin lookup 0 subtable" I.c2
Position2: "'cpsp' Capital Spacing in Latin lookup 2 subtable" dx=10 dy=0 dh=20 dv=0
Substitution2: "'c2sc' Capitals to Small Capitals in Latin lookup 11 subtable" I.c2
EndChar

StartChar: J
Encoding: 74 74 36
Width: 290
VWidth: 2
Flags: HMW
PickledData: "(dp1
Vspacing_anchors_slanted
p2
I00
s."
HStem: -192 59<-23.797 78.1145> 667 41<208.904 266.636> 678 35<20.0151 98.3398>
VStem: 125 79<-43.5053 656.125>
AnchorPoint: "top" 146 723 basechar 0
AnchorPoint: "l;bl" 15 20 basechar 0
AnchorPoint: "l;k;lo" -65 -205 basechar 0
AnchorPoint: "l;o" 29 220 basechar 0
AnchorPoint: "l;hi" 0 732 basechar 0
AnchorPoint: "l;t" 29 562 basechar 0
AnchorPoint: "l;x" 29 415 basechar 0
AnchorPoint: "r;bl" 290 20 basechar 0
AnchorPoint: "r;lo" 202 -205 basechar 0
AnchorPoint: "r;o" 290 220 basechar 0
AnchorPoint: "r;hi" 290 732 basechar 0
AnchorPoint: "r;t" 290 562 basechar 0
AnchorPoint: "r;x" 290 415 basechar 0
LayerCount: 3
Fore
SplineSet
-45 -154 m 0xd0
 -45 -134 -25 -99 -14 -99 c 0
 3 -99 7 -133 44 -133 c 0
 84 -133 105 -100 113 -55 c 0
 122 -8 126 33 126 66 c 0
 126 90 125 187 125 189 c 0
 125 257 122 188 122 530 c 0
 122 567 121 603 118 629 c 8
 114 664 70 677 42 678 c 0
 22 679 20 691 20 696 c 0
 20 705 25 713 49 713 c 0xb0
 77 713 106 707 162 707 c 0
 205 707 180 708 243 708 c 0
 250 708 271 708 271 695 c 0
 271 686 254 679 225 667 c 0
 206 660 204 630 204 599 c 2
 204 553 l 2
 204 69 202 117 202 69 c 0
 202 -87 103 -192 -5 -192 c 0
 -20 -192 -45 -190 -45 -154 c 0xd0
EndSplineSet
AlternateSubs2: "'aalt' Access All Alternates lookup 0 subtable" J.c2
AlternateSubs2: "'aalt' Access All Alternates in Latin lookup 0 subtable" J.c2
Position2: "'cpsp' Capital Spacing in Latin lookup 2 subtable" dx=10 dy=0 dh=20 dv=0
Substitution2: "'c2sc' Capitals to Small Capitals in Latin lookup 11 subtable" J.c2
EndChar

StartChar: K
Encoding: 75 75 37
Width: 724
VWidth: 2
Flags: HMW
PickledData: "(dp1
Vspacing_anchors_slanted
p2
I00
s."
HStem: -1 43<46.4475 108.374> 1 31<226.149 308.947 628.694 704.764> 324 51<197.143 234.221> 666 42<591.988 681.813> 680 28<20.028 87.827 220.203 263.877 440.503 497.326>
VStem: 119 79<52.8668 323.989 375.002 658.986>
AnchorPoint: "cedilla" 368 -79 basechar 0
AnchorPoint: "l;bl" 0 20 basechar 0
AnchorPoint: "l;o" 0 220 basechar 0
AnchorPoint: "l;hi" 0 732 basechar 0
AnchorPoint: "l;t" 0 562 basechar 0
AnchorPoint: "l;x" 0 415 basechar 0
AnchorPoint: "r;bl" 724 20 basechar 0
AnchorPoint: "r;o" 680 220 basechar 0
AnchorPoint: "r;hi" 704 732 basechar 0
AnchorPoint: "r;t" 680 562 basechar 0
AnchorPoint: "r;x" 651 415 basechar 0
LayerCount: 3
Fore
SplineSet
20 695 m 0xac
 20 702 24 708 48 708 c 0
 76 708 105 706 161 706 c 0
 204 706 178 708 247 708 c 0
 254 708 264 707 264 695 c 0
 264 685 245 683 229 674 c 0
 203 659 198 591 198 552 c 0
 198 462 195 417 195 396 c 0
 195 378 197 375 204 375 c 0
 215 375 501 607 501 655 c 0
 501 677 468 679 451 683 c 0
 442 685 440 694 440 697 c 0
 440 708 449 708 456 708 c 0xac
 462 708 470 707 481 707 c 0
 490 707 515 705 541 705 c 0
 545 705 665 708 665 708 c 2
 679 708 685 705 685 695 c 0
 685 679 662 681 627 666 c 0
 612 660 600 650 578 636 c 0
 560 625 584 642 291 396 c 0
 283 390 280 382 280 382 c 0
 280 376 286 371 291 366 c 0
 577 84 609 42 671 32 c 0
 692 29 705 28 705 14 c 0
 705 2 703 1 647 1 c 2
 550 1 l 2x74
 524 1 538 4 453 91 c 0
 224 323 227 324 211 324 c 0
 199 324 197 309 197 297 c 0
 197 295 198 276 198 220 c 0
 198 159 198 89 213 62 c 0
 231 31 270 30 280 30 c 0
 283 30 285 29 288 29 c 0
 298 29 309 23 309 18 c 0
 309 2 301 0 284 0 c 0
 230 0 222 4 189 4 c 0
 137 4 115 -1 79 -1 c 0
 46 -1 43 4 43 10 c 0
 43 11 43 13 43 14 c 0
 43 30 79 22 98 42 c 1
 119 63 119 148 119 268 c 2
 119 402 l 2
 119 431 117 469 117 510 c 2
 117 556 l 2
 117 582 117 607 114 629 c 0
 110 664 69 679 41 680 c 0
 21 681 20 690 20 695 c 0xac
EndSplineSet
AlternateSubs2: "'aalt' Access All Alternates lookup 0 subtable" K.c2
AlternateSubs2: "'aalt' Access All Alternates in Latin lookup 0 subtable" K.c2
Position2: "'cpsp' Capital Spacing in Latin lookup 2 subtable" dx=10 dy=0 dh=20 dv=0
Substitution2: "'c2sc' Capitals to Small Capitals in Latin lookup 11 subtable" K.c2
EndChar

StartChar: L
Encoding: 76 76 38
Width: 603
Flags: HMW
PickledData: "(dp1
Vspacing_anchors_slanted
p2
I00
s."
HStem: 5 43<204.425 397.318> 681 32<20.1222 89.375>
VStem: 115 78<57.1753 418.687>
AnchorPoint: "r;s;dot" 441 332 basechar 0
AnchorPoint: "right" 404 708 basechar 0
AnchorPoint: "top" 161 723 basechar 0
AnchorPoint: "cedilla" 301 -79 basechar 0
AnchorPoint: "l;bl" 0 20 basechar 0
AnchorPoint: "l;o" 0 220 basechar 0
AnchorPoint: "l;hi" 0 732 basechar 0
AnchorPoint: "l;t" 0 562 basechar 0
AnchorPoint: "l;x" 0 415 basechar 0
AnchorPoint: "r;bl" 603 20 basechar 0
AnchorPoint: "r;o" 603 220 basechar 0
AnchorPoint: "r;hi" 427 732 basechar 0
AnchorPoint: "r;t" 427 562 basechar 0
AnchorPoint: "r;x" 427 415 basechar 0
LayerCount: 3
Fore
SplineSet
20 695 m 0
 20 710 39 713 47 713 c 0
 55 713 64 711 74 711 c 0
 98 711 121 707 161 707 c 0
 215 707 248 711 266 711 c 0
 279 711 283 709 283 701 c 0
 283 658 208 714 201 593 c 0
 198 531 193 186 193 175 c 0
 193 161 193 148 193 135 c 0
 193 102 200 61 217 56 c 0
 239 49 245 48 260 48 c 0
 579 48 542 143 571 143 c 0
 577 143 583 138 583 126 c 0
 583 66 505 -5 465 -5 c 0
 337 -5 251 5 190 5 c 0
 135 5 114 -3 65 -3 c 0
 45 -3 36 2 36 9 c 0
 36 20 47 25 52 25 c 0
 56 25 67 25 81 35 c 0
 103 52 115 78 115 231 c 2
 115 355 l 2
 115 410 118 466 118 528 c 0
 118 557 117 587 116 619 c 0
 114 661 74 680 35 681 c 0
 21 681 20 687 20 695 c 0
EndSplineSet
Layer: 2
SplineSet
19.53125 694.82421875 m 0x54
 19.53125 709.9609375 39.0625 712.890625 47.36328125 712.890625 c 0
 55.6640625 712.890625 63.96484375 711.42578125 74.21875 711.42578125 c 0
 98.6328125 711.42578125 121.09375 706.54296875 160.64453125 706.54296875 c 0
 214.84375 706.54296875 248.046875 711.42578125 265.625 711.42578125 c 0
 278.3203125 711.42578125 283.203125 708.984375 283.203125 700.68359375 c 0
 283.203125 657.2265625 208.0078125 713.8671875 201.171875 593.26171875 c 0x54
 197.75390625 530.76171875 193.359375 185.546875 193.359375 174.8046875 c 0
 193.359375 161.1328125 192.87109375 147.4609375 192.87109375 134.765625 c 0
 192.87109375 102.05078125 199.70703125 61.03515625 216.796875 55.6640625 c 0
 238.76953125 48.828125 244.62890625 47.8515625 259.765625 47.8515625 c 0
 579.1015625 47.8515625 541.9921875 143.06640625 571.2890625 143.06640625 c 0
 577.1484375 143.06640625 583.49609375 138.671875 583.49609375 126.46484375 c 0
 583.49609375 66.40625 504.8828125 -5.37109375 464.84375 -5.37109375 c 0
 336.9140625 -5.37109375 250.9765625 5.37109375 190.4296875 5.37109375 c 0x38
 135.7421875 5.37109375 114.2578125 -3.41796875 65.4296875 -3.41796875 c 0
 45.8984375 -3.41796875 35.64453125 2.44140625 35.64453125 9.27734375 c 0
 35.64453125 20.5078125 46.38671875 25.390625 51.7578125 25.390625 c 0
 55.6640625 25.390625 67.3828125 25.390625 81.0546875 35.15625 c 0
 103.515625 51.7578125 115.234375 77.63671875 115.234375 230.95703125 c 2
 115.234375 354.98046875 l 2x58
 115.234375 410.15625 118.1640625 466.30859375 118.1640625 528.3203125 c 0
 118.1640625 557.12890625 117.1875 586.42578125 115.72265625 618.65234375 c 0
 113.76953125 660.15625 73.73046875 679.19921875 34.66796875 680.6640625 c 0
 20.5078125 681.15234375 19.53125 687.01171875 19.53125 694.82421875 c 0x54
EndSplineSet
AlternateSubs2: "'aalt' Access All Alternates lookup 0 subtable" L.c2
AlternateSubs2: "'aalt' Access All Alternates in Latin lookup 0 subtable" L.c2
Position2: "'cpsp' Capital Spacing in Latin lookup 2 subtable" dx=10 dy=0 dh=20 dv=0
Substitution2: "'c2sc' Capitals to Small Capitals in Latin lookup 11 subtable" L.c2
EndChar

StartChar: M
Encoding: 77 77 39
Width: 919
VWidth: 2
Flags: HMW
PickledData: "(dp1
Vspacing_anchors_slanted
p2
I00
s."
HStem: -3 29<205.906 263.892 826.174 898.966> 673 35<800.617 863.653> 680 30<20.0022 75.6467>
VStem: 137 45<282.171 488.993> 722 76<47.1472 375.969>
DStem2: 491 192 521 168 0.427215 0.90415<-63.585 377.99>
AnchorPoint: "l;bl" 0 20 basechar 0
AnchorPoint: "l;o" 15 220 basechar 0
AnchorPoint: "l;hi" 0 732 basechar 0
AnchorPoint: "l;t" 15 562 basechar 0
AnchorPoint: "l;x" 15 415 basechar 0
AnchorPoint: "r;bl" 919 20 basechar 0
AnchorPoint: "r;o" 904 220 basechar 0
AnchorPoint: "r;hi" 919 732 basechar 0
AnchorPoint: "r;t" 904 562 basechar 0
AnchorPoint: "r;x" 904 415 basechar 0
LayerCount: 3
Back
SplineSet
20 695 m 4xe0
 20 702 23 710 38 710 c 4
 49 710 82 706 91 706 c 4
 118 706 147 708 166 708 c 4
 178 708 187 702 190 694 c 4
 284 490 444 137 458 137 c 4
 469 137 480 169 491 192 c 6
 620 458 l 5
 726 679 717 671 723 683 c 4
 730 696 726 710 761 710 c 4
 804 710 784 708 847 708 c 4
 854 708 864 708 864 695 c 4
 864 683 859 677 831 673 c 4
 800 669 786 651 786 564 c 4xe0
 786 329 798 274 798 182 c 4
 798 44 816 27 881 27 c 4
 891 27 899 18 899 13 c 4
 899 -3 894 -3 877 -3 c 4
 823 -3 808 1 775 1 c 4
 723 1 707 -4 671 -4 c 4
 655 -4 653 4 653 10 c 4
 653 39 702 7 718 75 c 4
 720 85 722 109 722 139 c 4xd0
 722 252 708 466 708 469 c 4
 708 497 704 512 699 512 c 4
 690 512 678 485 660 449 c 6
 521 168 l 6
 444 11 450 12 437 12 c 4
 418 12 412 49 384 106 c 4
 196 488 198 489 190 489 c 4
 185 489 182 479 182 449 c 4
 180 303 173 261 173 185 c 6
 173 140 l 6
 173 87 174 34 250 26 c 4
 256 26 264 20 264 15 c 4
 264 -1 260 -3 249 -3 c 4
 215 -3 159 1 145 1 c 4
 133 1 107 -2 63 -2 c 4
 50 -2 42 -1 42 14 c 4
 42 41 96 1 118 90 c 4
 125 120 137 397 137 489 c 4
 137 618 122 659 33 680 c 4
 20 683 20 690 20 695 c 4xe0
EndSplineSet
Fore
SplineSet
20 695 m 0xb8
 20 702 23 710 38 710 c 0xb8
 49 710 82 706 91 706 c 0
 118 706 147 708 166 708 c 0xd8
 178 708 187 702 190 694 c 0
 284 490 444 137 458 137 c 0
 469 137 480 169 491 192 c 2
 620 458 l 1
 726 679 717 671 723 683 c 0
 730 696 726 710 761 710 c 0xb8
 804 710 784 708 847 708 c 0
 854 708 864 708 864 695 c 0
 864 683 859 677 831 673 c 0xd8
 800 669 786 651 786 564 c 0
 786 329 798 274 798 182 c 0
 798 44 816 27 881 27 c 0
 891 27 899 18 899 13 c 0
 899 -3 894 -3 877 -3 c 0
 823 -3 808 1 775 1 c 0
 723 1 707 -4 671 -4 c 0
 655 -4 653 4 653 10 c 0
 653 39 702 7 718 75 c 0
 720 85 722 109 722 139 c 0
 722 252 708 466 708 469 c 0
 708 497 704 512 699 512 c 0
 690 512 678 485 660 449 c 2
 521 168 l 2
 445 13 450 12 438 12 c 0
 418 12 413 47 384 106 c 0
 196 488 198 489 190 489 c 0
 185 489 182 479 182 449 c 0
 180 303 173 261 173 185 c 2
 173 140 l 2
 173 87 174 34 250 26 c 0
 256 26 264 20 264 15 c 0
 264 -1 260 -3 249 -3 c 0
 215 -3 159 1 145 1 c 0
 133 1 107 -2 63 -2 c 0
 50 -2 42 -1 42 14 c 0
 42 41 96 1 118 90 c 0
 125 120 137 397 137 489 c 0
 137 618 122 659 33 680 c 0
 20 683 20 690 20 695 c 0xb8
EndSplineSet
AlternateSubs2: "'aalt' Access All Alternates lookup 0 subtable" M.c2
AlternateSubs2: "'aalt' Access All Alternates in Latin lookup 0 subtable" M.c2
Position2: "'cpsp' Capital Spacing in Latin lookup 2 subtable" dx=10 dy=0 dh=20 dv=0
Substitution2: "'c2sc' Capitals to Small Capitals in Latin lookup 11 subtable" M.c2
EndChar

StartChar: N
Encoding: 78 78 40
Width: 798
VWidth: 2
Flags: HMW
PickledData: "(dp1
Vspacing_anchors_slanted
p2
I00
s."
HStem: -4 8G<52.5 77 236.5 256.5 668 677> 676 32<20.066 79.3125 530.071 604.608 717.358 763.976>
VStem: 135 42<295.324 519.687> 648 48<310.816 639.076>
AnchorPoint: "cedilla" 411 -79 basechar 0
AnchorPoint: "top" 397 723 basechar 0
AnchorPoint: "l;bl" 0 20 basechar 0
AnchorPoint: "l;o" 15 220 basechar 0
AnchorPoint: "l;hi" 0 732 basechar 0
AnchorPoint: "l;t" 15 562 basechar 0
AnchorPoint: "l;x" 15 415 basechar 0
AnchorPoint: "r;bl" 784 20 basechar 0
AnchorPoint: "r;o" 784 220 basechar 0
AnchorPoint: "r;hi" 798 732 basechar 0
AnchorPoint: "r;t" 798 562 basechar 0
AnchorPoint: "r;x" 793 415 basechar 0
LayerCount: 3
Fore
SplineSet
20 691 m 0
 20 698 30 708 45 708 c 0
 56 708 74 707 83 707 c 0
 110 707 113 709 132 709 c 0
 144 709 164 700 167 692 c 0
 171 684 201 655 229 618 c 0
 332 484 531 259 593 191 c 0
 621 160 631 146 638 146 c 0
 647 146 648 176 648 208 c 2
 648 325 l 2
 648 478 646 509 646 530 c 2
 646 537 l 2
 646 677 592 663 550 676 c 0
 536 680 530 687 530 693 c 0
 530 701 533 708 549 708 c 0
 561 708 633 707 644 707 c 0
 686 707 715 709 734 709 c 0
 756 709 764 706 764 692 c 0
 764 681 731 673 729 672 c 0
 720 667 696 643 696 559 c 2
 696 521 l 2
 696 380 685 125 685 26 c 0
 685 19 685 12 685 6 c 0
 685 -7 683 -17 671 -17 c 0
 665 -17 658 -13 655 -10 c 0
 212 503 197 520 187 520 c 0
 180 520 177 493 177 452 c 0
 177 290 169 176 169 128 c 0
 169 -4 267 46 267 13 c 0
 267 -3 262 -4 251 -4 c 0
 222 -4 232 -2 144 -2 c 0
 123 -2 95 -4 59 -4 c 0
 46 -4 37 -3 37 12 c 0
 37 38 87 6 111 88 c 0
 120 121 135 426 135 499 c 0
 135 613 105 668 33 676 c 0
 20 677 20 686 20 691 c 0
EndSplineSet
AlternateSubs2: "'aalt' Access All Alternates lookup 0 subtable" N.c2
AlternateSubs2: "'aalt' Access All Alternates in Latin lookup 0 subtable" N.c2
Position2: "'cpsp' Capital Spacing in Latin lookup 2 subtable" dx=10 dy=0 dh=20 dv=0
Substitution2: "'c2sc' Capitals to Small Capitals in Latin lookup 11 subtable" N.c2
EndChar

StartChar: O
Encoding: 79 79 41
Width: 853
VWidth: -2
Flags: HW
PickledData: "(dp1
Vspacing_anchors_slanted
p2
I00
s."
HStem: -16 44<342.126 551.885> 682 40<296.924 509.031>
VStem: 44 88<272.216 479.052> 727 82<237.543 447.734>
AnchorPoint: "top" 418 723 basechar 0
AnchorPoint: "l;bl" 59 20 basechar 0
AnchorPoint: "l;o" 0 220 basechar 0
AnchorPoint: "l;hi" 59 732 basechar 0
AnchorPoint: "l;t" 0 562 basechar 0
AnchorPoint: "l;x" 0 415 basechar 0
AnchorPoint: "r;bl" 794 20 basechar 0
AnchorPoint: "r;o" 853 220 basechar 0
AnchorPoint: "r;hi" 794 732 basechar 0
AnchorPoint: "r;t" 853 562 basechar 0
AnchorPoint: "r;x" 853 415 basechar 0
LayerCount: 3
Fore
SplineSet
44 339 m 0
 44 554 176 722 431 722 c 0
 733 722 809 494 809 392 c 0
 809 111 636 -16 417 -16 c 0
 169 -16 44 159 44 339 c 0
132 390 m 0
 132 263 223 28 449 28 c 0
 560 28 727 116 727 300 c 0
 727 552 573 682 397 682 c 0
 263 682 132 594 132 390 c 0
EndSplineSet
AlternateSubs2: "'aalt' Access All Alternates lookup 0 subtable" O.c2
AlternateSubs2: "'aalt' Access All Alternates in Latin lookup 0 subtable" O.c2
Position2: "'cpsp' Capital Spacing in Latin lookup 2 subtable" dx=10 dy=0 dh=20 dv=0
Substitution2: "'c2sc' Capitals to Small Capitals in Latin lookup 11 subtable" O.c2
EndChar

StartChar: P
Encoding: 80 80 42
Width: 564
Flags: HW
PickledData: "(dp1
Vspacing_anchors_slanted
p2
I00
s."
HStem: -6 40<27.1059 89.3053> 319 30<230.53 358.185> 671 40<205.104 337.018> 681 30<20.1862 84.6384>
VStem: 114 78<186.615 657.707> 450 85<431.44 567.751>
AnchorPoint: "r;s;AE" 366 -73 basechar 0
AnchorPoint: "l;bl" 0 20 basechar 0
AnchorPoint: "l;o" 0 220 basechar 0
AnchorPoint: "l;hi" 0 732 basechar 0
AnchorPoint: "l;t" 0 562 basechar 0
AnchorPoint: "l;x" 0 415 basechar 0
AnchorPoint: "r;bl" 462 20 basechar 0
AnchorPoint: "r;o" 521 220 basechar 0
AnchorPoint: "r;hi" 535 732 basechar 0
AnchorPoint: "r;t" 564 562 basechar 0
AnchorPoint: "r;x" 550 415 basechar 0
LayerCount: 3
Fore
SplineSet
20 694 m 0xdc
 20 702 27 710 43 710 c 0
 53 710 50 711 80 711 c 0xdc
 91 711 122 708 140 708 c 0
 183 708 270 711 305 711 c 0
 419 711 535 653 535 527 c 0
 535 354 370 319 317 319 c 0
 275 319 219 331 219 342 c 0
 219 353 225 357 232 357 c 0
 246 357 257 349 283 349 c 0
 337 349 450 377 450 489 c 0
 450 567 384 671 247 671 c 0xec
 208 671 194 659 194 569 c 0
 194 174 192 468 192 156 c 0
 192 87 210 56 233 41 c 0
 268 19 316 45 316 10 c 0
 316 -4 304 -7 293 -7 c 0
 253 -7 165 -2 150 -2 c 0
 125 -2 101 -6 57 -6 c 0
 46 -6 26 -6 26 5 c 0
 26 28 41 28 64 34 c 0
 78 38 83 31 99 78 c 0
 109 107 114 371 114 431 c 0
 114 536 113 575 113 601 c 0
 113 625 99 681 40 681 c 0
 29 681 20 684 20 694 c 0xdc
EndSplineSet
AlternateSubs2: "'aalt' Access All Alternates lookup 0 subtable" P.c2
AlternateSubs2: "'aalt' Access All Alternates in Latin lookup 0 subtable" P.c2
Position2: "'cpsp' Capital Spacing in Latin lookup 2 subtable" dx=10 dy=0 dh=20 dv=0
Substitution2: "'c2sc' Capitals to Small Capitals in Latin lookup 11 subtable" P.c2
EndChar

StartChar: Q
Encoding: 81 81 43
Width: 839
VWidth: -2
Flags: HW
PickledData: "(dp1
Vspacing_anchors_slanted
p2
I00
s."
HStem: -194 67<732.431 874.601> 10 18<242 448> 682 40<298.698 498.353>
VStem: 45 91<256.656 486.454> 110 42<-139.582 -26.1993> 717 78<237.114 436.597>
AnchorPoint: "r;x" 839 415 basechar 0
AnchorPoint: "r;t" 839 562 basechar 0
AnchorPoint: "r;hi" 781 732 basechar 0
AnchorPoint: "r;o" 839 220 basechar 0
AnchorPoint: "r;bl" 781 20 basechar 0
AnchorPoint: "l;x" 0 415 basechar 0
AnchorPoint: "l;t" 0 562 basechar 0
AnchorPoint: "l;hi" 59 732 basechar 0
AnchorPoint: "l;o" 0 220 basechar 0
AnchorPoint: "l;bl" 59 20 basechar 0
AnchorPoint: "l;lo" 73 -205 basechar 0
AnchorPoint: "r;k;lo" 939 -205 basechar 0
LayerCount: 3
Fore
SplineSet
45 339 m 0xf4
 45 550 152 722 432 722 c 0
 724 722 795 476 795 367 c 0
 795 229 718 57 581 20 c 0
 521 3 510 1 510 -3 c 0
 510 -9 517 -17 529 -22 c 0
 609 -58 754 -127 836 -127 c 0
 902 -127 901 -94 929 -94 c 0
 934 -94 939 -103 939 -106 c 0
 939 -154 851 -194 765 -194 c 0
 618 -194 318 10 242 10 c 0
 175 10 152 -49 152 -96 c 0
 152 -104 152 -108 152 -114 c 0
 152 -128 149 -140 134 -140 c 0
 121 -140 110 -119 110 -98 c 0xec
 110 -34 146 21 174 41 c 0
 185 49 196 55 196 59 c 0
 196 62 186 70 174 78 c 0
 89 139 45 234 45 339 c 0xf4
136 390 m 0xf4
 136 310 160 221 210 152 c 0
 266 74 383 28 448 28 c 0
 505 28 557 48 592 66 c 0
 636 89 717 177 717 300 c 0
 717 515 574 682 398 682 c 0
 264 682 136 594 136 390 c 0xf4
EndSplineSet
AlternateSubs2: "'aalt' Access All Alternates lookup 0 subtable" Q.c2
AlternateSubs2: "'aalt' Access All Alternates in Latin lookup 0 subtable" Q.c2
Position2: "'cpsp' Capital Spacing in Latin lookup 2 subtable" dx=10 dy=0 dh=20 dv=0
Substitution2: "'c2sc' Capitals to Small Capitals in Latin lookup 11 subtable" Q.c2
EndChar

StartChar: R
Encoding: 82 82 44
Width: 718
VWidth: 997
Flags: HW
PickledData: "(dp1
Vspacing_anchors_slanted
p2
I00
s."
HStem: -8 37<641.277 712.645> 333 38<204.103 328.01> 674 38<209.74 349.852>
VStem: 118 83<57.0938 333 373.809 659.567> 449 84<452.432 586.894>
AnchorPoint: "cedilla" 354 -79 basechar 0
AnchorPoint: "top" 297 723 basechar 0
AnchorPoint: "l;bl" 0 20 basechar 0
AnchorPoint: "l;o" 0 220 basechar 0
AnchorPoint: "l;hi" 0 732 basechar 0
AnchorPoint: "l;t" 0 562 basechar 0
AnchorPoint: "l;x" 0 415 basechar 0
AnchorPoint: "r;bl" 718 20 basechar 0
AnchorPoint: "r;o" 689 220 basechar 0
AnchorPoint: "r;hi" 586 732 basechar 0
AnchorPoint: "r;t" 616 562 basechar 0
AnchorPoint: "r;x" 616 415 basechar 0
LayerCount: 3
Fore
SplineSet
20 696 m 0
 20 709 28 712 49 712 c 2
 215 712 l 2
 258 712 280 715 315 715 c 0
 429 715 533 654 533 547 c 0
 533 399 408 372 408 356 c 0
 408 340 566 119 607 76 c 0
 611 71 647 29 699 29 c 0
 705 29 713 25 713 17 c 0
 713 0 711 -8 639 -8 c 0
 636 -8 589 -6 553 15 c 0
 500 46 425 172 374 255 c 0
 332 323 312 333 300 333 c 0
 294 333 285 333 279 333 c 0
 234 333 229 333 218 333 c 0
 203 333 201 333 201 262 c 0
 201 121 202 135 202 121 c 0
 202 0 325 42 325 9 c 0
 325 -1 321 -7 307 -7 c 0
 303 -7 174 0 164 0 c 0
 116 0 65 -4 54 -4 c 0
 44 -4 33 -1 33 12 c 0
 33 47 117 3 117 113 c 0
 117 177 118 317 118 428 c 0
 118 533 117 570 117 597 c 0
 117 705 20 665 20 696 c 0
201 536 m 2
 201 405 201 385 209 380 c 0
 222 372 233 371 252 371 c 2
 262 371 l 2
 271 371 281 371 291 371 c 0
 413 371 449 439 449 510 c 0
 449 579 398 674 254 674 c 0
 203 674 201 654 201 564 c 2
 201 536 l 2
EndSplineSet
AlternateSubs2: "'aalt' Access All Alternates lookup 0 subtable" R.c2
AlternateSubs2: "'aalt' Access All Alternates in Latin lookup 0 subtable" R.c2
Position2: "'cpsp' Capital Spacing in Latin lookup 2 subtable" dx=10 dy=0 dh=20 dv=0
Substitution2: "'c2sc' Capitals to Small Capitals in Latin lookup 11 subtable" R.c2
EndChar

StartChar: S
Encoding: 83 83 45
Width: 596
VWidth: 0
Flags: HW
PickledData: "(dp1
Vspacing_anchors_slanted
p2
I00
s."
HStem: -13 44<208.435 400.881> 681 41<202.132 378.37>
VStem: 59 30<166.686 207.954> 79 64<502.602 614.973> 474 64<112.981 241.085> 486 28<525.005 570.1>
AnchorPoint: "cedilla" 306 -79 basechar 0
AnchorPoint: "top" 305 723 basechar 0
AnchorPoint: "l;bl" 15 20 basechar 0
AnchorPoint: "l;o" 0 220 basechar 0
AnchorPoint: "l;hi" 29 732 basechar 0
AnchorPoint: "l;t" 0 562 basechar 0
AnchorPoint: "l;x" 0 415 basechar 0
AnchorPoint: "r;bl" 567 20 basechar 0
AnchorPoint: "r;o" 596 220 basechar 0
AnchorPoint: "r;hi" 582 732 basechar 0
AnchorPoint: "r;t" 596 562 basechar 0
AnchorPoint: "r;x" 596 415 basechar 0
LayerCount: 3
Fore
SplineSet
59 187 m 0xe8
 59 202 66 208 73 208 c 0
 79 208 87 204 89 198 c 0
 114 137 164 31 308 31 c 0
 409 31 474 89 474 174 c 0xe8
 474 309 300 301 170 379 c 0
 113 413 79 458 79 526 c 0
 79 645 175 722 311 722 c 0
 375 722 441 689 455 689 c 0
 461 689 471 697 478 697 c 0
 484 697 492 694 493 689 c 0
 501 643 514 567 514 553 c 0
 514 532 506 525 500 525 c 0
 492 525 489 530 486 539 c 0
 461 600 449 607 420 633 c 0
 383 666 335 681 289 681 c 0
 210 681 143 640 143 570 c 0xd4
 143 410 375 454 498 322 c 0
 522 296 538 261 538 215 c 0
 538 71 432 -13 305 -13 c 0
 220 -13 170 -8 108 25 c 0
 87 37 59 178 59 187 c 0xe8
EndSplineSet
AlternateSubs2: "'aalt' Access All Alternates lookup 0 subtable" S.c2
AlternateSubs2: "'aalt' Access All Alternates in Latin lookup 0 subtable" S.c2
Position2: "'cpsp' Capital Spacing in Latin lookup 2 subtable" dx=10 dy=0 dh=20 dv=0
Substitution2: "'c2sc' Capitals to Small Capitals in Latin lookup 11 subtable" S.c2
EndChar

StartChar: T
Encoding: 84 84 46
Width: 703
VWidth: 2
Flags: HMW
PickledData: "(dp1
Vspacing_anchors_slanted
p2
I00
s."
HStem: -3 39.1714<210.413 293.544> 658 52<125.286 308.973 391.888 638.645> 661 57<52.7436 293.6 428.004 635.592>
VStem: 20 52<583.476 650.498> 310 80<207.916 657.381> 656 27<580.069 629.54>
AnchorPoint: "top" 351 723 basechar 0
AnchorPoint: "r;s;AE" 585 -73 basechar 0
AnchorPoint: "cedilla" 349 -79 basechar 0
AnchorPoint: "l;bl" 88 20 basechar 0
AnchorPoint: "l;o" 88 220 basechar 0
AnchorPoint: "l;hi" 0 732 basechar 0
AnchorPoint: "l;t" 0 562 basechar 0
AnchorPoint: "l;x" 88 415 basechar 0
AnchorPoint: "r;bl" 615 20 basechar 0
AnchorPoint: "r;o" 615 220 basechar 0
AnchorPoint: "r;hi" 703 732 basechar 0
AnchorPoint: "r;t" 703 562 basechar 0
AnchorPoint: "r;x" 615 415 basechar 0
LayerCount: 3
Fore
SplineSet
20 580 m 0xbc
 20 609 26 658 30 683 c 0
 33 705 31 718 61 718 c 0xbc
 131 718 122 710 343 710 c 0
 491 710 598 712 651 715 c 0
 653 715 656 716 658 716 c 0
 675 716 677 702 677 699 c 0
 677 687 683 626 683 618 c 0
 683 583 680 580 667 580 c 0
 665 580 659 581 656 592 c 0
 643 639 639 658 555 658 c 2
 425 658 l 2xdc
 393 658 390 654 390 594 c 2
 390 545 l 2
 390 312 387 270 387 179 c 0
 387 153 386 132 386 114 c 0
 386 87 388 69 400 57 c 0
 438 20 484 39 484 13 c 0
 484 -3 477 -4 460 -4 c 0
 434 -4 382 4 349 4 c 0
 323 4 279 -3 247 -3 c 0
 226 -3 210 1 210 13 c 0
 210 34 237 30 262 36 c 0
 280 40 297 49 300 76 c 0
 308 146 310 412 310 454 c 0
 310 560 309 633 309 633 c 2
 309 658 306 661 233 661 c 0
 85 661 83 650 72 636 c 0
 45 600 56 563 31 563 c 0
 25 563 20 566 20 580 c 0xbc
EndSplineSet
AlternateSubs2: "'aalt' Access All Alternates lookup 0 subtable" T.c2
AlternateSubs2: "'aalt' Access All Alternates in Latin lookup 0 subtable" T.c2
Position2: "'cpsp' Capital Spacing in Latin lookup 2 subtable" dx=10 dy=0 dh=20 dv=0
Substitution2: "'c2sc' Capitals to Small Capitals in Latin lookup 11 subtable" T.c2
EndChar

StartChar: U
Encoding: 85 85 47
Width: 815
VWidth: 2
Flags: HW
PickledData: "(dp1
Vspacing_anchors_slanted
p2
I00
s."
HStem: -19 47<314.73 574.308> 670 38<592.671 671.396> 678 32<20.1928 90.89>
VStem: 114 86<164.253 661.26> 691 46<309.43 652.207>
AnchorPoint: "top" 436 723 basechar 0
AnchorPoint: "l;bl" 59 20 basechar 0
AnchorPoint: "l;o" 29 220 basechar 0
AnchorPoint: "l;hi" 0 732 basechar 0
AnchorPoint: "l;t" 0 562 basechar 0
AnchorPoint: "l;x" 0 415 basechar 0
AnchorPoint: "r;bl" 756 20 basechar 0
AnchorPoint: "r;o" 800 220 basechar 0
AnchorPoint: "r;hi" 815 732 basechar 0
AnchorPoint: "r;t" 815 562 basechar 0
AnchorPoint: "r;x" 815 415 basechar 0
LayerCount: 3
Fore
SplineSet
20 697 m 0xb8
 20 704 20 710 43 710 c 0xb8
 71 710 100 706 156 706 c 0
 203 706 175 708 250 708 c 0
 259 708 271 707 271 694 c 0
 271 660 201 724 201 580 c 2
 201 552 l 2
 201 465 200 395 200 336 c 0
 200 199 200 28 432 28 c 0
 544 28 691 29 691 324 c 0
 691 494 690 494 690 536 c 0
 690 590 689 646 654 670 c 0
 630 687 592 676 592 692 c 0
 592 700 596 708 612 708 c 0xd8
 624 708 678 706 689 706 c 0
 731 706 755 709 774 709 c 0
 795 709 795 701 795 696 c 0
 795 680 758 674 747 653 c 0
 738 636 736 624 736 587 c 0
 736 570 737 550 737 520 c 0
 737 138 698 55 575 3 c 0
 539 -12 466 -19 432 -19 c 0
 310 -19 243 1 195 45 c 0
 115 118 114 209 114 414 c 2
 114 431 l 2
 114 500 116 544 116 575 c 0
 116 644 110 668 42 678 c 0
 21 681 20 692 20 697 c 0xb8
EndSplineSet
AlternateSubs2: "'aalt' Access All Alternates lookup 0 subtable" U.c2
AlternateSubs2: "'aalt' Access All Alternates in Latin lookup 0 subtable" U.c2
Position2: "'cpsp' Capital Spacing in Latin lookup 2 subtable" dx=10 dy=0 dh=20 dv=0
Substitution2: "'c2sc' Capitals to Small Capitals in Latin lookup 11 subtable" U.c2
EndChar

StartChar: V
Encoding: 86 86 48
Width: 807
VWidth: 0
Flags: HMW
PickledData: "(dp1
Vspacing_anchors_slanted
p2
I00
s."
HStem: -30 21G<428 436.5> 690 20G<42.5 59 212.5 238 607 622 743.5 773.5>
AnchorPoint: "l;bl" 186 20 basechar 0
AnchorPoint: "l;o" 122 220 basechar 0
AnchorPoint: "l;hi" 0 732 basechar 0
AnchorPoint: "l;t" 24 562 basechar 0
AnchorPoint: "l;x" 73 415 basechar 0
AnchorPoint: "r;bl" 646 20 basechar 0
AnchorPoint: "r;o" 709 220 basechar 0
AnchorPoint: "r;hi" 807 732 basechar 0
AnchorPoint: "r;t" 782 562 basechar 0
AnchorPoint: "r;x" 748 415 basechar 0
LayerCount: 3
Fore
SplineSet
20 696 m 0
 20 709 37 710 48 710 c 0
 70 710 92 706 158 706 c 0
 176 706 202 708 223 708 c 0
 253 708 256 707 256 697 c 0
 256 682 215 683 215 650 c 0
 215 608 247 557 355 312 c 0
 388 236 442 119 455 119 c 0
 465 119 667 596 667 649 c 0
 667 696 595 676 595 700 c 0
 595 709 598 710 616 710 c 0
 628 710 644 709 679 709 c 0
 717 709 719 711 768 711 c 0
 779 711 787 709 787 697 c 0
 787 675 750 687 723 625 c 2
 500 117 l 2
 436 -29 442 -30 431 -30 c 0
 425 -30 411 -24 386 39 c 0
 354 118 328 173 283 271 c 0
 141 579 141 611 113 643 c 0
 63 699 20 661 20 696 c 0
EndSplineSet
AlternateSubs2: "'aalt' Access All Alternates lookup 0 subtable" V.c2
AlternateSubs2: "'aalt' Access All Alternates in Latin lookup 0 subtable" V.c2
Position2: "'cpsp' Capital Spacing in Latin lookup 2 subtable" dx=10 dy=0 dh=20 dv=0
Substitution2: "'c2sc' Capitals to Small Capitals in Latin lookup 11 subtable" V.c2
EndChar

StartChar: W
Encoding: 87 87 49
Width: 1110
VWidth: 0
Flags: HMW
PickledData: "(dp1
Vspacing_anchors_slanted
p2
I00
s."
HStem: -27 21G<411.5 427 721.5 734> 680 30<323.013 401.745>
AnchorPoint: "r;x" 1052 415 basechar 0
AnchorPoint: "r;t" 1086 562 basechar 0
AnchorPoint: "r;hi" 1110 732 basechar 0
AnchorPoint: "r;o" 1013 220 basechar 0
AnchorPoint: "r;bl" 949 20 basechar 0
AnchorPoint: "l;x" 69 415 basechar 0
AnchorPoint: "l;t" 21 562 basechar 0
AnchorPoint: "l;hi" 0 732 basechar 0
AnchorPoint: "l;o" 118 220 basechar 0
AnchorPoint: "l;bl" 182 20 basechar 0
AnchorPoint: "top" 577 723 basechar 0
LayerCount: 3
Back
SplineSet
20 695 m 4
 20 708 36 709 47 709 c 4
 69 709 91 706 157 706 c 4
 205 706 230 709 243 709 c 4
 255 709 257 706 257 697 c 4
 257 681 214 683 214 650 c 4
 214 619 249 557 356 312 c 4
 389 236 433 126 443 126 c 4
 449 126 498 236 525 305 c 4
 535 331 545 340 545 359 c 4
 545 372 433 631 408 659 c 4
 388 681 377 679 363 680 c 4
 323 684 323 687 323 696 c 4
 323 709 341 710 352 710 c 4
 374 710 396 706 462 706 c 4
 471 706 503 710 528 710 c 4
 545 710 558 708 558 702 c 4
 558 687 515 684 515 651 c 4
 515 629 527 605 546 562 c 4
 555 542 584 461 593 461 c 4
 604 461 665 632 665 652 c 4
 665 694 605 679 605 700 c 4
 605 709 613 711 627 711 c 4
 641 711 672 709 691 709 c 6
 708 709 l 6
 721 709 735 710 761 712 c 4
 764 712 767 712 770 712 c 4
 777 712 783 710 783 702 c 4
 783 684 754 690 738 673 c 4
 729 664 719 649 710 627 c 4
 621 415 620 419 620 399 c 4
 620 394 736 119 753 119 c 4
 769 119 974 616 974 649 c 4
 974 696 900 676 900 700 c 4
 900 709 901 710 919 710 c 4
 931 710 947 709 982 709 c 4
 1020 709 1022 711 1071 711 c 4
 1082 711 1091 709 1091 697 c 4
 1091 681 1071 683 1050 662 c 4
 1033 645 1028 628 1011 590 c 4
 735 -28 741 -27 727 -27 c 4
 716 -27 690 41 681 62 c 4
 639 159 582 301 572 301 c 4
 557 301 445 17 443 9 c 4
 433 -20 432 -30 422 -30 c 4
 401 -30 375 73 284 271 c 4
 211 430 180 511 161 558 c 4
 92 730 20 649 20 695 c 4
EndSplineSet
Fore
SplineSet
20 695 m 0
 20 708 36 709 47 709 c 0
 69 709 91 706 157 706 c 0
 205 706 230 709 243 709 c 0
 255 709 257 706 257 697 c 0
 257 681 214 683 214 650 c 0
 214 619 249 557 356 312 c 0
 389 236 433 126 443 126 c 0
 449 126 498 236 525 305 c 0
 535 331 545 340 545 359 c 0
 545 372 433 631 408 659 c 0
 388 681 377 679 363 680 c 0
 323 684 323 687 323 696 c 0
 323 709 341 710 352 710 c 0
 374 710 396 706 462 706 c 0
 471 706 503 710 528 710 c 0
 545 710 558 708 558 702 c 0
 558 687 515 684 515 651 c 0
 515 629 527 605 546 562 c 0
 555 542 584 461 593 461 c 0
 604 461 665 632 665 652 c 0
 665 694 605 679 605 700 c 0
 605 709 613 711 627 711 c 0
 641 711 672 709 691 709 c 2
 708 709 l 2
 721 709 735 710 761 712 c 0
 764 712 767 712 770 712 c 0
 777 712 783 710 783 702 c 0
 783 684 754 690 738 673 c 0
 729 664 719 649 710 627 c 0
 621 415 620 419 620 399 c 0
 620 394 736 119 753 119 c 0
 769 119 974 616 974 649 c 0
 974 696 900 676 900 700 c 0
 900 709 901 710 919 710 c 0
 931 710 947 709 982 709 c 0
 1020 709 1022 711 1071 711 c 0
 1082 711 1091 709 1091 697 c 0
 1091 681 1071 683 1050 662 c 0
 1033 645 1028 628 1011 590 c 0
 736 -26 741 -27 727 -27 c 0
 716 -27 696 29 681 62 c 0
 639 159 582 301 572 301 c 0
 557 301 445 17 443 9 c 0
 433 -20 432 -30 422 -30 c 0
 401 -30 375 73 284 271 c 0
 211 430 180 511 161 558 c 0
 92 730 20 649 20 695 c 0
EndSplineSet
AlternateSubs2: "'aalt' Access All Alternates lookup 0 subtable" W.c2
AlternateSubs2: "'aalt' Access All Alternates in Latin lookup 0 subtable" W.c2
Position2: "'cpsp' Capital Spacing in Latin lookup 2 subtable" dx=10 dy=0 dh=20 dv=0
Substitution2: "'c2sc' Capitals to Small Capitals in Latin lookup 11 subtable" W.c2
EndChar

StartChar: X
Encoding: 88 88 50
Width: 751
VWidth: 0
Flags: HMW
PickledData: "(dp1
Vspacing_anchors_slanted
p2
I00
s."
HStem: -1 41<648.433 728.072> 0 28<191.056 252.871> 681 33<20.5068 93.8321>
AnchorPoint: "l;bl" 0 20 basechar 0
AnchorPoint: "l;o" 29 220 basechar 0
AnchorPoint: "l;hi" 0 732 basechar 0
AnchorPoint: "l;t" 29 562 basechar 0
AnchorPoint: "l;x" 59 415 basechar 0
AnchorPoint: "r;bl" 751 20 basechar 0
AnchorPoint: "r;o" 722 220 basechar 0
AnchorPoint: "r;hi" 751 732 basechar 0
AnchorPoint: "r;t" 722 562 basechar 0
AnchorPoint: "r;x" 692 415 basechar 0
LayerCount: 3
Fore
SplineSet
20 701 m 0xa0
 20 712 24 714 62 714 c 0
 104 714 92 710 151 710 c 0
 162 710 248 712 256 712 c 0
 270 712 278 712 278 703 c 0
 278 675 233 697 233 664 c 0
 233 643 269 593 287 567 c 0
 349 473 376 428 387 428 c 0
 394 428 399 434 410 450 c 0
 451 510 542 632 542 655 c 0
 542 702 489 677 489 704 c 0
 489 712 494 714 504 714 c 0
 547 714 550 710 585 710 c 0
 679 710 656 714 679 714 c 0
 687 714 695 712 695 704 c 0
 695 682 663 691 620 661 c 0
 603 649 588 630 567 602 c 0
 505 519 412 396 412 392 c 0
 412 380 425 369 538 205 c 0
 571 157 640 63 668 40 c 0
 677 32 731 32 731 13 c 0
 731 5 729 -1 699 -1 c 0xa0
 667 -1 603 6 592 6 c 0
 527 6 502 0 490 0 c 0
 482 0 477 2 477 13 c 0
 477 39 528 21 528 56 c 0
 528 80 468 159 372 303 c 0
 366 313 358 320 355 320 c 0
 351 320 345 307 334 289 c 0
 270 189 187 100 187 55 c 0
 187 46 190 28 241 28 c 0
 248 28 253 24 253 11 c 0
 253 1 243 0 222 0 c 0x60
 204 0 143 3 134 3 c 0
 116 3 75 -1 54 -1 c 0
 36 -1 25 0 25 18 c 0
 25 39 57 20 96 51 c 0
 146 91 206 180 258 253 c 0
 299 310 332 349 332 356 c 0
 332 365 298 405 196 551 c 1
 164 598 106 671 60 681 c 0
 47 684 20 684 20 701 c 0xa0
EndSplineSet
AlternateSubs2: "'aalt' Access All Alternates lookup 0 subtable" X.c2
AlternateSubs2: "'aalt' Access All Alternates in Latin lookup 0 subtable" X.c2
Position2: "'cpsp' Capital Spacing in Latin lookup 2 subtable" dx=10 dy=0 dh=20 dv=0
Substitution2: "'c2sc' Capitals to Small Capitals in Latin lookup 11 subtable" X.c2
EndChar

StartChar: Y
Encoding: 89 89 51
Width: 712
VWidth: 2
Flags: HMW
PickledData: "(dp1
Vspacing_anchors_slanted
p2
I00
s."
HStem: 0 31<242.524 312.5 433.405 502.996> 672 31<20.0116 97.8599 468.939 535.231> 675 30<20.1031 94.125>
VStem: 328 87<43 366.555>
AnchorPoint: "r;s;AE" 541 -73 basechar 0
AnchorPoint: "top" 374 723 basechar 0
AnchorPoint: "l;bl" 151 20 basechar 0
AnchorPoint: "l;o" 107 220 basechar 0
AnchorPoint: "l;hi" 0 732 basechar 0
AnchorPoint: "l;t" 29 562 basechar 0
AnchorPoint: "l;x" 78 415 basechar 0
AnchorPoint: "r;bl" 570 20 basechar 0
AnchorPoint: "r;o" 614 220 basechar 0
AnchorPoint: "r;hi" 712 732 basechar 0
AnchorPoint: "r;t" 683 562 basechar 0
AnchorPoint: "r;x" 644 415 basechar 0
LayerCount: 3
Fore
SplineSet
20 688 m 0xb0
 20 703 32 705 82 705 c 0xb0
 95 705 123 703 140 703 c 0
 163 703 197 704 225 704 c 0
 260 704 275 699 275 692 c 0
 275 671 233 676 233 657 c 0
 233 627 269 581 287 553 c 0
 333 481 392 401 399 401 c 0
 413 401 434 447 466 494 c 0
 501 547 542 605 542 632 c 0
 542 660 525 668 508 672 c 0xd0
 489 676 468 675 468 693 c 0
 468 703 478 705 496 705 c 0xb0
 507 705 521 704 537 704 c 0
 582 704 605 703 643 703 c 0xd0
 671 703 692 702 692 688 c 0
 692 678 670 678 649 661 c 0
 579 606 501 456 438 375 c 0
 416 347 414 322 414 249 c 0
 414 222 415 167 415 133 c 2
 415 109 l 2
 415 37 455 31 468 31 c 0
 471 31 485 30 488 30 c 0
 498 30 503 21 503 16 c 0
 503 3 497 0 479 0 c 0
 465 0 410 1 379 1 c 0
 314 1 310 -3 269 -3 c 0
 247 -3 241 1 241 8 c 0
 241 29 263 22 284 28 c 0
 304 34 326 50 326 89 c 0
 326 114 328 107 328 292 c 0
 328 353 314 354 171 570 c 0
 105 670 74 675 45 675 c 0
 36 675 20 675 20 688 c 0xb0
EndSplineSet
AlternateSubs2: "'aalt' Access All Alternates lookup 0 subtable" Y.c2
AlternateSubs2: "'aalt' Access All Alternates in Latin lookup 0 subtable" Y.c2
Position2: "'cpsp' Capital Spacing in Latin lookup 2 subtable" dx=10 dy=0 dh=20 dv=0
Substitution2: "'c2sc' Capitals to Small Capitals in Latin lookup 11 subtable" Y.c2
EndChar

StartChar: Z
Encoding: 90 90 52
Width: 563
VWidth: 0
Flags: HMW
PickledData: "(dp1
Vspacing_anchors_slanted
p2
I00
s."
HStem: -1 45<148.038 472.018> 657 48<108.517 392.987>
AnchorPoint: "top" 274 723 basechar 0
AnchorPoint: "l;bl" 0 20 basechar 0
AnchorPoint: "l;o" 0 220 basechar 0
AnchorPoint: "l;hi" 0 732 basechar 0
AnchorPoint: "l;t" 0 562 basechar 0
AnchorPoint: "l;x" 0 415 basechar 0
AnchorPoint: "r;bl" 563 20 basechar 0
AnchorPoint: "r;o" 563 220 basechar 0
AnchorPoint: "r;hi" 563 732 basechar 0
AnchorPoint: "r;t" 563 562 basechar 0
AnchorPoint: "r;x" 548 415 basechar 0
LayerCount: 3
Fore
SplineSet
20 14 m 0
 20 27 51 58 96 139 c 0
 172 274 393 620 393 646 c 0
 393 656 375 657 350 657 c 0
 259 657 204 654 167 653 c 0
 73 651 65 558 48 558 c 0
 43 558 35 561 35 574 c 0
 35 609 43 624 43 640 c 0
 43 656 45 662 48 687 c 0
 50 704 56 708 76 708 c 0
 97 708 163 705 292 705 c 0
 410 705 384 706 472 706 c 0
 501 706 515 703 515 691 c 0
 515 666 148 85 148 64 c 0
 148 44 200 44 264 44 c 0
 389 44 441 47 491 75 c 0
 519 91 523 110 535 110 c 0
 536 110 543 109 543 99 c 0
 543 84 527 55 512 31 c 0
 501 13 499 0 470 0 c 0
 363 0 372 -1 287 -1 c 0
 29 -1 122 -2 40 -2 c 0
 29 -2 20 0 20 14 c 0
EndSplineSet
AlternateSubs2: "'aalt' Access All Alternates lookup 0 subtable" Z.c2
AlternateSubs2: "'aalt' Access All Alternates in Latin lookup 0 subtable" Z.c2
Position2: "'cpsp' Capital Spacing in Latin lookup 2 subtable" dx=10 dy=0 dh=20 dv=0
Substitution2: "'c2sc' Capitals to Small Capitals in Latin lookup 11 subtable" Z.c2
EndChar

StartChar: f_f
Encoding: 65536 -1 53
Width: 607
VWidth: 0
Flags: HMW
PickledData: "(dp1
Vspacing_anchors_slanted
p2
I00
s."
HStem: 0 27<54.2571 98.125 457.212 520.732> 377 40<29.0095 107.987 179.031 370.956 442.255 559.809> 675 41<270.606 370.993> 688 60<523.145 627.474>
VStem: 109 69<43.7458 374.94 420.031 543.311> 371 69<37.1666 375.971 417.005 558.93>
AnchorPoint: "r;t" 607 562 basechar 0
AnchorPoint: "r;o" 587 220 basechar 0
AnchorPoint: "r;k;hi" 680 732 basechar 0
AnchorPoint: "r;x" 607 415 basechar 0
AnchorPoint: "r;bl" 587 20 basechar 0
AnchorPoint: "l;t" 29 562 basechar 0
AnchorPoint: "l;hi" 59 732 basechar 0
AnchorPoint: "l;o" 0 220 basechar 0
AnchorPoint: "l;x" 0 415 basechar 0
AnchorPoint: "l;bl" 0 20 basechar 0
LayerCount: 3
Fore
SplineSet
29 394 m 0xdc
 29 413 29 421 62 421 c 0
 68 421 84 420 92 420 c 0
 109 420 109 424 109 438 c 0
 109 511 145 602 210 658 c 0
 260 701 317 716 356 716 c 0xec
 420 716 456 678 462 678 c 0
 470 678 518 748 592 748 c 0
 623 748 647 739 647 722 c 0
 647 716 646 704 643 692 c 0
 637 672 633 664 617 664 c 0
 599 664 604 688 554 688 c 0
 464 688 442 575 442 428 c 0
 442 420 443 417 451 417 c 0
 466 417 479 417 492 417 c 0
 559 417 549 437 565 437 c 0
 572 437 573 427 573 421 c 0
 573 415 569 401 560 386 c 0
 556 380 547 377 535 377 c 0
 488 377 519 376 457 376 c 0
 442 376 440 376 440 268 c 0
 440 228 439 172 439 96 c 0
 439 40 466 31 489 27 c 0
 506 24 521 24 521 11 c 0
 521 6 520 -1 509 -1 c 0
 506 -1 439 5 416 5 c 0
 386 5 396 0 341 0 c 0
 332 0 315 0 315 11 c 0
 315 36 368 15 368 78 c 0
 368 106 371 171 371 359 c 0
 371 374 367 377 345 377 c 0
 249 377 353 376 193 376 c 0
 184 376 179 375 179 366 c 2
 179 249 l 2
 179 222 178 198 178 178 c 2
 178 122 l 2
 178 69 180 59 194 43 c 0
 206 29 265 25 265 10 c 0
 265 5 259 0 251 0 c 0
 248 0 174 5 151 5 c 0
 125 5 121 0 67 0 c 0
 60 0 54 2 54 11 c 0
 54 22 64 23 76 27 c 0
 91 32 109 40 109 77 c 0
 109 105 108 174 108 362 c 0
 108 374 103 375 90 375 c 2
 49 375 l 2
 29 375 29 388 29 394 c 0xdc
178 433 m 0
 178 422 179 419 189 419 c 0
 230 419 337 417 354 417 c 0
 371 417 373 424 373 438 c 0
 373 546 412 597 412 614 c 0
 412 632 351 675 316 675 c 0
 267 675 178 619 178 433 c 0
EndSplineSet
Ligature2: "liga subtable" f f
LCarets2: 1 0 
EndChar

StartChar: f_i
Encoding: 65537 -1 54
Width: 543
VWidth: 0
Flags: HW
PickledData: "(dp1
Vspacing_anchors_slanted
p2
I00
s."
HStem: -5 26<198.578 262.117 311.932 353.791 459.359 523.439> 377 40<29.4094 107.811 180.548 360.187> 421 20G<418.5 433> 682 53<270.21 389.858>
VStem: 108 70<33.075 375.003 415.096 549.498> 368 70<33.6954 374.016>
AnchorPoint: "r;bl" 543 20 basechar 0
AnchorPoint: "r;x" 542 415 basechar 0
AnchorPoint: "r;o" 542 220 basechar 0
AnchorPoint: "l;t" 29 562 basechar 0
AnchorPoint: "l;hi" 59 732 basechar 0
AnchorPoint: "l;o" 0 220 basechar 0
AnchorPoint: "l;x" 0 415 basechar 0
AnchorPoint: "l;bl" 0 20 basechar 0
AnchorPoint: "r;hi" 524 732 basechar 0
AnchorPoint: "r;t" 524 562 basechar 0
LayerCount: 3
Fore
SplineSet
29 390 m 0
 29 401 31 417 51 417 c 0
 59 417 84 415 92 415 c 0
 109 415 112 424 112 438 c 0
 112 644 254 735 363 735 c 0
 415 735 426 711 426 697 c 0
 426 694 415 630 400 630 c 0
 392 630 391 643 374 654 c 0
 357 665 335 682 293 682 c 0
 276 682 255 678 236 657 c 0
 226 646 178 578 178 433 c 0
 178 422 179 414 189 414 c 0
 254 414 288 414 320 414 c 0
 368 414 407 441 430 441 c 0
 436 441 445 434 445 420 c 0
 445 390 438 420 438 122 c 0
 438 65 443 33 481 23 c 0
 502 17 524 22 524 4 c 0
 524 -2 522 -7 506 -7 c 0
 483 -7 463 0 422 0 c 0
 371 0 352 -6 333 -6 c 0
 318 -6 310 -5 310 2 c 0
 310 9 318 16 327 19 c 0
 366 32 368 33 368 206 c 2
 368 305 l 2
 368 314 368 323 368 330 c 0
 368 355 354 378 330 378 c 0
 313 378 197 381 197 381 c 2
 188 381 181 377 181 368 c 2
 178 308 l 2
 176 246 175 202 175 168 c 0
 175 138 176 116 176 98 c 0
 176 44 189 29 240 21 c 0
 256 19 263 11 263 4 c 0
 263 0 253 -5 243 -5 c 0
 240 -5 175 -1 152 -1 c 0
 122 -1 77 -4 68 -4 c 0
 56 -4 52 0 52 8 c 0
 52 31 107 5 107 75 c 0
 107 103 108 171 108 359 c 0
 108 374 107 375 94 375 c 0
 83 375 68 377 51 377 c 0
 30 377 29 380 29 390 c 0
EndSplineSet
Ligature2: "liga subtable" f i
LCarets2: 1 0 
EndChar

StartChar: f_l
Encoding: 65538 -1 55
Width: 542
VWidth: 0
Flags: HW
PickledData: "(dp1
Vspacing_anchors_slanted
p2
I00
s."
HStem: -5 38<56.525 103.932> -3 24<204.464 260.75> 378 42<28.5729 107.781 182.278 313.705> 685 49<263.046 370.546> 730 20G<426.5 443>
VStem: 109 69<36.1174 379.996 419.195 550.352> 371 69<35.3775 672.33>
AnchorPoint: "r;t" 542 562 basechar 0
AnchorPoint: "r;o" 542 220 basechar 0
AnchorPoint: "r;hi" 542 732 basechar 0
AnchorPoint: "r;x" 542 415 basechar 0
AnchorPoint: "r;bl" 542 20 basechar 0
AnchorPoint: "l;t" 29 562 basechar 0
AnchorPoint: "l;hi" 59 732 basechar 0
AnchorPoint: "l;o" 0 220 basechar 0
AnchorPoint: "l;x" 0 415 basechar 0
AnchorPoint: "l;bl" 0 20 basechar 0
LayerCount: 3
Fore
SplineSet
28 390 m 0xa6
 28 415 37 420 69 420 c 0
 82 420 92 419 98 419 c 0
 109 419 112 422 112 433 c 0
 112 639 260 734 336 734 c 0xb6
 350 734 372 732 382 732 c 0
 417 732 415 750 438 750 c 0x2e
 448 750 449 736 449 726 c 0
 449 711 443 671 443 580 c 2
 443 524 l 2
 443 439 440 441 440 391 c 2
 440 93 l 2
 440 -2 522 36 522 7 c 0
 522 -4 518 -6 499 -6 c 0
 478 -6 434 -1 403 -1 c 0
 357 -1 352 -6 330 -6 c 0
 319 -6 313 1 313 4 c 0
 313 29 371 9 371 89 c 0
 371 477 373 393 373 614 c 0
 373 684 323 685 300 685 c 0
 281 685 264 679 250 668 c 0
 201 631 182 516 182 451 c 0
 182 440 183 417 187 417 c 0
 229 417 255 417 276 420 c 0
 287 421 310 438 321 438 c 0
 326 438 328 434 328 430 c 0
 328 419 308 380 286 380 c 0
 239 380 258 380 196 380 c 0
 187 380 180 375 180 366 c 0
 180 359 178 235 178 157 c 2
 178 129 l 2
 178 30 198 31 245 21 c 0
 261 18 261 11 261 4 c 0
 261 0 260 -3 250 -3 c 0x76
 247 -3 197 3 174 3 c 0
 144 3 87 -5 76 -5 c 0
 67 -5 56 0 56 11 c 0
 56 27 86 21 95 33 c 0
 102 41 109 58 109 88 c 0
 109 116 108 171 108 359 c 0
 108 374 102 380 89 380 c 0
 78 380 68 378 51 378 c 0
 30 378 28 384 28 390 c 0xa6
EndSplineSet
Ligature2: "liga subtable" f l
LCarets2: 1 0 
EndChar

StartChar: f_f_i
Encoding: 65539 -1 56
Width: 804
VWidth: 0
Flags: HW
PickledData: "(dp1
Vspacing_anchors_slanted
p2
I00
s."
HStem: -3 24<317.01 358.68 576.825 617.655> -1 29<456.56 524.315> 380 37<28.0556 107.956 178.001 371.875 442.103 624.473> 675 41<269.47 376.173> 686 52<531.074 627.041>
VStem: 108 70<42.7919 377.965 418.051 540.952> 372 67<37.0153 377.956 417 552.977> 632 70<35.6262 376.202>
AnchorPoint: "r;bl" 804 20 basechar 0
AnchorPoint: "r;x" 804 415 basechar 0
AnchorPoint: "r;o" 804 220 basechar 0
AnchorPoint: "l;t" 29 562 basechar 0
AnchorPoint: "l;hi" 59 732 basechar 0
AnchorPoint: "l;o" 0 220 basechar 0
AnchorPoint: "l;x" 0 415 basechar 0
AnchorPoint: "l;bl" 0 20 basechar 0
AnchorPoint: "r;hi" 784 732 basechar 0
AnchorPoint: "r;t" 784 562 basechar 0
LayerCount: 3
Fore
SplineSet
28 394 m 0xa7
 28 413 29 418 62 418 c 2
 91 418 l 2
 108 418 110 424 110 438 c 0
 110 594 233 716 355 716 c 0xb7
 422 716 462 671 468 671 c 0
 476 671 528 738 610 738 c 0
 641 738 687 734 687 704 c 0
 687 689 677 635 661 635 c 0
 648 635 652 646 636 658 c 0
 619 671 588 686 562 686 c 0
 472 686 442 575 442 428 c 0
 442 420 442 417 450 417 c 0
 465 417 478 417 491 417 c 0
 558 417 586 420 618 420 c 0
 666 420 671 446 694 446 c 0
 700 446 706 441 706 427 c 0
 706 406 702 405 702 321 c 0
 702 276 702 322 702 98 c 0
 702 -6 784 38 784 9 c 0
 784 3 783 -3 763 -3 c 0xaf
 740 -3 728 0 687 0 c 0
 636 0 617 -6 598 -6 c 0
 583 -6 574 -5 574 2 c 0
 574 9 583 16 592 19 c 0
 631 32 632 33 632 206 c 2
 632 305 l 2
 632 314 633 323 633 330 c 0
 633 355 619 380 595 380 c 0
 578 380 547 379 535 379 c 0
 488 379 518 378 456 378 c 0
 441 378 439 376 439 268 c 0
 439 228 441 191 441 115 c 0
 441 49 457 34 477 28 c 0
 498 21 525 22 525 11 c 0
 525 2 524 -1 513 -1 c 0x67
 500 -1 473 3 419 3 c 0
 389 3 386 -3 340 -3 c 0
 331 -3 317 -2 317 9 c 0
 317 16 326 20 332 21 c 0
 347 24 372 20 372 90 c 2
 372 359 l 2
 372 374 372 380 354 380 c 0
 258 380 353 378 193 378 c 0
 181 378 178 375 178 366 c 2
 178 249 l 2
 178 222 178 198 178 178 c 2
 178 122 l 2
 178 69 186 59 199 42 c 0
 210 27 264 25 264 10 c 0
 264 5 258 -2 250 -2 c 0
 247 -2 174 4 151 4 c 0
 123 4 109 -4 82 -4 c 0
 75 -4 58 -4 58 8 c 0
 58 31 108 12 108 77 c 0
 108 105 108 174 108 362 c 0
 108 377 102 379 89 379 c 2
 48 379 l 2
 28 379 28 388 28 394 c 0xa7
178 431 m 0
 178 417 179 417 280 417 c 0
 308 417 336 417 364 417 c 0
 374 417 375 424 375 438 c 0
 375 556 417 596 417 613 c 0
 417 632 354 675 325 675 c 0
 237 675 178 564 178 431 c 0
EndSplineSet
Ligature2: "liga subtable" f f i
LCarets2: 2 0 0 
EndChar

StartChar: f_f_l
Encoding: 65540 -1 57
Width: 808
VWidth: 0
Flags: HW
PickledData: "(dp1
Vspacing_anchors_slanted
p2
I00
s."
HStem: -3 31<55.0904 103.573 457.154 523.022> 381 38<28.1074 108 179.04 368.777 443.299 571.031> 675 41<267.1 374.946> 687 50<528.696 634.054> 734 20G<683.5 700>
VStem: 108 71<37.2038 376.807 419 541.83> 370 69<40.3207 364.585 419.003 554.305> 632 71<42.3902 677.302>
AnchorPoint: "r;t" 805 562 basechar 0
AnchorPoint: "r;o" 805 220 basechar 0
AnchorPoint: "r;hi" 805 732 basechar 0
AnchorPoint: "r;x" 805 415 basechar 0
AnchorPoint: "r;bl" 808 20 basechar 0
AnchorPoint: "l;t" 29 562 basechar 0
AnchorPoint: "l;hi" 59 732 basechar 0
AnchorPoint: "l;o" 0 220 basechar 0
AnchorPoint: "l;x" 0 415 basechar 0
AnchorPoint: "l;bl" 0 20 basechar 0
LayerCount: 3
Fore
SplineSet
28 394 m 0xd7
 28 413 29 419 62 419 c 0
 68 419 83 419 91 419 c 0
 108 419 108 424 108 438 c 0
 108 569 214 716 355 716 c 0xe7
 418 716 456 676 470 676 c 0
 476 676 479 682 487 688 c 0
 505 702 553 737 603 737 c 0xd7
 618 737 639 736 646 736 c 0
 672 736 672 754 695 754 c 0xcf
 705 754 707 735 707 725 c 0
 707 710 705 671 705 580 c 2
 705 524 l 2
 705 474 703 483 703 412 c 0
 703 366 706 229 706 183 c 0
 706 64 709 66 714 56 c 0
 734 14 789 37 789 10 c 0
 789 -1 784 -3 765 -3 c 0
 744 -3 696 0 665 0 c 0
 619 0 613 -3 591 -3 c 0
 580 -3 575 3 575 6 c 0
 575 31 632 9 632 89 c 0
 632 477 629 418 629 639 c 0
 629 686 584 687 561 687 c 0
 542 687 517 679 503 668 c 0
 454 631 443 516 443 451 c 0
 443 423 445 419 448 419 c 0
 454 419 498 420 510 420 c 0
 566 420 561 441 585 441 c 0
 588 441 589 437 589 433 c 0
 589 416 572 380 556 380 c 0
 509 380 520 381 458 381 c 0
 439 381 439 376 439 129 c 0
 439 45 463 31 485 28 c 0
 505 25 525 23 525 4 c 0
 525 0 524 -3 514 -3 c 0
 511 -3 441 1 418 1 c 0
 388 1 345 -5 334 -5 c 0
 321 -5 315 3 315 11 c 0
 315 41 370 0 370 78 c 0
 370 92 370 117 370 163 c 2
 370 203 l 2
 370 241 369 304 369 371 c 0
 369 382 365 383 354 383 c 0
 306 383 282 381 256 381 c 0
 237 381 213 380 192 380 c 0
 183 380 178 375 178 366 c 2
 178 249 l 2
 178 222 179 198 179 178 c 2
 179 122 l 2
 179 69 183 60 194 43 c 0
 204 27 264 25 264 10 c 0
 264 5 258 -1 250 -1 c 0
 247 -1 170 0 147 0 c 0
 117 0 106 -6 79 -6 c 0
 69 -6 55 -4 55 11 c 0
 55 20 61 23 70 25 c 0
 87 28 108 20 108 77 c 0
 108 105 108 174 108 362 c 0
 108 374 102 377 89 377 c 2
 47 377 l 2
 28 377 28 388 28 394 c 0xd7
179 433 m 0
 179 422 181 419 191 419 c 2
 233 419 l 2
 354 419 345 419 355 419 c 0
 367 419 373 420 373 438 c 0
 373 550 417 600 417 617 c 0
 417 635 350 675 315 675 c 0
 284 675 270 664 250 644 c 0
 211 606 179 535 179 433 c 0
EndSplineSet
Ligature2: "liga subtable" f f l
LCarets2: 2 0 0 
EndChar

StartChar: c_t
Encoding: 65541 -1 58
Width: 776
VWidth: 0
Flags: HW
PickledData: "(dp1
Vspacing_anchors_slanted
p2
I00
s."
HStem: -19 50<198.95 337.258 605.67 711.167> 368 45<591.343 748.341> 379 44<178.104 317.059> 540 31<396.089 533.207>
VStem: 39 63<133.696 276.522> 327 18<428.922 488.564> 510 72<52.7085 364.75> 552 39<447.099 524.613>
AnchorPoint: "r;o" 771 220 basechar 0
AnchorPoint: "r;x" 776 415 basechar 0
AnchorPoint: "r;bl" 771 20 basechar 0
AnchorPoint: "l;o" 0 221 basechar 0
LayerCount: 3
Fore
SplineSet
39 192 m 0xbd
 39 268 90 339 146 382 c 0
 182 410 226 423 271 423 c 0
 302 423 317 421 324 421 c 0
 326 421 327 421 327 424 c 0
 327 427 321 455 321 467 c 0
 321 489 331 571 462 571 c 0
 563 571 587 506 587 498 c 0
 587 480 591 448 591 429 c 0xbd
 591 415 591 413 616 413 c 2
 634 413 l 2
 658 413 675 413 689 413 c 0
 731 413 738 429 750 429 c 0
 757 429 760 424 760 418 c 0
 760 408 738 367 730 367 c 0
 657 368 608 368 607 368 c 0
 583 368 583 367 583 345 c 0
 583 288 582 211 582 151 c 0
 582 68 594 32 669 32 c 0
 705 32 731 53 742 53 c 0
 749 53 752 46 752 42 c 0
 752 27 704 -15 645 -15 c 0
 518 -15 510 63 510 102 c 2
 510 117 l 2xde
 510 189 514 316 514 337 c 0
 514 365 505 365 491 365 c 0
 481 365 483 364 471 364 c 0
 462 364 456 365 456 373 c 0
 456 387 552 437 552 491 c 0
 552 525 515 540 473 540 c 0
 407 540 345 511 345 458 c 0
 345 425 379 402 380 394 c 0
 381 382 383 366 383 349 c 0
 383 326 383 314 375 314 c 0
 361 314 367 321 350 335 c 0
 327 355 291 379 212 379 c 0
 188 379 102 363 102 224 c 0
 102 149 153 31 285 31 c 0
 363 31 403 76 416 76 c 0
 422 76 426 68 426 63 c 0
 426 54 334 -19 246 -19 c 0
 122 -19 39 58 39 192 c 0xbd
EndSplineSet
Ligature2: "dlig subtable" c t
LCarets2: 1 0 
EndChar

StartChar: period
Encoding: 46 46 59
Width: 252
VWidth: 0
Flags: HW
PickledData: "(dp1
Vspacing_anchors_slanted
p2
I00
s."
HStem: -16 145<98.5656 151.552>
VStem: 54 144<29.9968 81.7188>
AnchorPoint: "l;bl" 0 20 basechar 0
AnchorPoint: "l;o" 27 220 basechar 0
AnchorPoint: "r;bl" 252 20 basechar 0
AnchorPoint: "r;o" 225 220 basechar 0
LayerCount: 3
Fore
SplineSet
54 55 m 0
 54 64 69 80 85 94 c 0
 98 106 108 129 127 129 c 0
 135 129 152 109 168 90 c 0
 177 80 198 65 198 55 c 0
 198 43 178 33 163 19 c 0
 151 7 139 -16 125 -16 c 0
 109 -16 98 11 85 21 c 0
 68 33 54 45 54 55 c 0
EndSplineSet
AlternateSubs2: "'aalt' Access All Alternates lookup 0 subtable" period.sub period.sup period.denom period.numer
AlternateSubs2: "'aalt' Access All Alternates in Latin lookup 0 subtable" period.sub period.sup period.denom period.numer
Substitution2: "'subs' Subscript in Latin lookup 8 subtable" period.sub
Substitution2: "'sups' Superscript in Latin lookup 7 subtable" period.sup
Substitution2: "'dnom' Denominators in Latin lookup 4 subtable" period.denom
Substitution2: "'numr' Numerators in Latin lookup 3 subtable" period.numer
Substitution2: "denominators subtable" period.denom
Substitution2: "numerators subtable" period.numer
EndChar

StartChar: f_j
Encoding: 65542 -1 60
Width: 522
VWidth: 0
Flags: HW
PickledData: "(dp1
Vspacing_anchors_slanted
p2
I00
s."
HStem: -200 49<293.5 358.57> -5 21G<68.5 86 241.5 248> 381 33<29.3424 107.811 181 355.003> 420 20G<415.5 436.5> 682 53<270.21 389.858>
VStem: 108 67<36.8818 374.865 415.044 549.498> 368 70<-104.241 372.268>
AnchorPoint: "r;bl" 522 20 basechar 0
AnchorPoint: "r;x" 522 415 basechar 0
AnchorPoint: "r;o" 522 220 basechar 0
AnchorPoint: "r;lo" 469 -205 basechar 0
AnchorPoint: "l;t" 29 562 basechar 0
AnchorPoint: "l;hi" 59 732 basechar 0
AnchorPoint: "l;o" 0 220 basechar 0
AnchorPoint: "l;x" 0 415 basechar 0
AnchorPoint: "l;bl" 0 20 basechar 0
AnchorPoint: "r;hi" 503 732 basechar 0
AnchorPoint: "r;t" 503 562 basechar 0
LayerCount: 3
Fore
SplineSet
29 390 m 0
 29 401 30 416 51 416 c 0
 59 416 84 415 92 415 c 0
 109 415 112 424 112 438 c 0
 112 644 254 735 363 735 c 0
 415 735 426 711 426 697 c 0
 426 694 415 630 400 630 c 0
 392 630 391 643 374 654 c 0
 357 665 335 682 293 682 c 0
 276 682 255 678 236 657 c 0
 209 627 179 546 179 435 c 0
 179 416 181 414 209 414 c 0
 222 414 242 414 269 414 c 0
 392 414 401 440 430 440 c 0
 443 440 444 430 444 410 c 0
 444 384 438 341 438 283 c 2
 438 35 l 2
 438 -59 411 -200 306 -200 c 0
 281 -200 267 -193 267 -173 c 0
 267 -162 265 -148 265 -137 c 0
 265 -120 270 -108 287 -108 c 0
 308 -108 328 -151 344 -151 c 0
 361 -151 368 -117 368 10 c 2
 368 321 l 2
 368 348 366 378 316 378 c 0
 260 378 227 381 207 381 c 0
 187 381 181 378 181 368 c 0
 177 258 175 221 175 188 c 0
 175 165 176 143 176 98 c 0
 176 -8 263 42 263 4 c 0
 263 0 253 -5 243 -5 c 0
 240 -5 175 -1 152 -1 c 0
 119 -1 95 -3 77 -3 c 0
 60 -3 53 -3 53 9 c 0
 53 30 107 7 107 75 c 0
 107 103 108 171 108 359 c 0
 108 374 107 375 94 375 c 0
 83 375 68 376 51 376 c 0
 32 376 29 380 29 390 c 0
EndSplineSet
Ligature2: "liga subtable" f j
LCarets2: 1 0 
EndChar

StartChar: f_f_j
Encoding: 65543 -1 61
Width: 787
VWidth: 0
Flags: HW
PickledData: "(dp1
Vspacing_anchors_slanted
p2
I00
s."
HStem: -200 49<557.5 622.839> -4 21G<74.5 91.5> -3 24<317.01 360.477> -1 29<456.109 524.315> 379 38<28.0391 107.956 178.005 371.875 442.103 626.22> 675 41<269.47 376.173> 686 52<531.074 628.315>
VStem: 108 70<42.7919 377.965 418.034 540.952> 372 67<37.5293 377.956 418.04 552.977> 632 70<-104.241 373.546>
AnchorPoint: "r;bl" 787 20 basechar 0
AnchorPoint: "r;x" 787 415 basechar 0
AnchorPoint: "r;o" 787 220 basechar 0
AnchorPoint: "r;lo" 733 -205 basechar 0
AnchorPoint: "l;t" 29 562 basechar 0
AnchorPoint: "l;hi" 59 732 basechar 0
AnchorPoint: "l;o" 0 220 basechar 0
AnchorPoint: "l;x" 0 415 basechar 0
AnchorPoint: "l;bl" 0 20 basechar 0
AnchorPoint: "r;hi" 767 732 basechar 0
AnchorPoint: "r;t" 767 562 basechar 0
LayerCount: 3
Fore
SplineSet
28 394 m 0xc9c0
 28 413 29 418 62 418 c 2
 91 418 l 2
 108 418 110 424 110 438 c 0
 110 594 233 716 355 716 c 0xcdc0
 422 716 462 671 468 671 c 0
 476 671 528 738 610 738 c 0
 641 738 687 734 687 704 c 0
 687 685 677 637 663 637 c 0
 648 637 630 686 562 686 c 0
 472 686 442 575 442 428 c 0
 442 420 442 417 450 417 c 0
 465 417 478 417 491 417 c 0
 558 417 586 420 618 420 c 0
 666 420 671 446 694 446 c 0
 700 446 706 441 706 427 c 0
 706 420 702 373 702 359 c 2
 702 35 l 2
 702 -59 675 -200 570 -200 c 0
 545 -200 531 -193 531 -173 c 0
 531 -162 529 -148 529 -137 c 0
 529 -120 534 -108 551 -108 c 0
 572 -108 592 -151 608 -151 c 0
 629 -151 631 -111 631 50 c 0
 631 86 632 136 632 206 c 2
 632 324 l 2
 632 378 618 379 535 379 c 0
 488 379 518 378 456 378 c 0
 441 378 439 376 439 268 c 0
 439 228 441 191 441 115 c 0
 441 49 457 34 477 28 c 0
 498 21 525 22 525 11 c 0
 525 2 524 -1 513 -1 c 0x9bc0
 490 -1 417 2 411 2 c 0
 390 2 384 -3 340 -3 c 0
 331 -3 317 -2 317 9 c 0
 317 16 326 20 332 21 c 0xa9c0
 368 29 372 23 372 171 c 0
 372 217 372 278 372 359 c 0
 372 374 372 380 354 380 c 0
 258 380 353 378 193 378 c 0
 181 378 178 375 178 366 c 0
 178 147 178 220 178 122 c 0
 178 69 186 59 199 42 c 0
 210 27 264 25 264 10 c 0
 264 5 258 -2 250 -2 c 0
 247 -2 174 3 151 3 c 0
 133 3 102 -4 81 -4 c 0
 68 -4 58 -1 58 8 c 0
 58 31 108 12 108 77 c 0
 108 105 108 174 108 362 c 0
 108 377 102 379 89 379 c 2
 48 379 l 2
 28 379 28 388 28 394 c 0xc9c0
178 431 m 0
 178 419 185 417 220 417 c 0
 247 417 293 418 364 418 c 0
 374 418 375 424 375 438 c 0
 375 556 417 596 417 613 c 0
 417 632 354 675 325 675 c 0
 237 675 178 564 178 431 c 0
EndSplineSet
Ligature2: "liga subtable" f f j
LCarets2: 2 0 0 
EndChar

StartChar: f_b
Encoding: 65544 -1 62
Width: 836
VWidth: 0
Flags: HW
PickledData: "(dp1
Vspacing_anchors_slanted
p2
I00
s."
HStem: -11 36<516.681 660.093> -5 38<56.525 103.932> -3 24<204.464 260.75> 380 38<28.4653 107.898 182.48 313.765> 388 54<504.241 635.343> 685 49<263.046 370.546> 730 20G<426.5 443>
VStem: 109 69<36.1174 379.998 418.01 550.352> 363 81<85.766 321.248> 373 71<106.529 350.607 375.004 670.858> 732 65<135.537 281.751>
AnchorPoint: "l;t" 29 562 basechar 0
AnchorPoint: "l;hi" 59 732 basechar 0
AnchorPoint: "l;o" 0 220 basechar 0
AnchorPoint: "l;x" 0 415 basechar 0
AnchorPoint: "l;bl" 0 20 basechar 0
AnchorPoint: "r;o" 836 220 basechar 0
LayerCount: 3
Fore
SplineSet
28 390 m 0x5160
 28 415 35 419 67 419 c 0
 80 419 98 418 104 418 c 0
 109 418 112 422 112 433 c 0
 112 639 260 734 336 734 c 0x5560
 350 734 372 732 382 732 c 0
 417 732 415 750 438 750 c 0
 448 750 449 736 449 726 c 0
 449 701 444 721 444 392 c 0
 444 380 445 375 451 375 c 0
 465 375 479 442 604 442 c 0
 743 442 797 329 797 235 c 0
 797 182 768 80 706 33 c 0x4b60
 669 5 623 -11 567 -11 c 0
 474 -11 427 47 420 47 c 0
 409 47 396 -17 371 -17 c 0
 361 -17 359 -13 359 -4 c 0
 359 20 363 72 363 78 c 0x81a0
 363 154 372 229 372 342 c 0
 372 422 373 559 373 614 c 0
 373 684 323 685 300 685 c 0
 281 685 264 679 250 668 c 0
 201 631 182 516 182 451 c 0
 182 440 183 417 187 417 c 0
 226 417 222 418 249 418 c 0
 301 418 302 438 321 438 c 0
 326 438 328 434 328 430 c 0
 328 419 308 380 286 380 c 0
 239 380 258 380 196 380 c 0
 187 380 180 375 180 366 c 0
 180 359 178 235 178 157 c 2
 178 129 l 2
 178 30 198 31 245 21 c 0
 261 18 261 11 261 4 c 0
 261 0 260 -3 250 -3 c 0x3560
 247 -3 197 3 174 3 c 0
 144 3 87 -5 76 -5 c 0
 67 -5 56 0 56 11 c 0
 56 27 86 21 95 33 c 0
 102 41 109 58 109 88 c 0
 109 116 108 171 108 359 c 0
 108 377 106 380 92 380 c 0
 81 380 68 379 51 379 c 0
 30 379 28 384 28 390 c 0x5160
444 132 m 2x89a0
 444 109 488 25 590 25 c 0
 687 25 732 102 732 185 c 0
 732 282 670 388 556 388 c 0
 527 388 497 378 476 360 c 0
 447 336 444 325 444 313 c 2
 444 132 l 2x89a0
EndSplineSet
Ligature2: "liga subtable" f b
LCarets2: 1 0 
EndChar

StartChar: f_f_b
Encoding: 65545 -1 63
Width: 1095
VWidth: 0
Flags: HMW
PickledData: "(dp1
Vspacing_anchors_slanted
p2
I00
s."
HStem: -11 36<775.681 919.093> -3 31<55.0904 103.573 457.154 523.022> 377 42<28.041 108 179.04 368.875 443.299 576.345> 388 54<759.132 895.092> 675 41<267.1 374.946> 687 50<528.696 634.054> 734 20G<683.5 700>
VStem: 108 71<37.2038 376.807 419 541.83> 370 69<40.3207 364.585 419.003 550.352> 622 81<85.766 321.248> 631 72<106.529 351.582 375.007 677.302> 991 65<135.537 282.919>
AnchorPoint: "l;t" 29 562 basechar 0
AnchorPoint: "l;hi" 59 732 basechar 0
AnchorPoint: "l;o" 0 220 basechar 0
AnchorPoint: "l;x" 0 415 basechar 0
AnchorPoint: "l;bl" 0 20 basechar 0
AnchorPoint: "r;o" 1095 220 basechar 0
LayerCount: 3
Fore
SplineSet
28 394 m 0xa1b0
 28 413 29 419 62 419 c 0
 68 419 83 419 91 419 c 0
 108 419 108 424 108 438 c 0
 108 569 214 716 355 716 c 0xa9b0
 418 716 456 676 470 676 c 0
 476 676 479 682 487 688 c 0
 505 702 553 737 603 737 c 0x05b0
 618 737 639 736 646 736 c 0
 672 736 672 754 695 754 c 0
 705 754 707 735 707 725 c 0
 707 720 703 724 703 411 c 0x03b0
 703 385 705 375 710 375 c 0
 726 375 726 442 868 442 c 0
 994 442 1056 336 1056 235 c 0
 1056 182 1027 80 965 33 c 0
 928 5 882 -11 826 -11 c 0
 733 -11 686 47 679 47 c 0
 668 47 655 -17 630 -17 c 0
 620 -17 618 -13 618 -4 c 0
 618 20 622 72 622 78 c 0x93d0
 622 154 631 229 631 342 c 2
 631 507 l 2
 631 560 629 573 629 639 c 0
 629 686 584 687 561 687 c 0
 542 687 517 679 503 668 c 0
 454 631 443 516 443 451 c 0
 443 423 445 419 448 419 c 0
 454 419 498 420 510 420 c 0
 566 420 561 441 585 441 c 0
 588 441 589 437 589 433 c 0
 589 416 572 380 556 380 c 0
 509 380 520 381 458 381 c 0
 439 381 439 376 439 129 c 0
 439 45 463 31 485 28 c 0
 505 25 525 23 525 4 c 0
 525 0 524 -3 514 -3 c 0x65b0
 511 -3 441 1 418 1 c 0
 388 1 345 -5 334 -5 c 0
 321 -5 315 3 315 11 c 0
 315 41 370 0 370 78 c 0
 370 92 370 117 370 163 c 2
 370 203 l 2
 370 241 369 303 369 370 c 0
 369 381 365 381 354 381 c 0
 306 381 282 381 256 381 c 0
 237 381 213 380 192 380 c 0
 183 380 178 375 178 366 c 2
 178 249 l 2
 178 222 179 198 179 178 c 2
 179 122 l 2
 179 69 183 60 194 43 c 0
 204 27 264 25 264 10 c 0
 264 5 258 -1 250 -1 c 0
 247 -1 170 0 147 0 c 0
 117 0 108 -6 79 -6 c 0
 69 -6 55 -4 55 11 c 0
 55 20 61 23 70 25 c 0
 87 28 108 20 108 77 c 0
 108 105 108 174 108 362 c 0
 108 374 102 377 89 377 c 2
 60 377 l 2
 34 377 28 378 28 394 c 0xa1b0
179 433 m 0
 179 422 181 419 191 419 c 2
 357 419 l 2
 368 419 373 419 373 436 c 0
 373 548 417 600 417 617 c 0
 417 635 350 675 315 675 c 0
 284 675 270 664 250 644 c 0
 211 606 179 535 179 433 c 0
703 132 m 2x91d0
 703 109 747 25 849 25 c 0
 946 25 991 102 991 185 c 0
 991 282 928 388 814 388 c 0
 785 388 755 378 734 360 c 0
 705 336 703 325 703 313 c 2
 703 132 l 2x91d0
EndSplineSet
Ligature2: "liga subtable" f f b
LCarets2: 2 0 0 
EndChar

StartChar: f_h
Encoding: 65546 -1 64
Width: 864
VWidth: 0
Flags: HW
PickledData: "(dp1
Vspacing_anchors_slanted
p2
I00
s."
HStem: 0 30<57.587 101.934 457.265 526.649 771.461 843.732> 0 23<201.864 260.156 312.048 347.926> 380 38<28.4653 107.898 182.48 313.765> 388 46<511.055 623.558> 685 49<263.046 370.546> 730 20G<426.5 443>
VStem: 109 69<36.1174 379.998 418.01 550.352> 373 76<490.268 670.858> 373 64<42.0898 344.469 360.006 608.827> 685 72<39.377 321.496>
AnchorPoint: "r;o" 854 220 basechar 0
AnchorPoint: "r;x" 854 415 basechar 0
AnchorPoint: "r;bl" 864 20 basechar 0
AnchorPoint: "l;t" 29 562 basechar 0
AnchorPoint: "l;hi" 59 732 basechar 0
AnchorPoint: "l;o" 0 220 basechar 0
AnchorPoint: "l;x" 0 415 basechar 0
AnchorPoint: "l;bl" 0 20 basechar 0
LayerCount: 3
Fore
SplineSet
28 390 m 0x6b40
 28 415 35 419 67 419 c 0
 80 419 98 418 104 418 c 0
 109 418 112 422 112 433 c 0
 112 639 260 734 336 734 c 0x6b40
 350 734 372 732 382 732 c 0
 417 732 415 750 438 750 c 0
 448 750 449 736 449 726 c 0x0740
 449 724 437 383 437 380 c 0x26c0
 437 368 441 360 446 360 c 0
 456 360 503 434 586 434 c 0
 689 434 757 376 757 237 c 2
 757 92 l 2
 757 77 763 37 791 34 c 0
 821 31 844 25 844 13 c 0
 844 0 829 -3 813 -3 c 0
 801 -3 750 2 729 2 c 0
 713 2 660 -1 652 -1 c 0
 639 -1 629 1 629 9 c 0
 629 42 683 4 683 72 c 0
 683 89 685 72 685 238 c 0
 685 320 627 388 561 388 c 0
 523 388 487 367 464 349 c 0
 440 330 437 310 437 164 c 2
 437 141 l 2
 437 93 439 46 476 30 c 0
 497 21 527 30 527 12 c 0
 527 6 522 0 516 0 c 0x92c0
 515 0 415 5 410 5 c 0
 396 5 353 0 338 0 c 0
 310 0 312 4 312 10 c 0
 312 15 313 20 324 23 c 0
 365 35 369 60 369 100 c 2
 373 441 l 2x42c0
 373 461 374 475 374 490 c 0
 374 516 373 568 373 614 c 0
 373 684 323 685 300 685 c 0
 281 685 264 679 250 668 c 0
 201 631 182 516 182 451 c 0
 182 440 183 417 187 417 c 0
 226 417 222 418 249 418 c 0
 301 418 302 438 321 438 c 0
 326 438 328 434 328 430 c 0
 328 419 308 380 286 380 c 0
 239 380 258 380 196 380 c 0
 187 380 180 375 180 366 c 0
 180 359 178 235 178 157 c 2
 178 129 l 2
 178 30 198 31 245 21 c 0
 261 18 261 11 261 4 c 0
 261 0 260 -3 250 -3 c 0
 247 -3 197 3 174 3 c 0
 144 3 87 -4 76 -4 c 0
 57 -4 56 5 56 9 c 0
 56 27 85 21 95 33 c 0
 102 41 109 58 109 88 c 0
 109 116 108 171 108 359 c 0
 108 377 106 380 92 380 c 0
 81 380 68 379 51 379 c 0
 30 379 28 384 28 390 c 0x6b40
EndSplineSet
Ligature2: "liga subtable" f h
LCarets2: 1 0 
EndChar

StartChar: f_f_h
Encoding: 65547 -1 65
Width: 1126
VWidth: 0
Flags: HW
PickledData: "(dp1
Vspacing_anchors_slanted
p2
I00
s."
HStem: -5 21G<327.5 339.5> 0 30<456.281 521.562 719.265 788.649 1033.67 1105.73> 0 23<55.2381 99.2787 574.048 609.799> 381 38<28.1074 108 179.04 368.777 443.299 570.82> 388 46<773.512 886.058> 675 41<267.1 374.946> 687 50<528.696 633.642> 734 20G<683.5 700>
VStem: 108 71<37.6272 376.807 419 541.83> 370 69<40.3207 364.585 419.003 554.305> 633 66<42.0898 342.474 360.007 610.371> 947 73<38.1094 321.496>
AnchorPoint: "r;o" 1117 220 basechar 0
AnchorPoint: "r;x" 1117 415 basechar 0
AnchorPoint: "r;bl" 1126 20 basechar 0
AnchorPoint: "l;t" 29 562 basechar 0
AnchorPoint: "l;hi" 59 732 basechar 0
AnchorPoint: "l;o" 0 220 basechar 0
AnchorPoint: "l;x" 0 415 basechar 0
AnchorPoint: "l;bl" 0 20 basechar 0
LayerCount: 3
Fore
SplineSet
28 394 m 0x30f0
 28 413 29 419 62 419 c 0
 68 419 83 419 91 419 c 0
 108 419 108 424 108 438 c 0
 108 569 214 716 355 716 c 0x34f0
 418 716 456 676 470 676 c 0
 476 676 479 682 487 688 c 0
 505 702 553 737 603 737 c 0x02f0
 618 737 639 736 646 736 c 0
 672 736 672 754 695 754 c 0
 705 754 707 735 707 725 c 2
 707 699 l 2
 707 664 703 384 699 382 c 1
 699 369 702 360 708 360 c 0
 718 360 766 434 849 434 c 0
 952 434 1020 376 1020 237 c 2
 1020 92 l 2
 1020 77 1025 37 1053 34 c 0
 1083 31 1106 25 1106 13 c 0
 1106 0 1091 -3 1075 -3 c 0
 1063 -3 1013 2 992 2 c 0
 976 2 923 -1 915 -1 c 0
 902 -1 892 1 892 9 c 0
 892 42 945 4 945 72 c 0
 945 89 947 72 947 238 c 0
 947 320 889 388 823 388 c 0
 778 388 708 350 703 310 c 0
 700 284 699 211 699 164 c 2
 699 141 l 2
 699 93 701 46 738 30 c 0
 759 21 789 30 789 12 c 0
 789 6 784 0 778 0 c 0x49f0
 777 0 677 5 672 5 c 0
 658 5 616 0 601 0 c 0
 573 0 574 4 574 10 c 0
 574 15 575 20 586 23 c 0
 627 35 631 60 631 100 c 0
 632 246 633 345 633 413 c 0
 633 596 633 562 629 639 c 0
 627 686 584 687 561 687 c 0
 542 687 517 679 503 668 c 0
 454 631 443 516 443 451 c 0
 443 423 445 419 448 419 c 0x32f0
 454 419 498 420 510 420 c 0
 562 420 567 442 583 442 c 0
 586 442 589 440 589 434 c 0x08f0
 589 418 573 380 556 380 c 0
 509 380 520 381 458 381 c 0
 439 381 439 376 439 129 c 0
 439 45 463 31 485 28 c 0
 505 25 525 23 525 4 c 0
 525 0 524 -3 514 -3 c 0
 511 -3 441 1 418 1 c 0
 388 1 345 -5 334 -5 c 0x90f0
 321 -5 315 3 315 11 c 0
 315 41 370 0 370 78 c 0
 370 92 370 117 370 163 c 2
 370 203 l 2
 370 241 369 304 369 371 c 0
 369 382 365 383 354 383 c 0
 306 383 282 381 256 381 c 0
 237 381 213 380 192 380 c 0
 183 380 178 375 178 366 c 2
 178 249 l 2
 178 222 179 198 179 178 c 2
 179 122 l 2
 179 69 183 60 194 43 c 0
 204 27 264 33 264 10 c 0
 264 5 258 -1 250 -1 c 0
 247 -1 170 0 147 0 c 0
 121 0 115 -4 83 -4 c 0
 64 -4 55 -4 55 9 c 0
 55 18 61 21 70 23 c 0
 87 26 108 20 108 77 c 0
 108 105 108 174 108 362 c 0
 108 374 102 377 89 377 c 2
 47 377 l 2
 28 377 28 388 28 394 c 0x30f0
179 433 m 0
 179 422 181 419 191 419 c 2
 233 419 l 2
 354 419 345 419 355 419 c 0
 367 419 373 420 373 438 c 0
 373 550 417 600 417 617 c 0
 417 635 350 675 315 675 c 0
 284 675 270 664 250 644 c 0
 211 606 179 535 179 433 c 0
EndSplineSet
Ligature2: "liga subtable" f f h
LCarets2: 2 0 0 
EndChar

StartChar: f_k
Encoding: 65548 -1 66
Width: 830
VWidth: 0
Flags: HW
PickledData: "(dp1
Vspacing_anchors_slanted
p2
I00
s."
HStem: -5 38<56.525 104.376> -3 26<201.864 260.638> 200 21<453.542 465.076> 380 39<28.4651 107.781 182.48 313.705> 404 20G<745.5 763> 685 49<262.91 370.148> 730 20G<426.5 443>
VStem: 109 69<37.3498 379.996 419.195 550.352> 371 70<38.4062 197.858 221.015 517.75> 373 76<490.902 671.594>
AnchorPoint: "r;bl" 830 20 basechar 0
AnchorPoint: "r;x" 811 415 basechar 0
AnchorPoint: "r;o" 811 220 basechar 0
AnchorPoint: "l;t" 29 562 basechar 0
AnchorPoint: "l;hi" 59 732 basechar 0
AnchorPoint: "l;o" 0 220 basechar 0
AnchorPoint: "l;x" 0 415 basechar 0
AnchorPoint: "l;bl" 0 20 basechar 0
LayerCount: 3
Fore
SplineSet
28 390 m 0xb140
 28 419 36 419 66 419 c 2
 98 419 l 2
 109 419 112 422 112 434 c 0
 112 640 260 734 336 734 c 0xb540
 350 734 372 732 382 732 c 0
 417 732 415 750 438 750 c 0
 448 750 449 736 449 726 c 0x2340
 449 682 441 362 441 284 c 2
 441 263 l 2
 441 242 442 221 445 221 c 0
 459 221 465 233 478 244 c 0
 611 350 618 365 618 371 c 0
 618 395 573 392 573 410 c 0
 573 416 576 420 585 420 c 0
 653 420 737 424 754 424 c 0
 772 424 776 421 776 415 c 0
 776 394 744 410 682 369 c 0
 671 362 668 360 648 344 c 0
 539 261 539 262 539 250 c 0
 539 243 543 236 549 228 c 0
 621 140 674 88 706 60 c 0
 770 4 812 37 812 13 c 0
 812 -4 799 -5 771 -5 c 0xab80
 758 -5 677 -3 667 -3 c 0
 637 -3 514 155 482 194 c 0
 479 198 475 200 471 200 c 0
 455 200 440 174 440 154 c 0
 440 149 441 144 441 137 c 0
 445 43 442 66 459 42 c 0
 474 20 525 29 525 10 c 0
 525 -3 500 -3 494 -3 c 0
 484 -3 439 0 407 0 c 0
 378 0 380 -4 337 -4 c 0
 324 -4 313 -3 313 8 c 0
 313 26 357 18 364 48 c 0
 368 66 370 94 370 117 c 0
 370 136 371 153 371 161 c 2x6180
 372 584 l 2
 372 603 373 613 373 620 c 0
 373 683 319 685 302 685 c 0
 281 685 265 679 250 668 c 0
 201 631 182 516 182 451 c 0
 182 440 183 417 187 417 c 0
 229 417 255 417 276 420 c 0
 287 421 310 438 321 438 c 0
 326 438 328 434 328 430 c 0
 328 419 308 380 286 380 c 0
 239 380 258 380 196 380 c 0
 187 380 180 375 180 366 c 0
 180 359 178 235 178 157 c 2
 178 129 l 2
 178 30 198 33 245 23 c 0
 261 20 261 11 261 4 c 0
 261 0 260 -3 250 -3 c 0x7540
 247 -3 197 1 174 1 c 0
 144 1 87 -5 76 -5 c 0
 67 -5 56 0 56 11 c 0
 56 27 86 21 95 33 c 0
 102 41 109 58 109 88 c 0
 109 116 108 171 108 359 c 0
 108 374 102 380 89 380 c 0
 78 380 68 379 51 379 c 0
 30 379 28 384 28 390 c 0xb140
EndSplineSet
Ligature2: "liga subtable" f k
LCarets2: 1 0 
EndChar

StartChar: f_f_k
Encoding: 65549 -1 67
Width: 1090
VWidth: 0
Flags: HW
PickledData: "(dp1
Vspacing_anchors_slanted
p2
I00
s."
HStem: -5 27<55.1597 99.8771 465.629 524.489 573.127 615.329> 199 21<713.814 725.414> 381 38<28.1074 108 179.04 368.777 443.299 571.031> 675 41<267.1 374.946> 687 50<528.696 634.005> 734 20G<683.5 700>
VStem: 108 71<37.2038 376.807 419 541.83> 370 69<40.3207 364.585 419.003 554.305> 631 71<37.2019 196.983 220.015 677.788>
AnchorPoint: "r;o" 1071 220 basechar 0
AnchorPoint: "r;x" 1071 415 basechar 0
AnchorPoint: "r;bl" 1090 20 basechar 0
AnchorPoint: "l;t" 29 562 basechar 0
AnchorPoint: "l;hi" 59 732 basechar 0
AnchorPoint: "l;o" 0 220 basechar 0
AnchorPoint: "l;x" 0 415 basechar 0
AnchorPoint: "l;bl" 0 20 basechar 0
LayerCount: 3
Fore
SplineSet
28 394 m 0xeb80
 28 413 29 419 62 419 c 0
 68 419 83 419 91 419 c 0
 108 419 108 424 108 438 c 0
 108 569 214 716 355 716 c 0xf380
 418 716 456 676 470 676 c 0
 476 676 479 682 487 688 c 0
 505 702 553 737 603 737 c 0xeb80
 618 737 639 736 646 736 c 0
 672 736 672 754 695 754 c 0xe780
 705 754 707 735 707 725 c 0
 707 710 705 677 705 488 c 0
 705 420 702 351 702 283 c 2
 702 262 l 2
 702 241 703 220 706 220 c 0
 720 220 725 232 738 243 c 0
 871 349 878 364 878 370 c 0
 878 394 833 391 833 409 c 0
 833 415 836 419 845 419 c 0
 920 419 962 423 1006 423 c 0
 1030 423 1036 421 1036 414 c 0
 1036 394 1006 409 946 371 c 0
 936 365 937 364 899 336 c 0
 799 260 799 262 799 250 c 0
 799 243 804 235 810 227 c 0
 882 139 934 87 966 59 c 0
 1030 3 1072 36 1072 12 c 0
 1072 -5 1059 -5 1031 -5 c 0
 1018 -5 937 -4 927 -4 c 0
 897 -4 775 154 743 193 c 0
 740 197 735 199 731 199 c 0
 719 199 701 179 701 153 c 0
 701 148 702 143 702 136 c 0
 706 58 700 62 719 41 c 0
 739 19 790 26 790 9 c 0
 790 -5 768 -7 764 -7 c 0
 754 -7 699 -1 667 -1 c 0
 638 -1 640 -5 597 -5 c 0
 584 -5 573 -4 573 7 c 0
 573 18 590 22 591 22 c 0
 597 22 621 34 625 50 c 0
 631 74 631 142 631 160 c 0
 632 521 632 567 632 612 c 0
 632 670 618 687 561 687 c 0
 542 687 517 679 503 668 c 0
 454 631 443 516 443 451 c 0
 443 423 445 419 448 419 c 0
 454 419 498 420 510 420 c 0
 566 420 561 441 585 441 c 0
 588 441 589 437 589 433 c 0
 589 416 572 380 556 380 c 0
 509 380 520 381 458 381 c 0
 439 381 439 376 439 129 c 0
 439 45 463 31 485 28 c 0
 505 25 525 23 525 4 c 0
 525 0 524 -3 514 -3 c 0
 511 -3 441 1 418 1 c 0
 388 1 345 -5 334 -5 c 0
 321 -5 315 3 315 11 c 0
 315 41 370 0 370 78 c 0
 370 92 370 117 370 163 c 2
 370 203 l 2
 370 241 369 304 369 371 c 0
 369 382 365 383 354 383 c 0
 306 383 282 381 256 381 c 0
 237 381 213 380 192 380 c 0
 183 380 178 375 178 366 c 2
 178 249 l 2
 178 222 179 198 179 178 c 2
 179 122 l 2
 179 69 183 60 194 43 c 0
 204 27 264 25 264 10 c 0
 264 5 258 -1 250 -1 c 0
 247 -1 170 0 147 0 c 0
 117 0 113 -6 79 -6 c 0
 69 -6 55 -4 55 11 c 0
 55 20 61 23 70 25 c 0
 87 28 108 20 108 77 c 0
 108 105 108 174 108 362 c 0
 108 374 102 377 89 377 c 2
 47 377 l 2
 28 377 28 388 28 394 c 0xeb80
179 433 m 0
 179 422 181 419 191 419 c 2
 233 419 l 2
 354 419 345 419 355 419 c 0
 367 419 373 420 373 438 c 0
 373 550 417 600 417 617 c 0
 417 635 350 675 315 675 c 0
 284 675 270 664 250 644 c 0
 211 606 179 535 179 433 c 0
EndSplineSet
Ligature2: "liga subtable" f f k
LCarets2: 2 0 0 
EndChar

StartChar: bullet.001
Encoding: 65550 -1 68
Width: 800
VWidth: 0
Flags: HW
PickledData: "(dp1
Vspacing_anchors_slanted
p2
I00
s."
HStem: -10 47<425.5 597.968> 187 53<607.929 664.941> 366 29<459.613 619.426> 369 40<400.974 446.486> 482 44<73.6534 119.755> 636 38<308.087 455.846> 657 26<99.8789 198.556> 692 26<622.781 657.201>
VStem: 20 44<533.941 611.308> 227 157<120 305.5> 227 44<475.013 606.775> 500 39<483.526 597.199> 669 44<82.7172 183.473> 729 51<482.993 600>
AnchorPoint: "l;bl" 0 20 basechar 0
AnchorPoint: "l;o" 0 220 basechar 0
AnchorPoint: "l;hi" 0 732 basechar 0
AnchorPoint: "l;t" 0 562 basechar 0
AnchorPoint: "l;x" 0 415 basechar 0
AnchorPoint: "r;bl" 800 20 basechar 0
AnchorPoint: "r;o" 800 220 basechar 0
AnchorPoint: "r;hi" 800 732 basechar 0
AnchorPoint: "r;t" 800 562 basechar 0
AnchorPoint: "r;x" 800 415 basechar 0
LayerCount: 3
Fore
SplineSet
20 561 m 2xdbbc
 20 576 l 2
 20 587 35 625 45 636 c 0xcdbc
 55 648 106 683 151 683 c 0xcbbc
 260 683 256 627 265 627 c 0
 273 627 301 674 398 674 c 0
 476 674 539 628 539 551 c 0
 539 471 460 416 460 404 c 0
 460 395 479 395 501 395 c 0
 551 395 601 400 617 406 c 0
 700 437 729 510 729 531 c 0
 729 561 702 562 702 562 c 1
 698 564 694 570 689 570 c 0
 686 570 683 568 680 568 c 0
 672 568 650 600 650 625 c 0
 650 644 659 664 659 671 c 0
 659 680 652 692 640 692 c 0
 638 692 635 692 633 692 c 0
 624 692 621 698 621 701 c 0
 621 714 662 718 672 718 c 0
 724 718 780 636 780 564 c 0
 780 438 649 366 527 366 c 0xedbc
 501 366 484 369 458 369 c 0
 429 369 399 366 387 320 c 0
 385 313 384 307 384 304 c 0
 384 302 387 299 392 299 c 0
 402 299 424 330 464 330 c 0
 504 330 533 296 533 256 c 0
 533 200 465 176 465 109 c 0
 465 62 524 37 573 37 c 0
 604 37 630 53 647 76 c 0
 651 81 648 88 651 94 c 0
 662 115 669 116 669 152 c 0
 669 166 653 187 635 187 c 0
 618 187 616 180 611 180 c 0
 607 180 600 187 600 202 c 0
 600 220 616 240 646 240 c 0
 689 240 713 196 713 149 c 0
 713 58 606 16 606 16 c 1
 601 14 571 -10 492 -10 c 0
 359 -10 227 37 227 203 c 0
 227 261 266 323 311 323 c 0
 332 323 339 313 356 313 c 0
 357 313 357 318 362 327 c 0
 367 337 384 359 384 367 c 0xd9dc
 384 379 298 385 250 465 c 0
 230 498 227 529 227 604 c 0
 227 634 189 657 152 657 c 0
 121 657 108 650 84 635 c 24
 76 630 81 621 78 612 c 24
 73 597 64 598 64 573 c 0
 64 553 86 526 104 526 c 2
 107 526 l 2
 120 526 122 519 122 514 c 0
 122 506 115 482 86 482 c 0
 47 482 20 522 20 561 c 2xdbbc
271 553 m 0
 271 466 338 409 410 409 c 0xddbc
 441 409 500 473 500 550 c 0
 500 608 435 636 376 636 c 0
 324 636 271 612 271 553 c 0
EndSplineSet
EndChar

StartChar: comma
Encoding: 44 44 69
Width: 250
VWidth: 0
Flags: HW
PickledData: "(dp1
Vspacing_anchors_slanted
p2
I00
s."
HStem: -166 291<104 107>
VStem: 127 69<-79.6255 4.38482>
AnchorPoint: "l;bl" 0 20 basechar 0
AnchorPoint: "l;lo" 10 -205 basechar 0
AnchorPoint: "l;o" 27 220 basechar 0
AnchorPoint: "r;bl" 250 20 basechar 0
AnchorPoint: "r;lo" 201 -205 basechar 0
AnchorPoint: "r;o" 221 220 basechar 0
LayerCount: 3
Fore
SplineSet
54 54 m 0
 54 68 70 78 85 93 c 0
 97 105 104 125 127 125 c 0
 132 125 196 87 196 0 c 0
 196 -94 107 -166 80 -166 c 0
 73 -166 65 -161 65 -153 c 0
 65 -132 127 -117 127 -48 c 0
 127 -6 103 9 71 33 c 0
 54 45 54 44 54 54 c 0
EndSplineSet
AlternateSubs2: "'aalt' Access All Alternates lookup 0 subtable" comma.sub comma.sup comma.denom comma.numer
AlternateSubs2: "'aalt' Access All Alternates in Latin lookup 0 subtable" comma.sub comma.sup comma.denom comma.numer
Substitution2: "'subs' Subscript in Latin lookup 8 subtable" comma.sub
Substitution2: "'sups' Superscript in Latin lookup 7 subtable" comma.sup
Substitution2: "'dnom' Denominators in Latin lookup 4 subtable" comma.denom
Substitution2: "'numr' Numerators in Latin lookup 3 subtable" comma.numer
Substitution2: "denominators subtable" comma.denom
Substitution2: "numerators subtable" comma.numer
EndChar

StartChar: hyphen
Encoding: 45 45 70
Width: 340
VWidth: 0
Flags: HW
PickledData: "(dp1
Vspacing_anchors_slanted
p2
I00
s."
HStem: 124 144
VStem: 44 252<191.435 200.695>
AnchorPoint: "l;o" 0 220 basechar 0
AnchorPoint: "r;o" 340 220 basechar 0
LayerCount: 3
Fore
SplineSet
44 145 m 2
 44 156 l 2
 44 198 56 199 101 212 c 0
 229 250 252 268 274 268 c 0
 292 268 296 252 296 234 c 2
 296 228 l 2
 296 189 286 196 199 168 c 0
 108 138 84 124 60 124 c 0
 45 124 44 133 44 145 c 2
EndSplineSet
AlternateSubs2: "'aalt' Access All Alternates lookup 0 subtable" hyphen.uppercase
AlternateSubs2: "'aalt' Access All Alternates in Latin lookup 0 subtable" hyphen.uppercase
Substitution2: "'case' Case-Sensitive Forms in Latin lookup 13 subtable" hyphen.uppercase
EndChar

StartChar: colon
Encoding: 58 58 71
Width: 260
VWidth: 0
Flags: HW
PickledData: "(dp1
Vspacing_anchors_slanted
p2
I00
s."
HStem: -16 21G<122 137>
VStem: 59 143<29.9968 81.7188> 66 130<311.061 364.265>
AnchorPoint: "l;bl" 0 20 basechar 0
AnchorPoint: "l;o" 10 220 basechar 0
AnchorPoint: "l;x" 0 415 basechar 0
AnchorPoint: "r;bl" 260 20 basechar 0
AnchorPoint: "r;o" 250 220 basechar 0
AnchorPoint: "r;x" 260 415 basechar 0
LayerCount: 3
Fore
SplineSet
59 55 m 0xc0
 59 64 78 80 94 94 c 0
 107 106 117 127 136 127 c 0
 144 127 156 109 172 90 c 0
 181 80 202 65 202 55 c 0
 202 43 182 33 167 19 c 0
 155 7 144 -16 130 -16 c 0
 114 -16 102 11 89 21 c 0
 72 33 59 45 59 55 c 0xc0
66 336 m 0xa0
 66 345 81 360 96 373 c 0
 109 384 116 406 134 406 c 0
 142 406 160 382 170 369 c 0
 178 359 196 349 196 335 c 0
 196 324 180 314 166 301 c 0
 154 290 146 268 130 268 c 0
 114 268 105 294 96 303 c 0
 82 317 66 327 66 336 c 0xa0
EndSplineSet
EndChar

StartChar: semicolon
Encoding: 59 59 72
Width: 262
VWidth: 0
Flags: HW
PickledData: "(dp1
Vspacing_anchors_slanted
p2
I00
s."
HStem: 273 140<100.344 152.092>
VStem: 59 134<317.645 368.367> 134 70<-78.0574 4.32937>
AnchorPoint: "l;bl" 0 20 basechar 0
AnchorPoint: "l;lo" 10 -205 basechar 0
AnchorPoint: "l;o" 10 220 basechar 0
AnchorPoint: "l;x" 0 415 basechar 0
AnchorPoint: "r;bl" 262 20 basechar 0
AnchorPoint: "r;lo" 223 -205 basechar 0
AnchorPoint: "r;o" 252 220 basechar 0
AnchorPoint: "r;x" 262 415 basechar 0
LayerCount: 3
Fore
SplineSet
59 342 m 0xc0
 59 351 75 366 90 379 c 0
 103 390 107 413 128 413 c 0
 136 413 155 388 165 375 c 0
 173 365 193 354 193 340 c 0
 193 329 177 319 163 306 c 0
 151 295 141 273 125 273 c 0
 109 273 99 300 90 309 c 0
 76 323 59 333 59 342 c 0xc0
61 54 m 0
 61 68 78 78 93 93 c 0
 105 105 111 125 134 125 c 0
 139 125 204 87 204 0 c 0
 204 -94 112 -168 85 -168 c 0
 81 -168 73 -161 73 -153 c 0
 73 -132 134 -117 134 -48 c 0xa0
 134 -10 111 9 79 33 c 0
 62 45 61 44 61 54 c 0
EndSplineSet
EndChar

StartChar: exclam
Encoding: 33 33 73
Width: 276
VWidth: 0
Flags: HW
PickledData: "(dp1
Vspacing_anchors_slanted
p2
I00
s."
HStem: -13 146<111.941 168.143>
VStem: 98 95<391.955 683.761> 127 26<199.026 323.356>
AnchorPoint: "l;bl" 0 20 basechar 0
AnchorPoint: "l;o" 0 220 basechar 0
AnchorPoint: "l;hi" 0 732 basechar 0
AnchorPoint: "l;t" 0 562 basechar 0
AnchorPoint: "l;x" 0 415 basechar 0
AnchorPoint: "r;bl" 276 20 basechar 0
AnchorPoint: "r;o" 276 220 basechar 0
AnchorPoint: "r;hi" 276 732 basechar 0
AnchorPoint: "r;t" 276 562 basechar 0
AnchorPoint: "r;x" 276 415 basechar 0
LayerCount: 3
Fore
SplineSet
68 63 m 0x80
 68 72 81 81 97 95 c 0
 110 107 123 133 142 133 c 0
 151 133 156 124 165 115 c 0
 199 79 218 79 218 62 c 0
 218 45 191 33 180 22 c 0
 168 10 157 -13 143 -13 c 0
 134 -13 111 8 101 21 c 0
 92 33 68 45 68 63 c 0x80
98 651 m 0xc0
 98 675 117 689 147 689 c 0
 176 689 193 683 193 657 c 0xc0
 193 650 191 642 188 618 c 0
 176 520 179 420 153 210 c 8
 152 203 149 199 139 199 c 0
 131 199 127 202 127 208 c 16xa0
 102 506 111 447 107 507 c 0
 102 577 98 605 98 651 c 0xc0
EndSplineSet
Position2: "'cpsp' Capital Spacing in Latin lookup 2 subtable" dx=10 dy=0 dh=20 dv=0
EndChar

StartChar: question
Encoding: 63 63 74
Width: 350
VWidth: 0
Flags: HW
PickledData: "(dp1
Vspacing_anchors_slanted
p2
I00
s."
HStem: -9 141<142.609 195.585> 628 45<108.062 198.429>
VStem: 138 35<205.341 320.234> 230 83<484.336 597.709>
AnchorPoint: "l;bl" 0 20 basechar 0
AnchorPoint: "l;o" 0 220 basechar 0
AnchorPoint: "l;hi" 0 732 basechar 0
AnchorPoint: "l;t" 0 562 basechar 0
AnchorPoint: "l;x" 0 415 basechar 0
AnchorPoint: "r;bl" 350 20 basechar 0
AnchorPoint: "r;o" 350 220 basechar 0
AnchorPoint: "r;hi" 350 732 basechar 0
AnchorPoint: "r;t" 350 562 basechar 0
AnchorPoint: "r;x" 350 415 basechar 0
LayerCount: 3
Fore
SplineSet
75 612 m 0
 75 631 120 673 179 673 c 0
 245 673 313 635 313 559 c 0
 313 461 173 357 173 251 c 0
 173 232 178 215 178 205 c 0
 178 199 176 195 170 195 c 0
 148 195 138 252 138 274 c 0
 138 345 230 485 230 548 c 0
 230 607 164 628 139 628 c 0
 109 628 92 603 84 603 c 0
 78 603 75 609 75 612 c 0
97 59 m 0
 97 68 118 87 133 100 c 1
 146 112 158 132 172 132 c 0
 182 132 203 101 207 97 c 0
 211 93 241 72 241 62 c 0
 241 45 218 37 207 26 c 0
 195 14 183 -9 170 -9 c 0
 161 -9 140 11 130 24 c 0
 121 36 97 45 97 59 c 0
EndSplineSet
Position2: "'cpsp' Capital Spacing in Latin lookup 2 subtable" dx=10 dy=0 dh=20 dv=0
EndChar

StartChar: quoteleft
Encoding: 8216 8216 75
Width: 264
VWidth: 0
Flags: HW
PickledData: "(dp1
Vspacing_anchors_slanted
p2
I00
s."
HStem: 427 286<141 182>
VStem: 73 66<498 633.234>
AnchorPoint: "r;x" 264 415 basechar 0
AnchorPoint: "r;t" 264 562 basechar 0
AnchorPoint: "r;hi" 264 732 basechar 0
AnchorPoint: "r;o" 234 220 basechar 0
AnchorPoint: "l;x" 29 415 basechar 0
AnchorPoint: "l;t" 0 562 basechar 0
AnchorPoint: "l;hi" 0 732 basechar 0
AnchorPoint: "l;o" 78 220 basechar 0
LayerCount: 3
Fore
SplineSet
73 539 m 0
 73 661 162 713 182 713 c 0
 190 713 195 704 195 701 c 0
 195 682 139 675 139 600 c 0
 139 520 208 527 208 491 c 0
 208 483 195 472 181 458 c 0
 169 446 159 427 141 427 c 0
 133 427 73 457 73 539 c 0
EndSplineSet
EndChar

StartChar: quoteright
Encoding: 8217 8217 76
Width: 264
VWidth: 0
Flags: HW
PickledData: "(dp1
Vspacing_anchors_slanted
p2
I00
s."
HStem: 427 286<82 123>
VStem: 125 65<505.974 642>
AnchorPoint: "l;o" 29 220 basechar 0
AnchorPoint: "l;hi" 0 732 basechar 0
AnchorPoint: "l;t" 0 562 basechar 0
AnchorPoint: "l;x" 0 415 basechar 0
AnchorPoint: "r;o" 176 220 basechar 0
AnchorPoint: "r;hi" 264 732 basechar 0
AnchorPoint: "r;t" 264 562 basechar 0
AnchorPoint: "r;x" 234 415 basechar 0
LayerCount: 3
Fore
SplineSet
56 649 m 0
 56 657 69 668 83 682 c 0
 95 694 105 713 123 713 c 0
 131 713 190 683 190 601 c 0
 190 479 102 427 82 427 c 0
 74 427 69 436 69 439 c 0
 69 458 125 466 125 541 c 0
 125 621 56 613 56 649 c 0
EndSplineSet
EndChar

StartChar: quotesinglbase
Encoding: 8218 8218 77
Width: 264
VWidth: 0
Flags: HW
PickledData: "(dp1
Vspacing_anchors_slanted
p2
I00
s."
HStem: -62 287<82 123>
VStem: 125 65<17.4043 154>
AnchorPoint: "l;bl" 0 20 basechar 0
AnchorPoint: "l;o" 0 220 basechar 0
AnchorPoint: "r;bl" 264 20 basechar 0
AnchorPoint: "r;o" 264 220 basechar 0
LayerCount: 3
Fore
SplineSet
56 161 m 0
 56 169 69 180 83 194 c 0
 95 206 105 225 123 225 c 0
 131 225 190 195 190 113 c 0
 190 -9 102 -62 82 -62 c 0
 74 -62 69 -52 69 -49 c 0
 69 -30 125 -23 125 52 c 0
 125 132 56 125 56 161 c 0
EndSplineSet
EndChar

StartChar: quotereversed
Encoding: 8219 8219 78
Width: 264
VWidth: 0
Flags: HW
PickledData: "(dp1
Vspacing_anchors_slanted
p2
I00
s."
HStem: 429 287<144 189>
VStem: 73 65<514.852 604.382>
AnchorPoint: "l;o" 88 220 basechar 0
AnchorPoint: "l;hi" 0 732 basechar 0
AnchorPoint: "l;t" 0 562 basechar 0
AnchorPoint: "l;x" 29 415 basechar 0
AnchorPoint: "r;o" 234 220 basechar 0
AnchorPoint: "r;hi" 264 732 basechar 0
AnchorPoint: "r;t" 264 562 basechar 0
AnchorPoint: "r;x" 264 415 basechar 0
LayerCount: 3
Fore
SplineSet
73 601 m 0
 73 683 136 716 144 716 c 0
 162 716 171 694 183 682 c 0
 197 668 208 657 208 649 c 0
 208 639 204 641 188 629 c 0
 156 606 138 585 138 544 c 0
 138 487 197 455 197 436 c 0
 197 433 194 429 189 429 c 0
 169 429 73 489 73 601 c 0
EndSplineSet
EndChar

StartChar: quotedblleft
Encoding: 8220 8220 79
Width: 459
VWidth: 0
Flags: HW
PickledData: "(dp1
Vspacing_anchors_slanted
p2
I00
s."
HStem: 427 286<141 182 336 377>
VStem: 73 66<498 633.234> 269 65<498 633.234>
AnchorPoint: "r;o" 430 220 basechar 0
AnchorPoint: "r;hi" 459 732 basechar 0
AnchorPoint: "r;t" 459 562 basechar 0
AnchorPoint: "r;x" 459 415 basechar 0
AnchorPoint: "l;o" 78 220 basechar 0
AnchorPoint: "l;hi" 0 732 basechar 0
AnchorPoint: "l;t" 0 562 basechar 0
AnchorPoint: "l;x" 29 415 basechar 0
LayerCount: 3
Fore
SplineSet
73 539 m 0
 73 661 162 713 182 713 c 0
 190 713 195 704 195 701 c 0
 195 682 139 675 139 600 c 0
 139 520 208 527 208 491 c 0
 208 483 195 472 181 458 c 0
 169 446 159 427 141 427 c 0
 133 427 73 457 73 539 c 0
269 539 m 0
 269 661 357 713 377 713 c 0
 385 713 390 704 390 701 c 0
 390 682 334 675 334 600 c 0
 334 520 403 527 403 491 c 0
 403 483 390 472 376 458 c 0
 364 446 354 427 336 427 c 0
 328 427 269 457 269 539 c 0
EndSplineSet
EndChar

StartChar: quotedblright
Encoding: 8221 8221 80
Width: 459
VWidth: 0
Flags: HW
PickledData: "(dp1
Vspacing_anchors_slanted
p2
I00
s."
HStem: 427 286<82 123 277 318>
VStem: 125 65<505.974 642> 320 66<505.974 642>
AnchorPoint: "r;x" 430 415 basechar 0
AnchorPoint: "r;t" 459 562 basechar 0
AnchorPoint: "r;hi" 459 732 basechar 0
AnchorPoint: "r;o" 371 220 basechar 0
AnchorPoint: "l;x" 0 415 basechar 0
AnchorPoint: "l;t" 0 562 basechar 0
AnchorPoint: "l;hi" 0 732 basechar 0
AnchorPoint: "l;o" 29 220 basechar 0
LayerCount: 3
Fore
SplineSet
56 649 m 0
 56 657 69 668 83 682 c 0
 95 694 105 713 123 713 c 0
 131 713 190 683 190 601 c 0
 190 479 102 427 82 427 c 0
 74 427 69 436 69 439 c 0
 69 458 125 466 125 541 c 0
 125 621 56 613 56 649 c 0
251 649 m 0
 251 657 264 668 278 682 c 0
 290 694 300 713 318 713 c 0
 326 713 386 683 386 601 c 0
 386 479 297 427 277 427 c 0
 269 427 264 436 264 439 c 0
 264 458 320 466 320 541 c 0
 320 621 251 613 251 649 c 0
EndSplineSet
EndChar

StartChar: quotedblbase
Encoding: 8222 8222 81
Width: 459
VWidth: 0
Flags: HW
PickledData: "(dp1
Vspacing_anchors_slanted
p2
I00
s."
HStem: -62 287<82 123 277 318>
VStem: 125 65<17.4043 154> 320 66<18.6499 154>
AnchorPoint: "l;bl" 0 20 basechar 0
AnchorPoint: "l;o" 0 220 basechar 0
AnchorPoint: "r;bl" 459 20 basechar 0
AnchorPoint: "r;o" 459 220 basechar 0
LayerCount: 3
Fore
SplineSet
56 161 m 0
 56 169 69 180 83 194 c 0
 95 206 105 225 123 225 c 0
 131 225 190 195 190 113 c 0
 190 -9 102 -62 82 -62 c 0
 74 -62 69 -52 69 -49 c 0
 69 -30 125 -23 125 52 c 0
 125 132 56 125 56 161 c 0
251 161 m 0
 251 169 264 180 278 194 c 0
 290 206 300 225 318 225 c 0
 326 225 386 195 386 113 c 0
 386 -9 297 -62 277 -62 c 0
 269 -62 264 -52 264 -49 c 0
 264 -30 320 -23 320 52 c 0
 320 132 251 125 251 161 c 0
EndSplineSet
EndChar

StartChar: uni201F
Encoding: 8223 8223 82
Width: 459
VWidth: 0
Flags: HW
PickledData: "(dp1
Vspacing_anchors_slanted
p2
I00
s."
HStem: 427 286<142 183 337 378>
VStem: 74 66<505.974 642> 269 66<505.974 642>
AnchorPoint: "r;x" 459 415 basechar 0
AnchorPoint: "r;t" 459 562 basechar 0
AnchorPoint: "r;hi" 459 732 basechar 0
AnchorPoint: "r;o" 430 220 basechar 0
AnchorPoint: "l;x" 29 415 basechar 0
AnchorPoint: "l;t" 0 562 basechar 0
AnchorPoint: "l;hi" 0 732 basechar 0
AnchorPoint: "l;o" 88 220 basechar 0
LayerCount: 3
Fore
SplineSet
74 601 m 0
 74 683 134 713 142 713 c 0
 160 713 169 694 181 682 c 0
 195 668 208 657 208 649 c 0
 208 613 140 621 140 541 c 0
 140 466 195 458 195 439 c 0
 195 436 191 427 183 427 c 0
 163 427 74 479 74 601 c 0
269 601 m 0
 269 683 329 713 337 713 c 0
 355 713 364 694 376 682 c 0
 390 668 403 657 403 649 c 0
 403 613 335 621 335 541 c 0
 335 466 391 458 391 439 c 0
 391 436 386 427 378 427 c 0
 358 427 269 479 269 601 c 0
EndSplineSet
EndChar

StartChar: dagger
Encoding: 8224 8224 83
Width: 557
VWidth: 0
Flags: HW
PickledData: "(dp1
Vspacing_anchors_slanted
p2
I00
s."
HStem: 479 121<66.8645 122.715 435.741 494.44> 522 27<164.931 260.907 299.023 381.282> 727 20G<258.5 287>
VStem: 218 125<271.754 373.25 677.695 742.814> 263 35<-214.775 0.382015 395.32 521.999 549.057 650.541>
AnchorPoint: "l;bl" 0 20 basechar 0
AnchorPoint: "l;lo" 0 -205 basechar 0
AnchorPoint: "l;o" 0 220 basechar 0
AnchorPoint: "l;hi" 0 732 basechar 0
AnchorPoint: "l;t" 0 562 basechar 0
AnchorPoint: "l;x" 0 415 basechar 0
AnchorPoint: "r;bl" 557 20 basechar 0
AnchorPoint: "r;lo" 557 -205 basechar 0
AnchorPoint: "r;o" 557 220 basechar 0
AnchorPoint: "r;hi" 557 732 basechar 0
AnchorPoint: "r;t" 557 562 basechar 0
AnchorPoint: "r;x" 557 415 basechar 0
LayerCount: 3
Fore
SplineSet
63 539 m 0xb0
 63 555 63 600 83 600 c 0xb0
 92 600 149 549 250 549 c 0
 257 549 263 550 263 556 c 0
 263 637 219 711 219 726 c 0
 219 738 238 747 279 747 c 0
 295 747 340 747 340 727 c 0
 340 718 298 639 298 555 c 0x68
 298 550 301 548 304 548 c 0
 387 548 462 602 477 602 c 0
 489 602 498 583 498 542 c 0
 498 526 498 481 478 481 c 0
 469 481 425 522 306 522 c 0
 301 522 299 522 299 518 c 0
 299 373 343 349 343 339 c 0
 343 311 300 334 300 -189 c 0
 300 -212 295 -215 284 -215 c 2
 280 -215 l 2
 270 -215 266 -212 266 -189 c 0
 266 332 218 313 218 337 c 0
 218 348 261 362 261 519 c 0
 261 521 259 522 254 522 c 0x70
 155 522 99 479 84 479 c 0
 72 479 63 498 63 539 c 0xb0
EndSplineSet
EndChar

StartChar: daggerdbl
Encoding: 8225 8225 84
Width: 557
VWidth: 0
Flags: HMW
PickledData: "(dp1
Vspacing_anchors_slanted
p2
I00
s."
HStem: -205 21G<270.5 300> -1 32<176.782 259.995 296.005 386.584> 513 26<172.427 257.89 296.023 378.652> 717 20G<255.5 284>
VStem: 216 127<-200.474 -137.833> 216 121<217.326 328.789 664.755 733.135> 260 36<-115.858 -2.09753 33.0054 193.422 347.42 512.999 539.057 650.53>
AnchorPoint: "l;bl" 0 20 basechar 0
AnchorPoint: "l;lo" 0 -205 basechar 0
AnchorPoint: "l;o" 0 220 basechar 0
AnchorPoint: "l;hi" 0 732 basechar 0
AnchorPoint: "l;t" 0 562 basechar 0
AnchorPoint: "l;x" 0 415 basechar 0
AnchorPoint: "r;bl" 557 20 basechar 0
AnchorPoint: "r;lo" 557 -205 basechar 0
AnchorPoint: "r;o" 557 220 basechar 0
AnchorPoint: "r;hi" 557 732 basechar 0
AnchorPoint: "r;t" 557 562 basechar 0
AnchorPoint: "r;x" 557 415 basechar 0
LayerCount: 3
Fore
SplineSet
59 16 m 0xf2
 59 33 59 79 79 79 c 0
 88 79 185 31 251 31 c 0
 257 31 261 33 261 37 c 0
 261 176 219 264 219 289 c 0
 219 300 258 322 258 509 c 0
 258 511 256 513 251 513 c 0
 172 513 97 469 82 469 c 0
 70 469 61 488 61 529 c 0
 61 545 61 590 81 590 c 0
 90 590 153 539 248 539 c 0
 255 539 260 540 260 546 c 0xf2
 260 644 216 701 216 716 c 0
 216 728 235 737 276 737 c 0
 292 737 337 737 337 717 c 0xf4
 337 708 295 645 295 545 c 0
 295 540 298 538 301 538 c 0
 386 538 459 592 474 592 c 0
 486 592 495 573 495 532 c 0
 495 516 495 471 475 471 c 0
 466 471 404 513 303 513 c 0
 298 513 296 512 296 508 c 0
 296 330 336 297 336 287 c 0
 336 281 296 196 296 38 c 0
 296 35 299 33 303 33 c 0
 392 33 462 81 477 81 c 0
 489 81 498 59 498 17 c 0
 498 0 498 -46 478 -46 c 0
 472 -46 398 -2 311 -2 c 0
 303 -2 296 -2 296 -15 c 0xf2
 296 -118 343 -169 343 -184 c 0
 343 -196 321 -205 279 -205 c 0
 262 -205 216 -205 216 -185 c 0xf8
 216 -179 260 -100 260 -12 c 0
 260 -6 256 -1 249 -1 c 0
 201 -1 95 -48 80 -48 c 0
 68 -48 59 -26 59 16 c 0xf2
EndSplineSet
EndChar

StartChar: bullet
Encoding: 8226 8226 85
Width: 419
VWidth: 512
Flags: HW
PickledData: "(dp1
Vspacing_anchors_slanted
p2
I00
s."
HStem: 180 301<134.267 284.733>
VStem: 59 301<252.876 408.85>
AnchorPoint: "l;o" 0 220 basechar 0
AnchorPoint: "l;x" 0 415 basechar 0
AnchorPoint: "r;o" 419 220 basechar 0
AnchorPoint: "r;x" 419 415 basechar 0
LayerCount: 3
Fore
SplineSet
59 331 m 0
 59 414 126 481 209 481 c 0
 292 481 360 414 360 331 c 0
 360 248 293 180 210 180 c 0
 127 180 59 248 59 331 c 0
EndSplineSet
AlternateSubs2: "'aalt' Access All Alternates lookup 0 subtable" bullet.001
AlternateSubs2: "'aalt' Access All Alternates in Latin lookup 0 subtable" bullet.001
Substitution2: "salt subtable" bullet.001
EndChar

StartChar: paragraph
Encoding: 182 182 86
Width: 505
VWidth: 0
Flags: HW
PickledData: "(dp1
Vspacing_anchors_slanted
p2
I00
s."
HStem: -185 30<195.518 265.779> 321 29<252.652 300.908> 693 22<244.484 297.277 328 368.324>
VStem: 44 183<408.616 598.645> 303 24<-57.3165 319.331 354.126 688.73> 371 24<11.0664 669.16>
AnchorPoint: "l;bl" 0 20 basechar 0
AnchorPoint: "l;lo" 29 -205 basechar 0
AnchorPoint: "l;o" 0 220 basechar 0
AnchorPoint: "l;hi" 0 732 basechar 0
AnchorPoint: "l;t" 0 562 basechar 0
AnchorPoint: "l;x" 0 415 basechar 0
AnchorPoint: "r;bl" 505 20 basechar 0
AnchorPoint: "r;lo" 476 -205 basechar 0
AnchorPoint: "r;o" 505 220 basechar 0
AnchorPoint: "r;hi" 505 732 basechar 0
AnchorPoint: "r;t" 505 562 basechar 0
AnchorPoint: "r;x" 505 415 basechar 0
LayerCount: 3
Fore
SplineSet
44 505 m 0
 44 636 155 715 243 715 c 0
 296 715 334 716 377 716 c 0
 395 716 415 718 437 718 c 2
 449 718 l 2
 453 718 458 711 458 708 c 0
 458 692 429 695 412 677 c 0
 404 668 398 651 398 611 c 0
 398 409 395 296 395 94 c 0
 395 -60 321 -185 204 -185 c 0
 178 -185 160 -183 137 -170 c 16
 133 -168 129 -153 129 -144 c 0
 129 -124 146 -78 159 -78 c 0
 179 -78 168 -155 237 -155 c 0
 300 -155 303 -20 303 55 c 0
 303 67 304 78 304 86 c 0
 304 152 301 216 301 307 c 0
 301 319 289 321 276 321 c 0
 179 321 44 337 44 505 c 0
227 503 m 0
 227 415 236 350 275 350 c 0
 286 350 302 357 302 369 c 0
 302 381 302 393 302 404 c 0
 302 446 300 481 300 517 c 0
 300 652 303 638 303 652 c 0
 303 680 296 693 275 693 c 0
 265 693 243 688 238 672 c 16
 227 637 227 628 227 503 c 0
326 506 m 0
 326 454 327 405 327 356 c 0
 327 191 330 59 330 26 c 0
 330 -41 327 -33 327 -48 c 0
 327 -55 328 -59 334 -59 c 0
 341 -59 371 13 371 120 c 0
 371 337 369 485 369 678 c 0
 369 689 357 696 346 696 c 0
 338 696 328 691 328 683 c 0
 327 619 326 560 326 506 c 0
EndSplineSet
EndChar

StartChar: emdash
Encoding: 8212 8212 87
Width: 1000
VWidth: 0
Flags: HW
PickledData: "(dp1
Vspacing_anchors_slanted
p2
I00
s."
HStem: 185 53<0.031311 999.781>
AnchorPoint: "l;o" 0 220 basechar 0
AnchorPoint: "r;o" 1000 220 basechar 0
LayerCount: 3
Fore
SplineSet
0 214 m 0
 0 236 10 238 34 238 c 2
 979 238 l 2
 994 238 1000 236 1000 208 c 0
 1000 195 992 185 979 185 c 2
 38 185 l 2
 0 185 0 186 0 214 c 0
EndSplineSet
AlternateSubs2: "'aalt' Access All Alternates lookup 0 subtable" emdash.uppercase
AlternateSubs2: "'aalt' Access All Alternates in Latin lookup 0 subtable" emdash.uppercase
Substitution2: "'case' Case-Sensitive Forms in Latin lookup 13 subtable" emdash.uppercase
EndChar

StartChar: endash
Encoding: 8211 8211 88
Width: 500
VWidth: 0
Flags: HW
PickledData: "(dp1
Vspacing_anchors_slanted
p2
I00
s."
HStem: 185 53<0.031311 499.781>
AnchorPoint: "l;o" 0 220 basechar 0
AnchorPoint: "r;o" 500 220 basechar 0
LayerCount: 3
Fore
SplineSet
0 214 m 0
 0 236 10 238 34 238 c 2
 479 238 l 2
 494 238 500 236 500 208 c 0
 500 195 492 185 479 185 c 2
 38 185 l 2
 0 185 0 186 0 214 c 0
EndSplineSet
AlternateSubs2: "'aalt' Access All Alternates lookup 0 subtable" endash.uppercase
AlternateSubs2: "'aalt' Access All Alternates in Latin lookup 0 subtable" endash.uppercase
Substitution2: "'case' Case-Sensitive Forms in Latin lookup 13 subtable" endash.uppercase
EndChar

StartChar: acutecomb
Encoding: 769 769 89
Width: 0
VWidth: 0
Flags: W
PickledData: "(dp1
Vspacing_anchors_slanted
p2
I00
s."
HStem: 480 182
VStem: -258 148
AnchorPoint: "top" -220 459 mark 0
AnchorPoint: "l;k;t" -302 562 basechar 0
AnchorPoint: "r;k;t" -66 562 mark 0
LayerCount: 3
Fore
SplineSet
-258 491 m 0
 -258 505 -235 518 -183 643 c 0
 -176 659 -166 662 -162 662 c 0
 -158 662 -110 657 -110 636 c 0
 -110 615 -166 554 -207 511 c 0
 -222 495 -238 480 -246 480 c 0
 -252 480 -258 485 -258 491 c 0
EndSplineSet
EndChar

StartChar: uni0302
Encoding: 770 770 91
Width: 0
VWidth: 0
Flags: W
PickledData: "(dp1
Vspacing_anchors_slanted
p2
I00
s."
HStem: 577 71<-248.477 -193.719>
VStem: -332 226<494 501>
AnchorPoint: "top" -220 459 mark 0
AnchorPoint: "r;k;t" -92 562 basechar 0
AnchorPoint: "l;k;t" -347 562 basechar 0
LayerCount: 3
Fore
SplineSet
-332 499 m 0
 -332 501 -330 504 -328 508 c 0
 -241 635 -251 648 -234 648 c 2
 -209 648 l 2
 -203 648 -198 648 -192 637 c 0
 -154 569 -106 510 -106 500 c 0
 -106 492 -114 492 -117 492 c 0
 -130 492 -213 577 -220 577 c 0
 -233 577 -308 493 -322 493 c 0
 -325 493 -332 494 -332 499 c 0
EndSplineSet
EndChar

StartChar: gravecomb
Encoding: 768 768 92
Width: 0
VWidth: 0
Flags: W
PickledData: "(dp1
Vspacing_anchors_slanted
p2
I00
s."
HStem: 480 182
VStem: -330 149
AnchorPoint: "l;k;t" -374 562 mark 0
AnchorPoint: "r;k;t" -137 562 mark 0
AnchorPoint: "top" -220 459 mark 0
LayerCount: 3
Fore
SplineSet
-330 636 m 0
 -330 657 -281 662 -277 662 c 0
 -273 662 -264 659 -257 643 c 0
 -205 518 -181 505 -181 491 c 0
 -181 485 -187 480 -193 480 c 0
 -201 480 -217 495 -232 511 c 0
 -273 554 -330 615 -330 636 c 0
EndSplineSet
EndChar

StartChar: tildecomb
Encoding: 771 771 95
Width: 0
VWidth: 0
Flags: W
PickledData: "(dp1
Vspacing_anchors_slanted
p2
I00
s."
HStem: 530 58<-203.765 -124.984> 578 58<-312.693 -238.276>
VStem: -367 294
AnchorPoint: "l;k;t" -382 562 basechar 0
AnchorPoint: "r;k;t" -44 562 basechar 0
AnchorPoint: "top" -220 459 mark 0
LayerCount: 3
Fore
SplineSet
-367 530 m 0xa0
 -367 546 -315 636 -270 636 c 0x60
 -221 636 -194 588 -145 588 c 0
 -112 588 -92 644 -83 644 c 0
 -79 644 -73 642 -73 632 c 0
 -73 614 -124 530 -169 530 c 0xa0
 -219 530 -251 578 -295 578 c 0x60
 -330 578 -348 522 -357 522 c 0
 -361 522 -367 523 -367 530 c 0xa0
EndSplineSet
EndChar

StartChar: uni0308
Encoding: 776 776 96
Width: 0
VWidth: 0
Flags: W
PickledData: "(dp1
Vspacing_anchors_slanted
p2
I00
s."
HStem: 538 104<-321.586 -255.583 -162.22 -96.375>
VStem: -336 95<552.431 629.467> -176 95<552.7 629.467>
AnchorPoint: "l;k;t" -380 562 basechar 0
AnchorPoint: "r;k;t" -37 562 basechar 0
AnchorPoint: "top" -220 459 mark 0
LayerCount: 3
Fore
SplineSet
-336 591 m 0
 -336 608 -311 642 -289 642 c 0
 -266 642 -241 611 -241 591 c 0
 -241 567 -275 538 -284 538 c 0
 -313 538 -336 575 -336 591 c 0
-176 591 m 0
 -176 608 -151 642 -129 642 c 0
 -106 642 -81 611 -81 591 c 0
 -81 567 -116 538 -125 538 c 0
 -154 538 -176 575 -176 591 c 0
EndSplineSet
EndChar

StartChar: uni0306
Encoding: 774 774 99
Width: 0
VWidth: 0
Flags: W
PickledData: "(dp1
Vspacing_anchors_slanted
p2
I00
s."
HStem: 501 59<-274.345 -149.946>
VStem: -333 237<585 629>
AnchorPoint: "l;k;t" -362 562 basechar 0
AnchorPoint: "r;k;t" -67 562 basechar 0
AnchorPoint: "top" -220 459 mark 0
LayerCount: 3
Fore
SplineSet
-333 627 m 0
 -333 629 -327 630 -322 630 c 2
 -317 630 l 2
 -304 630 -293 560 -209 560 c 0
 -128 560 -124 630 -111 630 c 2
 -107 630 l 2
 -102 630 -96 629 -96 627 c 0
 -96 585 -132 501 -215 501 c 0
 -298 501 -333 580 -333 627 c 0
EndSplineSet
EndChar

StartChar: uni030C
Encoding: 780 780 100
Width: 0
VWidth: 0
Flags: W
PickledData: "(dp1
Vspacing_anchors_slanted
p2
I00
s."
HStem: 492 71<-245.028 -190.27>
VStem: -332 226<639 646>
AnchorPoint: "l;k;t" -361 562 basechar 0
AnchorPoint: "r;k;t" -77 562 mark 0
AnchorPoint: "top" -220 459 mark 0
LayerCount: 3
Fore
SplineSet
-332 640 m 0
 -332 648 -324 648 -321 648 c 0
 -308 648 -226 563 -219 563 c 0
 -206 563 -130 647 -116 647 c 0
 -113 647 -106 646 -106 641 c 0
 -106 639 -108 636 -110 632 c 0
 -197 505 -187 492 -204 492 c 2
 -229 492 l 2
 -235 492 -241 492 -247 503 c 0
 -285 571 -332 630 -332 640 c 0
EndSplineSet
EndChar

StartChar: exclamdown
Encoding: 161 161 103
Width: 276
VWidth: 0
Flags: HW
PickledData: "(dp1
Vspacing_anchors_slanted
p2
I00
s."
HStem: -13 21G<114.5 144> 458 20G<132 141> 544 145<108.079 164.96>
VStem: 83 96<-7.57179 278.201> 124 25<362.191 477.988>
AnchorPoint: "l;bl" 0 20 basechar 0
AnchorPoint: "l;o" 0 220 basechar 0
AnchorPoint: "l;hi" 0 732 basechar 0
AnchorPoint: "l;t" 0 562 basechar 0
AnchorPoint: "l;x" 0 415 basechar 0
AnchorPoint: "r;bl" 276 20 basechar 0
AnchorPoint: "r;o" 276 220 basechar 0
AnchorPoint: "r;hi" 276 732 basechar 0
AnchorPoint: "r;t" 276 562 basechar 0
AnchorPoint: "r;x" 276 415 basechar 0
LayerCount: 3
Fore
SplineSet
59 615 m 0xf0
 59 632 86 643 97 654 c 0
 109 666 120 689 134 689 c 0
 143 689 165 669 175 656 c 0
 184 644 208 631 208 613 c 0
 208 604 195 596 179 582 c 0
 166 570 154 544 135 544 c 0
 126 544 120 553 111 562 c 0
 77 598 59 598 59 615 c 0xf0
83 20 m 0
 83 27 85 35 88 59 c 0
 100 157 98 257 124 467 c 8
 125 474 127 478 137 478 c 0
 145 478 149 474 149 468 c 16xe8
 174 170 165 230 169 170 c 0
 174 100 179 71 179 25 c 0
 179 1 159 -13 129 -13 c 0
 100 -13 83 -6 83 20 c 0
EndSplineSet
Position2: "'cpsp' Capital Spacing in Latin lookup 2 subtable" dx=10 dy=0 dh=20 dv=0
EndChar

StartChar: questiondown
Encoding: 191 191 104
Width: 350
VWidth: 0
Flags: HW
PickledData: "(dp1
Vspacing_anchors_slanted
p2
I00
s."
HStem: -9 45<151.558 241.711> 449 20G<176 190> 532 141<154.054 207.163>
VStem: 36 84<66.2913 175.125> 177 34<348.687 458.659>
AnchorPoint: "l;bl" 0 20 basechar 0
AnchorPoint: "l;o" 0 220 basechar 0
AnchorPoint: "l;hi" 0 732 basechar 0
AnchorPoint: "l;t" 0 562 basechar 0
AnchorPoint: "l;x" 0 415 basechar 0
AnchorPoint: "r;bl" 350 20 basechar 0
AnchorPoint: "r;o" 350 220 basechar 0
AnchorPoint: "r;hi" 350 732 basechar 0
AnchorPoint: "r;t" 350 562 basechar 0
AnchorPoint: "r;x" 350 415 basechar 0
LayerCount: 3
Fore
SplineSet
36 105 m 0
 36 203 177 307 177 413 c 0
 177 432 171 449 171 459 c 0
 171 465 173 469 179 469 c 0
 201 469 211 412 211 390 c 0
 211 319 120 179 120 116 c 0
 120 57 186 36 211 36 c 0
 241 36 258 62 266 62 c 0
 272 62 274 55 274 52 c 0
 274 33 230 -9 171 -9 c 0
 105 -9 36 29 36 105 c 0
108 603 m 0
 108 620 132 627 143 638 c 0
 155 650 166 673 179 673 c 0
 188 673 210 653 220 640 c 0
 229 628 252 619 252 605 c 0
 252 596 232 577 217 564 c 1
 204 552 191 532 177 532 c 0
 167 532 147 563 143 567 c 0
 139 571 108 593 108 603 c 0
EndSplineSet
Position2: "'cpsp' Capital Spacing in Latin lookup 2 subtable" dx=10 dy=0 dh=20 dv=0
EndChar

StartChar: uni0302.cap.NOTUSED
Encoding: 65551 -1 110
Width: 0
VWidth: 0
Flags: W
PickledData: "(dp1
Vspacing_anchors_slanted
p2
I00
s."
HStem: 576 60<-252.329 -190.212>
VStem: -332 226<506 511>
AnchorPoint: "top" -220 469 mark 0
LayerCount: 3
Fore
SplineSet
-332 510 m 0
 -332 511 -330 514 -328 517 c 0
 -241 625 -251 636 -234 636 c 2
 -209 636 l 2
 -203 636 -198 635 -192 626 c 0
 -154 568 -106 518 -106 510 c 0
 -106 503 -114 503 -117 503 c 0
 -130 503 -213 576 -220 576 c 0
 -233 576 -308 504 -322 504 c 0
 -325 504 -332 506 -332 510 c 0
EndSplineSet
EndChar

StartChar: uni030C.cap.NOTUSED
Encoding: 65552 -1 111
Width: 0
VWidth: 0
Flags: W
PickledData: "(dp1
Vspacing_anchors_slanted
p2
I00
s."
HStem: 503 61<-248.788 -186.377>
VStem: -332 226<629 634>
AnchorPoint: "top" -220 469 mark 0
LayerCount: 3
Fore
SplineSet
-332 629 m 0
 -332 636 -324 636 -321 636 c 0
 -308 636 -226 564 -219 564 c 0
 -206 564 -130 635 -116 635 c 0
 -113 635 -106 634 -106 630 c 0
 -106 629 -108 626 -110 623 c 0
 -197 515 -187 503 -204 503 c 2
 -229 503 l 2
 -235 503 -241 504 -247 513 c 0
 -285 571 -332 621 -332 629 c 0
EndSplineSet
EndChar

StartChar: dotlessi
Encoding: 305 305 116
Width: 284
VWidth: 0
Flags: HW
PickledData: "(dp1
Vspacing_anchors_slanted
p2
I00
s."
HStem: -6 20G<75.5 96.5 243 253> 419 20G<159 170>
VStem: 104 72<35.3982 361.336>
AnchorPoint: "r;o" 279 220 basechar 0
AnchorPoint: "r;x" 279 415 basechar 0
AnchorPoint: "r;bl" 284 20 basechar 0
AnchorPoint: "l;o" 0 220 basechar 0
AnchorPoint: "l;x" 0 415 basechar 0
AnchorPoint: "l;bl" 0 20 basechar 0
AnchorPoint: "top" 124 459 basechar 0
LayerCount: 3
Fore
SplineSet
36 381 m 0
 36 397 61 398 117 421 c 0
 153 436 151 439 167 439 c 0
 173 439 182 434 182 420 c 0
 182 408 176 389 176 372 c 2
 176 98 l 2
 176 -10 262 45 262 10 c 0
 262 4 261 -7 245 -7 c 0
 241 -7 235 -6 230 -6 c 0
 188 -6 197 -4 159 -4 c 0
 117 -4 105 -6 88 -6 c 0
 63 -6 48 -3 48 7 c 0
 48 14 54 23 63 26 c 0
 102 39 104 33 104 206 c 2
 104 294 l 2
 104 377 68 363 46 371 c 0
 41 373 36 377 36 381 c 0
EndSplineSet
EndChar

StartChar: uni0237
Encoding: 567 567 124
Width: 281
VWidth: 0
Flags: HW
PickledData: "(dp1
Vspacing_anchors_slanted
p2
I00
s."
HStem: -200 49<51.5 118.682> 373 46<80.2711 118.25> 420 20G<182 191.5>
VStem: 126 70<-104.241 364.578>
AnchorPoint: "r;lo" 227 -205 basechar 0
AnchorPoint: "r;o" 281 220 basechar 0
AnchorPoint: "r;x" 281 415 basechar 0
AnchorPoint: "r;bl" 281 20 basechar 0
AnchorPoint: "l;k;lo" 20 -205 basechar 0
AnchorPoint: "l;o" 10 220 basechar 0
AnchorPoint: "l;x" 0 415 basechar 0
AnchorPoint: "l;bl" 20 20 basechar 0
AnchorPoint: "top" 139 459 basechar 0
LayerCount: 3
Fore
SplineSet
23 -137 m 0
 23 -120 28 -108 45 -108 c 0
 66 -108 87 -151 103 -151 c 0
 120 -151 126 -117 126 10 c 2
 126 314 l 2
 126 336 125 373 67 373 c 0
 58 373 51 374 51 383 c 0
 51 396 80 391 139 419 c 0
 160 429 178 440 186 440 c 0
 197 440 198 430 198 417 c 0
 198 413 198 410 198 406 c 0
 198 390 196 371 196 359 c 2
 196 35 l 2
 196 -59 169 -200 64 -200 c 0
 39 -200 25 -193 25 -173 c 0
 25 -162 23 -148 23 -137 c 0
EndSplineSet
EndChar

StartChar: uni0327
Encoding: 807 807 150
Width: 0
VWidth: 0
Flags: W
PickledData: "(dp1
Vspacing_anchors_slanted
p2
I00
s."
HStem: -201 157<-250 -219>
VStem: -217 50<-163.207 -102.848>
AnchorPoint: "cedilla" -220 -79 mark 0
LayerCount: 3
Fore
SplineSet
-269 -79 m 0
 -269 -75 -260 -69 -249 -61 c 0
 -240 -55 -232 -44 -219 -44 c 0
 -213 -44 -167 -60 -167 -105 c 0
 -167 -172 -235 -201 -250 -201 c 0
 -256 -201 -259 -196 -259 -194 c 0
 -259 -184 -217 -180 -217 -139 c 0
 -217 -95 -269 -99 -269 -79 c 0
EndSplineSet
EndChar

StartChar: uni0307
Encoding: 775 775 153
Width: 0
VWidth: 0
Flags: W
PickledData: "(dp1
Vspacing_anchors_slanted
p2
I00
s."
HStem: 533 112<-248.072 -186.603>
VStem: -266 97<551.016 627.906>
AnchorPoint: "r;k;t" -125 562 basechar 0
AnchorPoint: "l;k;t" -310 562 basechar 0
AnchorPoint: "top" -220 459 mark 0
LayerCount: 3
Fore
SplineSet
-266 590 m 0
 -266 603 -238 645 -216 645 c 0
 -193 645 -169 608 -169 588 c 0
 -169 564 -208 533 -217 533 c 0
 -246 533 -266 574 -266 590 c 0
EndSplineSet
EndChar

StartChar: uni030A
Encoding: 778 778 158
Width: 0
VWidth: 0
Flags: W
PickledData: "(dp1
Vspacing_anchors_slanted
p2
I00
s."
HStem: 510 39<-252.025 -187.157> 629 39<-251.71 -186.609>
VStem: -296 38<554.701 621.94> -182 38<554.889 625.063>
AnchorPoint: "r;k;t" -100 562 basechar 0
AnchorPoint: "l;k;t" -340 562 basechar 0
AnchorPoint: "top" -220 459 mark 0
LayerCount: 3
Fore
SplineSet
-296 591 m 0
 -296 623 -264 668 -218 668 c 0
 -163 668 -144 615 -144 587 c 0
 -144 531 -205 510 -219 510 c 0
 -287 510 -296 568 -296 591 c 0
-258 590 m 0
 -258 566 -242 549 -219 549 c 0
 -212 549 -182 555 -182 588 c 0
 -182 603 -187 629 -219 629 c 0
 -237 629 -258 612 -258 590 c 0
EndSplineSet
EndChar

StartChar: a.sc
Encoding: 65553 -1 162
Width: 580
VWidth: 0
Flags: W
PickledData: "(dp1
Vspacing_anchors_slanted
p2
I00
s."
HStem: 0 45<487.812 557.873> 0 26<350.083 389.983> 167 38<191.29 332.998> 459 20G<274.5 293>
VStem: 20 118<6.5 82.5>
AnchorPoint: "top" 280 500 basechar 0
AnchorPoint: "l;bl" 0 20 basechar 0
AnchorPoint: "l;o" 49 220 basechar 0
AnchorPoint: "l;x" 98 415 basechar 0
AnchorPoint: "r;bl" 580 20 basechar 0
AnchorPoint: "r;o" 531 220 basechar 0
AnchorPoint: "r;x" 482 415 basechar 0
LayerCount: 3
Fore
SplineSet
20 12 m 0x78
 20 31 57 22 82 65 c 0
 109 111 116 141 138 189 c 24
 180 282 224 376 245 429 c 0
 250 442 265 479 284 479 c 0
 302 479 307 456 324 419 c 0
 373 312 461 95 500 45 c 0
 511 31 560 39 560 16 c 0
 560 4 551 0 538 0 c 0xb8
 528 0 474 4 448 4 c 0
 428 4 375 0 365 0 c 0
 355 0 350 7 350 12 c 0
 350 19 357 26 376 26 c 0
 383 26 393 37 393 54 c 0
 393 77 357 158 349 164 c 0
 348 165 348 167 339 167 c 0
 195 167 209 166 195 166 c 0
 174 166 173 163 163 142 c 0
 142 98 138 91 138 74 c 0
 138 8 216 39 216 12 c 0
 216 7 213 0 188 0 c 0
 175 0 143 3 114 3 c 0
 82 3 52 -1 33 -1 c 0
 21 -1 20 5 20 12 c 0x78
191 217 m 0
 191 207 203 205 220 205 c 0
 241 205 315 207 326 207 c 0
 330 207 333 211 333 215 c 0
 333 225 327 238 316 261 c 2
 300 295 l 2
 295 305 266 365 258 365 c 0
 250 365 191 225 191 217 c 0
EndSplineSet
EndChar

StartChar: b.sc
Encoding: 65554 -1 163
Width: 479
VWidth: 0
Flags: W
PickledData: "(dp1
Vspacing_anchors_slanted
p2
I00
s."
HStem: -8 30<199.878 327.656> -3 35<42.0098 95.1301> 229 21<177.278 286.357> 423 36<20.0145 92.5035 178.014 298.731>
VStem: 102 72<39.334 228.995 250.688 416.935> 349 4<246 327> 379 80<63.0892 180.391>
AnchorPoint: "l;bl" 21 20 basechar 0
AnchorPoint: "l;o" 20 220 basechar 0
AnchorPoint: "l;x" 0 415 basechar 0
AnchorPoint: "r;bl" 479 20 basechar 0
AnchorPoint: "r;o" 479 220 basechar 0
AnchorPoint: "r;x" 469 415 basechar 0
LayerCount: 3
Fore
SplineSet
20 441 m 0x7e
 20 454 32 457 45 457 c 2
 45 457 125 453 136 453 c 0
 166 453 223 459 248 459 c 0
 322 459 420 437 420 346 c 0
 420 259 353 250 353 246 c 0
 353 238 459 237 459 123 c 0
 459 94 438 -8 262 -8 c 0xbe
 211 -8 155 0 136 0 c 0
 118 0 90 -3 65 -3 c 0
 52 -3 41 0 41 10 c 0
 41 24 64 25 75 32 c 0
 99 46 101 39 101 153 c 0
 101 182 102 220 102 267 c 2
 102 379 l 2
 102 384 98 426 44 426 c 0
 40 426 20 429 20 441 c 0x7e
172 75 m 2
 172 32 237 22 272 22 c 0
 337 22 379 74 379 120 c 0
 379 181 333 229 195 229 c 0
 173 229 172 222 172 162 c 2
 172 75 l 2
174 371 m 0
 174 295 174 285 174 276 c 0
 174 252 186 250 214 250 c 2
 252 250 l 2
 337 250 349 277 349 327 c 0
 349 348 332 423 227 423 c 0
 182 423 174 416 174 371 c 0
EndSplineSet
EndChar

StartChar: c.sc
Encoding: 65555 -1 164
Width: 521
VWidth: 0
Flags: W
PickledData: "(dp1
Vspacing_anchors_slanted
p2
I00
s."
HStem: -17 53<223.214 384.802> 434 35<205.546 345.208>
VStem: 39 82<151.966 313.201> 452 25<290.132 318.101>
AnchorPoint: "top" 281 500 basechar 0
AnchorPoint: "cedilla" 292 -79 basechar 0
AnchorPoint: "l;o" 0 220 basechar 0
AnchorPoint: "r;bl" 521 20 basechar 0
AnchorPoint: "r;o" 521 220 basechar 0
AnchorPoint: "r;x" 521 415 basechar 0
LayerCount: 3
Fore
SplineSet
39 214 m 0
 39 339 139 469 295 469 c 0
 356 469 415 437 426 437 c 0
 435 437 444 449 450 449 c 0
 462 449 461 449 466 390 c 0
 468 360 477 355 477 300 c 0
 477 290 469 290 467 290 c 0
 463 290 455 291 452 297 c 0
 407 391 341 434 276 434 c 0
 239 434 211 424 188 406 c 0
 124 357 121 315 121 236 c 0
 121 199 159 36 303 36 c 0
 422 36 457 109 471 109 c 0
 483 109 487 102 487 98 c 0
 487 93 427 -17 282 -17 c 0
 88 -17 39 117 39 214 c 0
EndSplineSet
EndChar

StartChar: d.sc
Encoding: 65556 -1 165
Width: 591
VWidth: 0
Flags: HW
PickledData: "(dp1
Vspacing_anchors_slanted
p2
I00
s."
HStem: -7 43<41.3638 100.536> -7 36<172.923 372.351> 423 35<20.2729 90.0098 181.383 337.647>
VStem: 103 75<43.211 414.609> 469 83<136.868 304.762>
AnchorPoint: "top" 289 500 basechar 0
AnchorPoint: "l;bl" 21 20 basechar 0
AnchorPoint: "l;o" 20 220 basechar 0
AnchorPoint: "l;x" 0 415 basechar 0
AnchorPoint: "r;o" 591 220 basechar 0
LayerCount: 3
Fore
SplineSet
20 444 m 0xb8
 20 455 30 457 42 457 c 0
 45 457 99 454 136 454 c 24
 195 454 273 458 288 458 c 0
 445 458 552 384 552 244 c 0
 552 158 522 112 480 63 c 0
 423 -4 317 -7 300 -7 c 0x78
 266 -7 191 0 148 0 c 0
 105 0 73 -7 59 -7 c 0
 44 -7 41 3 41 11 c 0
 41 35 73 20 91 36 c 0
 99 43 103 66 103 78 c 0
 103 336 105 297 105 336 c 0
 105 382 97 420 58 423 c 0
 44 424 20 421 20 444 c 0xb8
178 101 m 0
 178 76 182 29 249 29 c 0
 314 29 373 34 414 74 c 0
 445 104 469 142 469 202 c 0
 469 340 375 423 249 423 c 2
 213 423 l 2
 181 423 180 416 180 378 c 0
 180 341 178 130 178 101 c 0
EndSplineSet
EndChar

StartChar: e.sc
Encoding: 65557 -1 166
Width: 460
VWidth: 0
Flags: HW
PickledData: "(dp1
Vspacing_anchors_slanted
p2
I00
s."
HStem: 3 35<185.437 334.937> 227 36<177.173 302.135> 418 41<175.572 350.957> 430 32<20.0109 87.4482>
VStem: 102 74<45.1792 226.027 263.195 416.406> 320 26<286.081 324.604> 360 34<349.064 402.818>
AnchorPoint: "top" 223 500 basechar 0
AnchorPoint: "l;bl" 24 20 basechar 0
AnchorPoint: "l;o" 24 220 basechar 0
AnchorPoint: "l;x" 0 415 basechar 0
AnchorPoint: "r;bl" 460 20 basechar 0
AnchorPoint: "r;o" 431 220 basechar 0
AnchorPoint: "r;x" 450 415 basechar 0
LayerCount: 3
Fore
SplineSet
20 449 m 0xde
 20 461 35 462 40 462 c 0xde
 46 462 52 461 59 461 c 0
 76 461 172 459 242 459 c 0
 270 459 345 463 366 463 c 0
 375 463 392 463 392 447 c 0
 392 441 392 432 392 421 c 0
 392 415 394 386 394 363 c 0
 394 354 385 349 378 349 c 0
 359 349 368 371 360 387 c 0
 345 417 281 418 237 418 c 0xee
 175 418 174 418 174 363 c 0
 174 309 173 299 173 298 c 0
 173 264 185 263 207 263 c 0
 291 263 302 270 320 308 c 0
 320 309 323 325 336 325 c 0
 344 325 346 321 346 313 c 0
 346 301 344 265 344 241 c 0
 344 218 348 189 348 176 c 0
 348 164 342 158 336 158 c 0
 320 158 323 201 292 219 c 0
 280 226 264 227 242 227 c 2
 212 227 l 2
 186 227 177 220 177 209 c 0
 177 165 176 165 176 100 c 0
 176 67 179 38 231 38 c 0
 390 38 405 99 422 99 c 0
 426 99 431 97 431 91 c 0
 431 61 393 -9 337 -9 c 0
 293 -9 248 3 160 3 c 0
 111 3 82 -3 62 -3 c 0
 55 -3 44 1 44 12 c 0
 44 42 102 12 102 84 c 0
 102 362 105 280 105 363 c 0
 105 405 92 428 30 430 c 0
 19 430 20 440 20 449 c 0xde
EndSplineSet
EndChar

StartChar: f.sc
Encoding: 65558 -1 167
Width: 412
VWidth: 0
Flags: HW
PickledData: "(dp1
Vspacing_anchors_slanted
p2
I00
s."
HStem: -4 31<195.744 271.105> 224 35<175.171 300.572> 417 39<176.408 345.002>
VStem: 104 69<42.5542 223.422 259.183 414.728> 363 30<347.058 394.898>
AnchorPoint: "l;bl" 25 20 basechar 0
AnchorPoint: "l;o" 24 220 basechar 0
AnchorPoint: "l;x" 0 415 basechar 0
AnchorPoint: "r;bl" 334 20 basechar 0
AnchorPoint: "r;o" 402 220 basechar 0
AnchorPoint: "r;x" 412 415 basechar 0
LayerCount: 3
Back
SplineSet
20 444 m 4
 20 447 21 460 38 460 c 4
 78 460 108 456 229 456 c 4
 309 456 323 458 363 458 c 4
 387 458 391 447 391 437 c 4
 391 415 393 387 393 377 c 4
 393 367 390 347 377 347 c 4
 369 347 364 354 363 363 c 4
 362 375 352 411 301 414 c 4
 244 418 247 417 224 417 c 4
 179 417 177 409 175 387 c 4
 175 383 173 375 173 307 c 4
 173 265 178 259 200 259 c 4
 207 259 229 261 240 261 c 4
 278 261 275 262 291 269 c 4
 317 280 319 329 335 329 c 4
 341 329 347 323 347 311 c 4
 347 304 346 266 346 236 c 4
 346 212 350 179 350 174 c 4
 350 161 342 157 337 157 c 4
 313 157 330 198 291 213 c 4
 279 218 284 224 209 224 c 4
 189 224 173 222 173 205 c 6
 173 175 l 6
 173 81 178 34 225 27 c 4
 257 22 272 20 272 7 c 4
 272 0 261 -4 247 -4 c 4
 225 -4 163 3 144 3 c 4
 104 3 95 -1 59 -1 c 4
 52 -1 44 1 44 12 c 4
 44 32 101 21 101 89 c 4
 101 140 104 208 104 344 c 4
 104 463 20 410 20 444 c 4
EndSplineSet
Fore
SplineSet
20 444 m 0
 20 447 21 460 38 460 c 0
 78 460 108 456 229 456 c 0
 309 456 323 458 363 458 c 0
 387 458 391 447 391 437 c 0
 391 415 393 387 393 377 c 0
 393 367 390 347 377 347 c 0
 369 347 364 354 363 363 c 0
 362 375 352 411 301 414 c 0
 263 417 252 417 242 417 c 2
 224 417 l 2
 179 417 177 409 175 387 c 0
 175 383 173 375 173 307 c 0
 173 265 178 259 200 259 c 0
 207 259 229 261 240 261 c 0
 278 261 275 262 291 269 c 0
 317 280 319 329 335 329 c 0
 341 329 347 323 347 311 c 0
 347 304 346 266 346 236 c 0
 346 212 350 179 350 174 c 0
 350 161 342 157 337 157 c 0
 313 157 330 198 291 213 c 0
 279 218 284 224 209 224 c 0
 189 224 173 222 173 205 c 2
 173 175 l 2
 173 81 178 34 225 27 c 0
 257 22 272 20 272 7 c 0
 272 0 261 -4 247 -4 c 0
 225 -4 163 3 144 3 c 0
 104 3 95 -1 59 -1 c 0
 52 -1 44 1 44 12 c 0
 44 32 101 21 101 89 c 0
 101 140 104 208 104 344 c 0
 104 463 20 410 20 444 c 0
EndSplineSet
EndChar

StartChar: g.sc
Encoding: 65559 -1 168
Width: 528
VWidth: 0
Flags: W
PickledData: "(dp1
Vspacing_anchors_slanted
p2
I00
s."
HStem: -17 40<198.741 333.998> 185 27<304.034 374.803> 439 32<187.77 329.457>
VStem: 20 82<129.424 323.641> 386 73<55.6724 178.927> 425 28<302.11 344.637>
AnchorPoint: "cedilla" 268 -79 basechar 0
AnchorPoint: "top" 257 500 basechar 0
AnchorPoint: "l;o" 0 220 basechar 0
AnchorPoint: "r;bl" 509 20 basechar 0
AnchorPoint: "r;o" 528 220 basechar 0
AnchorPoint: "r;x" 509 415 basechar 0
LayerCount: 3
Fore
SplineSet
20 219 m 0xf8
 20 344 107 471 263 471 c 0
 333 471 392 436 412 436 c 0
 424 436 418 449 434 449 c 0
 447 449 443 437 447 385 c 0
 449 354 453 333 453 319 c 0
 453 306 448 302 441 302 c 0
 432 302 427 308 425 314 c 0xf4
 396 402 323 439 258 439 c 0
 221 439 180 425 159 405 c 0
 105 352 102 310 102 231 c 0
 102 113 179 23 270 23 c 0
 300 23 336 33 365 55 c 0
 385 70 386 87 386 118 c 0
 386 165 383 185 325 185 c 0
 304 185 304 196 304 200 c 0
 304 202 305 212 316 212 c 2
 409 212 l 2
 450 212 461 213 483 213 c 0
 493 213 504 212 504 203 c 0
 504 179 459 196 459 163 c 0
 459 121 460 81 460 68 c 0
 460 52 311 -17 246 -17 c 0
 118 -17 20 65 20 219 c 0xf8
EndSplineSet
EndChar

StartChar: h.sc
Encoding: 65560 -1 169
Width: 597
VWidth: -4
Flags: HW
PickledData: "(dp1
Vspacing_anchors_slanted
p2
I00
s."
HStem: -1 33<46.0066 98.0385> 0 25<208.807 274.941 364.179 401.837 513.01 576.876> 214 50<182.832 414.95> 423 34<20.0087 89.1953 501.006 555.968>
VStem: 109 72<41.4194 212.984 263.436 406.684> 415 72<40.0039 213.991 264.805 407.303>
AnchorPoint: "top" 295 500 basechar 0
AnchorPoint: "l;bl" 26 20 basechar 0
AnchorPoint: "l;o" 10 220 basechar 0
AnchorPoint: "l;x" 0 415 basechar 0
AnchorPoint: "r;bl" 597 20 basechar 0
AnchorPoint: "r;o" 567 220 basechar 0
AnchorPoint: "r;x" 575 415 basechar 0
LayerCount: 3
Fore
SplineSet
20 440 m 0xbc
 20 451 32 459 41 459 c 0
 61 459 61 453 135 453 c 0
 167 453 183 457 229 457 c 0
 234 457 250 455 250 442 c 0
 250 402 181 455 181 350 c 0
 181 342 181 334 181 328 c 0
 181 268 184 263 214 263 c 0
 222 263 234 264 247 264 c 2
 285 264 l 2
 295 264 307 264 339 264 c 0
 413 264 415 265 415 276 c 0
 415 280 414 290 414 307 c 2
 414 345 l 2
 414 359 414 374 411 383 c 0
 397 431 330 413 330 440 c 0
 330 449 339 456 364 456 c 0
 382 456 422 451 450 451 c 0
 468 451 513 457 539 457 c 0
 545 457 556 451 556 441 c 0
 556 426 549 425 538 423 c 0
 495 415 489 409 489 309 c 0
 489 147 487 216 487 124 c 1
 489 52 492 31 564 25 c 0
 566 25 577 21 577 11 c 0
 577 1 577 -2 557 -2 c 0
 540 -2 478 0 457 0 c 0
 430 0 421 0 387 0 c 0
 368 0 364 7 364 15 c 0
 364 27 374 25 386 29 c 0
 408 37 415 43 415 101 c 0
 415 124 415 161 415 189 c 0
 415 211 411 214 392 214 c 0
 336 214 317 213 206 213 c 0
 195 213 181 213 181 193 c 0
 181 149 182 105 182 82 c 0
 182 58 198 25 263 25 c 0
 269 25 275 19 275 14 c 0
 275 0 266 0 256 0 c 0
 220 0 184 0 166 0 c 0x7c
 128 0 106 -1 80 -1 c 0
 51 -1 46 4 46 15 c 0
 46 30 55 32 65 32 c 0
 105 32 107 56 107 147 c 0
 107 314 109 314 109 333 c 0
 109 350 108 367 106 379 c 8
 101 409 63 424 44 424 c 0
 24 424 20 437 20 440 c 0xbc
EndSplineSet
EndChar

StartChar: i.sc
Encoding: 65561 -1 170
Width: 295
VWidth: -4
Flags: HW
PickledData: "(dp1
Vspacing_anchors_slanted
p2
I00
s."
HStem: 0 27<44.008 89.851 200.477 274.993> 424 35<20.0918 97.5093 192.842 249.68>
VStem: 107 73<39.1034 415.501>
AnchorPoint: "top" 139 500 basechar 0
AnchorPoint: "l;bl" 24 20 basechar 0
AnchorPoint: "l;o" 10 220 basechar 0
AnchorPoint: "l;x" 0 415 basechar 0
AnchorPoint: "r;bl" 295 20 basechar 0
AnchorPoint: "r;o" 275 220 basechar 0
AnchorPoint: "r;x" 275 415 basechar 0
LayerCount: 3
Fore
SplineSet
20 440 m 0
 20 451 32 459 41 459 c 0
 61 459 61 453 135 453 c 0
 167 453 183 458 229 458 c 0
 234 458 250 457 250 444 c 0
 250 430 232 431 216 423 c 0
 198 415 182 409 182 350 c 0
 182 342 180 125 180 102 c 0
 180 58 200 38 210 33 c 0
 219 29 242 27 259 27 c 0
 265 27 275 23 275 14 c 0
 275 1 268 -3 256 -3 c 0
 217 -3 176 3 152 3 c 0
 114 3 101 0 75 0 c 0
 46 0 44 5 44 14 c 0
 44 22 55 25 64 27 c 0
 102 37 107 56 107 147 c 0
 107 265 108 284 108 343 c 0
 108 358 108 367 100 401 c 0
 95 422 65 424 46 424 c 0
 21 424 20 439 20 440 c 0
EndSplineSet
EndChar

StartChar: j.sc
Encoding: 65562 -1 171
Width: 264
VWidth: -4
Flags: HW
PickledData: "(dp1
Vspacing_anchors_slanted
p2
I00
s."
HStem: -197 56<29.5043 97.0176> 424 34<20.0175 101.376 196.382 243.453>
VStem: 117 72<-71.0032 413.453>
AnchorPoint: "top" 137 500 basechar 0
AnchorPoint: "l;bl" 20 20 basechar 0
AnchorPoint: "l;k;lo" -5 -205 basechar 0
AnchorPoint: "l;o" 20 220 basechar 0
AnchorPoint: "l;x" 0 415 basechar 0
AnchorPoint: "r;bl" 264 20 basechar 0
AnchorPoint: "r;lo" 205 -205 basechar 0
AnchorPoint: "r;o" 264 220 basechar 0
AnchorPoint: "r;x" 264 415 basechar 0
LayerCount: 3
Fore
SplineSet
14 -159 m 0
 14 -148 21 -118 25 -110 c 0
 28 -104 31 -101 38 -101 c 0
 52 -101 61 -141 78 -141 c 0
 116 -141 117 -34 117 51 c 0
 117 94 115 132 115 147 c 0
 115 265 113 284 113 343 c 0
 113 358 112 367 104 401 c 0
 99 422 65 424 46 424 c 0
 21 424 20 439 20 440 c 0
 20 451 26 458 35 458 c 0
 55 458 56 453 130 453 c 0
 162 453 178 458 224 458 c 0
 229 458 244 458 244 445 c 0
 244 431 232 436 216 428 c 0
 198 420 191 409 191 350 c 0
 191 342 189 125 189 102 c 0
 189 50 187 -13 166 -77 c 0
 148 -131 93 -197 44 -197 c 0
 16 -197 14 -180 14 -159 c 0
EndSplineSet
EndChar

StartChar: k.sc
Encoding: 65563 -1 172
Width: 582
VWidth: 0
Flags: HW
PickledData: "(dp1
Vspacing_anchors_slanted
p2
I00
s."
HStem: -2 29<197.052 275.797> -1 56<456.507 541.045> -1 43<42.4387 101.812> 422 36<185.961 241.561> 430 29<20.012 83.4614>
VStem: 108 72<67.9521 189.385 230.001 413.803>
AnchorPoint: "cedilla" 305 -79 basechar 0
AnchorPoint: "l;bl" 21 20 basechar 0
AnchorPoint: "l;o" 15 220 basechar 0
AnchorPoint: "l;x" 0 415 basechar 0
AnchorPoint: "r;bl" 582 20 basechar 0
AnchorPoint: "r;o" 533 220 basechar 0
AnchorPoint: "r;x" 548 415 basechar 0
LayerCount: 3
Fore
SplineSet
20 446 m 0x2c
 20 453 24 459 42 459 c 0x2c
 63 459 106 456 148 456 c 0
 180 456 176 458 227 458 c 0
 232 458 242 458 242 446 c 0
 242 428 236 431 201 422 c 0x14
 182 417 181 380 181 357 c 0
 181 303 180 256 180 243 c 0
 180 232 181 230 185 230 c 0
 187 230 380 387 380 416 c 0
 380 438 327 420 327 447 c 0
 327 458 334 459 340 459 c 0
 350 459 389 456 438 456 c 0
 475 456 496 459 507 459 c 0
 519 459 529 457 529 441 c 0
 529 415 488 438 433 396 c 0
 376 353 292 272 292 271 c 0
 292 268 435 85 481 55 c 0x4c
 518 31 577 33 577 16 c 0
 577 2 570 -1 553 -1 c 0
 541 -1 519 0 500 0 c 0
 489 0 449 -1 443 -1 c 0x24
 421 -1 322 119 321 120 c 0
 256 194 246 222 235 222 c 0
 218 222 191 190 191 190 c 0
 180 177 180 156 180 146 c 0
 180 108 181 58 195 43 c 0
 209 28 236 27 252 27 c 2
 262 27 l 2
 268 27 276 20 276 15 c 0
 276 -1 259 -2 246 -2 c 0x84
 205 -2 209 3 152 3 c 0
 113 3 94 -1 68 -1 c 0
 47 -1 41 7 41 12 c 0
 41 43 83 28 94 42 c 0
 105 57 108 79 108 305 c 0
 108 383 105 381 99 397 c 0
 91 418 63 430 33 430 c 0
 20 430 20 441 20 446 c 0x2c
EndSplineSet
EndChar

StartChar: l.sc
Encoding: 65564 -1 173
Width: 439
VWidth: 0
Flags: HW
PickledData: "(dp1
Vspacing_anchors_slanted
p2
I00
s."
HStem: 3 33<187.858 318.931> 417 41<187.237 237.252>
VStem: 111 72<39.2684 414.026>
AnchorPoint: "r;s;dot" 385 332 basechar 0
AnchorPoint: "right" 326 454 basechar 0
AnchorPoint: "top" 143 500 basechar 0
AnchorPoint: "cedilla" 237 -79 basechar 0
AnchorPoint: "l;bl" 27 20 basechar 0
AnchorPoint: "l;o" 10 220 basechar 0
AnchorPoint: "l;x" 0 415 basechar 0
AnchorPoint: "r;bl" 439 20 basechar 0
AnchorPoint: "r;o" 410 220 basechar 0
LayerCount: 3
Fore
SplineSet
20 446 m 0
 20 457 31 458 48 458 c 0
 70 458 102 455 130 455 c 0
 181 455 182 458 207 458 c 0
 220 458 239 457 239 443 c 0
 239 427 207 428 197 417 c 0
 189 407 183 390 183 360 c 0
 183 156 184 355 184 98 c 2
 184 79 l 2
 184 50 188 36 230 36 c 0
 390 36 398 103 418 103 c 0
 422 103 429 99 429 84 c 0
 429 54 403 -7 321 -7 c 0
 277 -7 224 3 154 3 c 0
 105 3 87 -2 67 -2 c 0
 60 -2 46 1 46 12 c 0
 46 42 110 6 110 82 c 0
 110 98 109 119 109 153 c 0
 109 233 111 318 111 360 c 0
 111 456 20 404 20 446 c 0
EndSplineSet
EndChar

StartChar: m.sc
Encoding: 65565 -1 174
Width: 692
VWidth: 0
Flags: HW
PickledData: "(dp1
Vspacing_anchors_slanted
p2
I00
s."
HStem: 0 27<616.47 672.745> 426 30<20.0548 86.0859>
VStem: 100 40<48.2019 291.762> 506 71<115.448 300.995> 515 76<44.9586 299.023>
AnchorPoint: "l;bl" 22 20 basechar 0
AnchorPoint: "l;o" 20 220 basechar 0
AnchorPoint: "l;x" 0 415 basechar 0
AnchorPoint: "r;bl" 692 20 basechar 0
AnchorPoint: "r;o" 673 220 basechar 0
AnchorPoint: "r;x" 660 415 basechar 0
LayerCount: 3
Fore
SplineSet
20 442 m 0xf0
 20 455 31 456 47 456 c 0
 57 456 67 456 148 456 c 0
 161 456 171 447 173 442 c 0
 331 111 342 111 348 111 c 0
 355 111 360 119 371 141 c 0
 532 458 526 458 547 458 c 0
 567 458 584 457 597 457 c 0
 636 457 641 454 641 444 c 0
 641 431 628 433 604 422 c 0
 584 414 577 396 577 351 c 0xf0
 577 306 584 191 591 123 c 0
 600 40 611 36 654 27 c 0
 660 26 673 23 673 11 c 0
 673 2 663 0 654 0 c 0
 614 0 584 4 559 4 c 0
 520 4 505 0 478 0 c 0
 466 0 459 6 459 10 c 0
 459 42 515 -1 515 89 c 0xe8
 515 122 506 277 506 279 c 0
 506 294 505 301 499 301 c 0
 493 301 474 262 448 213 c 0
 338 5 344 5 328 5 c 0
 315 5 300 27 279 70 c 2
 195 236 l 2
 174 277 161 305 156 305 c 0
 146 305 140 173 140 107 c 0
 140 13 216 44 216 12 c 0
 216 7 210 0 192 0 c 0
 171 0 145 4 136 4 c 0
 128 4 84 0 65 0 c 0
 44 0 42 4 42 10 c 0
 42 30 95 31 100 86 c 0
 104 127 112 326 112 352 c 0
 112 374 96 426 50 426 c 0
 39 426 20 427 20 442 c 0xf0
EndSplineSet
EndChar

StartChar: n.sc
Encoding: 65566 -1 175
Width: 591
VWidth: 0
Flags: HW
PickledData: "(dp1
Vspacing_anchors_slanted
p2
I00
s."
HStem: -15 21G<489 495> -1 41<50.2733 105.068> 425 32<20.0828 93.7096 383.184 446.668>
VStem: 117 39<73.438 312.552> 125 31<117.39 342.907> 473 39<130.021 400.177>
DStem2: 221 402 199 313 0.656352 -0.754455<11.1632 363.824>
AnchorPoint: "top" 297 500 basechar 0
AnchorPoint: "cedilla" 312 -79 basechar 0
AnchorPoint: "l;bl" 29 20 basechar 0
AnchorPoint: "l;o" 21 220 basechar 0
AnchorPoint: "l;x" 0 415 basechar 0
AnchorPoint: "r;bl" 564 20 basechar 0
AnchorPoint: "r;o" 583 220 basechar 0
AnchorPoint: "r;x" 591 415 basechar 0
LayerCount: 3
Fore
SplineSet
20 443 m 0x6c
 20 453 27 457 44 457 c 0
 54 457 67 455 83 455 c 0
 104 455 130 458 151 458 c 0
 166 458 178 453 180 449 c 0
 182 444 202 426 221 402 c 0
 257 355 321 285 375 225 c 0
 419 176 457 130 463 130 c 0
 469 130 473 159 473 270 c 2
 473 298 l 2
 473 357 469 413 418 425 c 0
 399 429 383 429 383 443 c 0
 383 451 390 456 401 456 c 0
 410 456 483 454 490 454 c 0
 520 454 536 457 549 457 c 0
 565 457 571 454 571 440 c 0
 571 418 512 441 512 347 c 2
 512 341 l 2
 512 286 506 172 506 134 c 0
 506 92 509 11 509 0 c 0
 509 -9 499 -15 491 -15 c 0xac
 487 -15 482 -12 480 -10 c 2
 393 95 l 2
 314 190 260 238 199 313 c 0
 177 340 174 343 170 343 c 0
 161 343 156 304 156 175 c 0
 156 113 157 103 160 72 c 0
 165 16 235 38 235 15 c 0
 235 10 234 0 220 0 c 0
 199 0 208 2 146 2 c 0
 131 2 98 -1 73 -1 c 0
 68 -1 48 -2 48 12 c 0
 48 31 76 28 91 40 c 0
 106 52 111 72 117 114 c 0x74
 120 133 125 264 125 315 c 0
 125 377 108 425 41 425 c 0
 31 425 20 426 20 443 c 0x6c
EndSplineSet
EndChar

StartChar: o.sc
Encoding: 65567 -1 176
Width: 586
VWidth: 0
Flags: W
PickledData: "(dp1
Vspacing_anchors_slanted
p2
I00
s."
HStem: -14 41<239.367 390.749> 436 36<207.635 353.2>
VStem: 39 85<155.9 327.124> 470 77<133.703 319.786>
AnchorPoint: "top" 296 500 basechar 0
AnchorPoint: "l;o" 0 220 basechar 0
AnchorPoint: "r;o" 586 220 basechar 0
LayerCount: 3
Fore
SplineSet
39 224 m 0
 39 388 174 472 305 472 c 0
 415 472 547 397 547 251 c 0
 547 70 419 -14 292 -14 c 0
 166 -14 39 70 39 224 c 0
124 249 m 0
 124 142 212 27 310 27 c 0
 462 27 470 179 470 227 c 0
 470 347 369 436 287 436 c 0
 192 436 124 378 124 249 c 0
EndSplineSet
EndChar

StartChar: p.sc
Encoding: 65568 -1 177
Width: 461
VWidth: 0
Flags: HW
PickledData: "(dp1
Vspacing_anchors_slanted
p2
I00
s."
HStem: -1 32<45.2989 97.9519 195.549 281.175> 204 29<213.71 303.741> 431 35<20.7418 92.6118 191.615 301.093>
VStem: 105 76<40.5874 421.178> 355 86<270.447 386.989>
AnchorPoint: "r;s;aesc" 324 -73 basechar 0
AnchorPoint: "l;bl" 26 20 basechar 0
AnchorPoint: "l;o" 10 220 basechar 0
AnchorPoint: "l;x" 0 415 basechar 0
AnchorPoint: "r;bl" 334 20 basechar 0
AnchorPoint: "r;o" 451 220 basechar 0
AnchorPoint: "r;x" 461 415 basechar 0
LayerCount: 3
Fore
SplineSet
20 445 m 0
 20 449 24 462 43 462 c 0
 51 462 127 460 140 460 c 0
 172 460 256 466 282 466 c 0
 364 466 441 429 441 343 c 0
 441 225 337 204 299 204 c 0
 258 204 202 217 202 227 c 0
 202 235 206 235 212 235 c 0
 222 235 238 233 254 233 c 0
 264 233 355 244 355 330 c 0
 355 370 318 431 239 431 c 2
 231 431 l 2
 206 431 182 428 182 362 c 0
 182 123 181 208 181 97 c 0
 181 41 209 33 236 31 c 0
 259 29 282 30 282 9 c 0
 282 2 272 -1 264 -1 c 0
 222 -1 161 2 147 2 c 0
 129 2 102 -1 70 -1 c 0
 62 -1 45 1 45 12 c 0
 45 30 66 25 83 33 c 0
 93 38 101 47 105 66 c 0
 108 85 109 153 109 232 c 0
 109 335 110 335 110 361 c 0
 110 401 97 431 36 431 c 0
 29 431 20 435 20 445 c 0
EndSplineSet
EndChar

StartChar: q.sc
Encoding: 65569 -1 178
Width: 585
VWidth: 0
Flags: HW
PickledData: "(dp1
Vspacing_anchors_slanted
p2
I00
s."
HStem: -193 48<537.309 645.714> 1 22<214 227> 434 33<207.745 348.335>
VStem: 39 83<153.854 331.553> 80 36<-147.248 -44.3005> 469 77<137.657 312.395>
AnchorPoint: "l;bl" 39 20 basechar 0
AnchorPoint: "l;lo" 63 -205 basechar 0
AnchorPoint: "l;o" 0 220 basechar 0
AnchorPoint: "r;k;lo" 670 -205 basechar 0
AnchorPoint: "r;o" 585 220 basechar 0
LayerCount: 3
Fore
SplineSet
39 237 m 0xf4
 39 377 157 467 296 467 c 0
 418 467 546 398 546 245 c 0
 546 39 364 -6 364 -8 c 0
 364 -15 447 -59 527 -117 c 0
 554 -137 583 -145 601 -145 c 0
 649 -145 641 -134 654 -134 c 0
 664 -134 666 -136 666 -142 c 0
 666 -157 641 -193 555 -193 c 0
 483 -193 444 -152 384 -108 c 1
 384 -108 227 1 190 1 c 0
 176 1 116 -38 116 -98 c 0
 116 -114 120 -127 120 -134 c 0
 120 -146 118 -154 109 -154 c 0
 88 -154 80 -92 80 -78 c 0xec
 80 -18 137 24 137 28 c 0
 137 47 39 91 39 237 c 0xf4
122 258 m 0xf4
 122 132 214 23 306 23 c 0
 419 23 469 95 469 221 c 0
 469 330 382 434 282 434 c 0
 188 434 122 376 122 258 c 0xf4
EndSplineSet
EndChar

